<svg xmlns="http://www.w3.org/2000/svg" width="16.5" height="18.4" viewBox="0 0 16.5 18.4">
  <defs>
    <style>
      .cls-1 {
        fill: #fff;
        fill-rule: evenodd;
      }
    </style>
  </defs>
  <path id="B" class="cls-1" d="M332.139,4957.61a3.436,3.436,0,0,0-1.421,1.56,8.73,8.73,0,0,0-.386,3.11v3.16a4.642,4.642,0,0,1-.654,2.71,5.918,5.918,0,0,1-2.551,1.73,4.8,4.8,0,0,0,1.618-4.08v-4.41a4.723,4.723,0,0,1,.769-2.83,8.193,8.193,0,0,1,3.09-2.2l-0.22-.47a9.3,9.3,0,0,1-1.453.51,4.79,4.79,0,0,1-1.142.13,9.412,9.412,0,0,1-2.1-.32,8.532,8.532,0,0,0-1.855-.32,2.728,2.728,0,0,0-1.427.4,2.538,2.538,0,0,0-1,1.06,4.02,4.02,0,0,0-.36,1.64h0.408a1.991,1.991,0,0,1,.439-1.16,1.1,1.1,0,0,1,.815-0.32,4.561,4.561,0,0,1,.868.13,7.21,7.21,0,0,0,1.715.26,8.267,8.267,0,0,0,2.486-.48,12.711,12.711,0,0,0-2.111,1.59,3.33,3.33,0,0,0-.793,1.26,8.047,8.047,0,0,0-.279,2.2,7.922,7.922,0,0,0-.986-0.07,2.6,2.6,0,0,0-1.763.61,2.435,2.435,0,0,0-.8,1.64l0.413,0.14a1.7,1.7,0,0,1,.492-0.66,1.828,1.828,0,0,1,1.06-.31,1.563,1.563,0,0,1,1.433.76,2.972,2.972,0,0,1,.311,1.52c-0.165-.01-0.286-0.01-0.365-0.01a2.222,2.222,0,0,0-1.613.58,1.927,1.927,0,0,0-.605,1.47c0,0.07,0,.17.01,0.3l0.392,0.01a1.392,1.392,0,0,1,.374-0.82,1.056,1.056,0,0,1,.716-0.24,1.112,1.112,0,0,1,.8.3,1.059,1.059,0,0,1,.315.78,1.731,1.731,0,0,1-.273.86,9.585,9.585,0,0,1-1.254,1.45,8.719,8.719,0,0,0-1.276,1.53,2.026,2.026,0,0,0-.294.95,1.111,1.111,0,0,0,.241.74,0.727,0.727,0,0,0,.541.28,0.48,0.48,0,0,0,.354-0.16,0.519,0.519,0,0,0,.161-0.38,1.309,1.309,0,0,0-.22-0.6,1.361,1.361,0,0,1-.22-0.58,1.4,1.4,0,0,1,.772-1.03,5.411,5.411,0,0,1,3.046-.77,9.109,9.109,0,0,1,2.9.45,7.193,7.193,0,0,1,1.77.91,12.033,12.033,0,0,1,6.5-2.65v-3.69a4.3,4.3,0,0,0-.268-1.79,2.022,2.022,0,0,0-.936-0.88,5.915,5.915,0,0,0-2.1-.47,10.673,10.673,0,0,0,2.308-2.2,3.237,3.237,0,0,0,.626-1.8,2.574,2.574,0,0,0-.8-1.87,3.59,3.59,0,0,0-1.679-.88A22.929,22.929,0,0,0,332.139,4957.61Zm4.362,0.47a2.315,2.315,0,0,1,.551,1.55,3.313,3.313,0,0,1-.707,2.03,7.84,7.84,0,0,1-2.187,1.83v-2.79h-0.472v8.93a9.469,9.469,0,0,0-2.8-.41,12.792,12.792,0,0,0-1.876.15,15.223,15.223,0,0,0,2.476-1.67,3.074,3.074,0,0,0,.826-1.16,5.613,5.613,0,0,0,.214-1.78v-4.39a6.354,6.354,0,0,1,.156-1.69,1.9,1.9,0,0,1,.559-0.86,6.725,6.725,0,0,1,1.563-.89A4.715,4.715,0,0,1,336.5,4958.08Zm-2.343,5.91c0.279-.15.807-0.48,1.586-1a3.086,3.086,0,0,1,1.254.85,1.96,1.96,0,0,1,.333,1.19,4.215,4.215,0,0,1-3.173,0v-1.04Zm3.173,3.42a5.432,5.432,0,0,0-1.629-.3,4.534,4.534,0,0,0-1.544.3v-1.91a4.354,4.354,0,0,0,1.586.32,4.664,4.664,0,0,0,1.587-.32v1.91Zm0,1.97a10.907,10.907,0,0,0-2.3.89,7.439,7.439,0,0,0-.869-0.46v-1.91a3.729,3.729,0,0,1,1.5-.35,5.263,5.263,0,0,1,1.672.35v1.48Z" transform="translate(-323.031 -4955.88)"/>
</svg>
