<?xml version="1.0" encoding="utf-8"?>
<!-- Generator: Adobe Illustrator 21.0.0, SVG Export Plug-In . SVG Version: 6.00 Build 0)  -->
<svg version="1.1" id="Слой_1" xmlns="http://www.w3.org/2000/svg" xmlns:xlink="http://www.w3.org/1999/xlink" x="0px" y="0px"
	 viewBox="0 0 608.8 217.8" style="enable-background:new 0 0 608.8 217.8;" xml:space="preserve">
<style type="text/css">
	.st0{fill:#F25022;}
	.st1{fill:#7FBA00;}
	.st2{fill:#00A4EF;}
	.st3{fill:#FFB900;}
	.st4{fill:#FFFFFF;}
</style>
<g id="Layer_2">
	<rect width="608.8" height="217.8"/>
</g>
<g id="Layer_1">
	<rect x="48.3" y="47" class="st0" width="59.4" height="59.4"/>
	<rect x="113.9" y="47" class="st1" width="59.4" height="59.4"/>
	<rect x="48.3" y="112.4" class="st2" width="59.4" height="59.4"/>
	<rect x="113.9" y="112.4" class="st3" width="59.4" height="59.4"/>
	<path class="st4" d="M287.6,113.9c0-1.8,0.6-3.2,1.9-4.4c1.3-1.2,2.8-1.8,4.5-1.8c1.8,0,3.4,0.6,4.6,1.8c1.2,1.2,1.8,2.7,1.8,4.3
		c0,1.7-0.6,3.2-1.9,4.3c-1.3,1.2-2.8,1.8-4.6,1.8s-3.3-0.6-4.6-1.8C288.3,117,287.6,115.6,287.6,113.9 M299.3,171.8h-10.6v-45h10.6
		V171.8z"/>
	<path class="st4" d="M331.5,164.1c1.6,0,3.3-0.4,5.2-1.1c1.9-0.7,3.6-1.7,5.2-2.9v9.8c-1.7,1-3.6,1.7-5.7,2.2s-4.5,0.8-7.1,0.8
		c-6.6,0-12-2.1-16.1-6.3s-6.2-9.6-6.2-16c0-7.2,2.1-13.2,6.4-17.9s10.2-7,18-7c2,0,4,0.3,6,0.8c2.1,0.5,3.6,1.1,4.8,1.8v10.1
		c-1.6-1.2-3.3-2.1-5-2.8c-1.7-0.6-3.5-1-5.2-1c-4.2,0-7.5,1.3-10.1,4c-2.5,2.7-3.8,6.4-3.8,11c0,4.5,1.2,8.1,3.7,10.6
		C323.9,162.9,327.2,164.1,331.5,164.1"/>
	<path class="st4" d="M372,126.1c0.9,0,1.6,0.1,2.3,0.1c0.6,0.1,1.3,0.3,1.7,0.4v10.7c-0.6-0.4-1.3-0.8-2.4-1.1
		c-1.1-0.4-2.3-0.6-3.9-0.6c-2.6,0-4.8,1.1-6.6,3.3c-1.8,2.2-2.7,5.5-2.7,10.1v22.7h-10.6v-45h10.6v7.1h0.1c1-2.5,2.4-4.4,4.4-5.7
		S369.3,126.1,372,126.1"/>
	<path class="st4" d="M376.6,150c0-7.4,2.1-13.3,6.3-17.7c4.2-4.3,10.1-6.5,17.5-6.5c7,0,12.5,2.1,16.5,6.3c4,4.2,6,9.8,6,16.9
		c0,7.3-2.1,13.1-6.3,17.4c-4.2,4.3-9.9,6.4-17.1,6.4c-6.9,0-12.5-2.1-16.6-6.2C378.6,162.7,376.6,157.1,376.6,150 M387.6,149.6
		c0,4.7,1.1,8.3,3.2,10.8s5.2,3.7,9.1,3.7c3.8,0,6.8-1.2,8.8-3.7s3-6.2,3-11s-1.1-8.5-3.1-11c-2.1-2.5-5-3.7-8.8-3.7
		c-3.9,0-6.9,1.3-9.1,3.9C388.7,141.2,387.6,144.8,387.6,149.6"/>
	<path class="st4" d="M438.6,138.7c0,1.5,0.5,2.7,1.4,3.5c1,0.9,3.1,1.9,6.4,3.3c4.3,1.7,7.2,3.6,8.9,5.7c1.7,2.1,2.5,4.7,2.5,7.6
		c0,4.3-1.6,7.6-4.9,10.2c-3.3,2.5-7.6,3.8-13.2,3.8c-1.8,0-3.9-0.2-6.2-0.7c-2.3-0.4-4.2-1.1-5.7-1.7V160c1.9,1.3,4,2.4,6.2,3.2
		c2.2,0.8,4.3,1.2,6,1.2c2.4,0,4.2-0.4,5.3-1c1.1-0.6,1.7-1.8,1.7-3.4c0-1.5-0.6-2.7-1.8-3.7c-1.2-1-3.4-2.2-6.7-3.5
		c-3.9-1.6-6.7-3.5-8.3-5.5c-1.6-2.1-2.5-4.7-2.5-7.8c0-4,1.6-7.4,4.8-10c3.2-2.6,7.4-3.9,12.5-3.9c1.6,0,3.3,0.1,5.3,0.5
		s3.6,0.8,4.9,1.3v10.1c-1.4-0.9-3-1.7-4.9-2.4c-1.8-0.6-3.8-1-5.5-1c-2,0-3.6,0.4-4.7,1.2C439.1,136.2,438.6,137.3,438.6,138.7"/>
	<path class="st4" d="M462.5,150c0-7.4,2.1-13.3,6.3-17.7c4.2-4.3,10.1-6.5,17.5-6.5c7,0,12.5,2.1,16.5,6.3c4,4.2,6,9.8,6,16.9
		c0,7.3-2.1,13.1-6.3,17.4c-4.2,4.3-9.9,6.4-17.1,6.4c-6.9,0-12.5-2.1-16.6-6.2C464.6,162.7,462.5,157.1,462.5,150 M473.5,149.6
		c0,4.7,1.1,8.3,3.2,10.8s5.2,3.7,9.1,3.7c3.8,0,6.8-1.2,8.8-3.7s3-6.2,3-11s-1.1-8.5-3.1-11c-2.1-2.5-5-3.7-8.8-3.7
		c-3.9,0-6.9,1.3-9.1,3.9C474.5,141.2,473.5,144.8,473.5,149.6"/>
	<path class="st4" d="M543.7,135.5v23.1c0,4.8,1.1,8.4,3.3,10.8s5.6,3.5,10.1,3.5c1.5,0,3-0.1,4.6-0.5s2.7-0.6,3.3-1.1v-8.8
		c-0.6,0.4-1.4,0.8-2.3,1.1c-0.9,0.3-1.6,0.4-2.2,0.4c-2.1,0-3.8-0.6-4.7-1.7s-1.5-3.1-1.5-5.9v-21h10.8v-8.6h-10.7v-13.3l-10.6,3.3
		v10.1H528v-5.5c0-2.7,0.6-4.7,1.8-6.2s2.9-2.1,5.1-2.1c1.1,0,2.1,0.1,3,0.4s1.5,0.6,1.8,0.8v-9.1c-0.8-0.3-1.6-0.4-2.6-0.6
		c-1-0.1-2.1-0.2-3.4-0.2c-4.8,0-8.8,1.5-11.8,4.5s-4.6,6.9-4.6,11.6v6.2h-7.5v8.6h7.5v36.6H528v-36.3L543.7,135.5L543.7,135.5z"/>
	<polygon class="st4" points="278.5,109 278.5,171.8 267.6,171.8 267.6,122.6 267.5,122.6 248,171.8 240.8,171.8 220.8,122.6 
		220.7,122.6 220.7,171.8 210.6,171.8 210.6,109 226.2,109 244.3,155.6 244.5,155.6 263.6,109 	"/>
	<path class="st4" d="M239.2,81.9c-3.8,2.1-8,3.2-12.8,3.2c-3.6,0-6.8-0.8-9.6-2.4s-5-3.8-6.4-6.7s-2.3-6.2-2.3-9.8
		c0-3.8,0.9-7.3,2.5-10.3s4-5.4,7-7.1s6.4-2.5,10.3-2.5c1.9,0,3.8,0.2,5.7,0.6s3.5,0.8,4.7,1.4V54c-2.8-1.9-6.4-2.8-10.8-2.8
		c-2.6,0-5,0.6-7.1,1.9s-3.8,3-4.9,5.2c-1.1,2.3-1.7,4.8-1.7,7.7c0,4.5,1.2,8,3.5,10.6s5.6,3.9,9.7,3.9c2.6,0,5-0.5,6.9-1.6v-9.7h-8
		v-4.7h13.2v17.4H239.2z"/>
	<path class="st4" d="M269.8,72.5h-18.6c0.1,2.7,0.9,4.7,2.3,6.2c1.5,1.4,3.4,2.2,5.8,2.2c3.2,0,6-0.9,8.4-2.8v4.5
		c-1.1,0.7-2.4,1.3-4,1.8s-3.3,0.6-5,0.6c-4,0-7.2-1.2-9.4-3.6s-3.3-5.8-3.3-10.2c0-2.7,0.6-5.2,1.6-7.3c1.1-2.2,2.6-3.9,4.5-5.1
		s4.1-1.8,6.4-1.8c3.5,0,6.2,1.1,8.2,3.4s3,5.4,3,9.4L269.8,72.5L269.8,72.5z M264.6,68.5c0-2.3-0.6-4.1-1.6-5.3s-2.6-1.8-4.5-1.8
		c-1.8,0-3.3,0.6-4.7,1.9s-2.1,3-2.6,5.2L264.6,68.5L264.6,68.5z"/>
	<path class="st4" d="M289.9,84.2c-0.5,0.3-1.1,0.5-2.1,0.6c-0.9,0.1-1.6,0.2-2.3,0.2c-5,0-7.4-2.8-7.4-8.2V61.9h-4.5v-4.3h4.5v-6.4
		l5.2-1.6v7.9h6.6v4.3h-6.6v14c0,1.8,0.3,3,0.9,3.8c0.6,0.7,1.6,1.1,3,1.1c1,0,1.9-0.3,2.7-0.8L289.9,84.2L289.9,84.2z"/>
	<path class="st4" d="M315.5,48.2c0,0.9-0.3,1.6-0.9,2.2s-1.4,0.9-2.3,0.9s-1.7-0.3-2.3-0.9c-0.6-0.6-0.9-1.3-0.9-2.3s0.4-1.7,1-2.3
		c0.6-0.6,1.4-0.9,2.3-0.9s1.6,0.3,2.3,0.9C315.2,46.6,315.5,47.3,315.5,48.2 M314.8,84.5h-5.2V57.7h5.2V84.5z"/>
	<path class="st4" d="M337.3,84.2c-0.5,0.3-1.1,0.5-2.1,0.6c-0.9,0.1-1.6,0.2-2.3,0.2c-5,0-7.4-2.8-7.4-8.2V61.9H321v-4.3h4.5v-6.4
		l5.2-1.6v7.9h6.6v4.3h-6.6v14c0,1.8,0.3,3,0.9,3.8c0.6,0.7,1.6,1.1,3,1.1c1,0,1.9-0.3,2.7-0.8L337.3,84.2L337.3,84.2z"/>
	<path class="st4" d="M371.1,49.2c-0.9-0.4-1.8-0.7-2.8-0.7c-2.9,0-4.3,1.8-4.3,5.3v3.8h6.1v4.3H364v22.5h-5.2V61.9h-4.5v-4.3h4.5
		v-4.1c0-2.8,0.8-5.1,2.4-6.8c1.6-1.7,3.8-2.5,6.7-2.5c1.4,0,2.5,0.1,3.3,0.5L371.1,49.2L371.1,49.2z"/>
	<path class="st4" d="M390.2,62.9c-0.3-0.2-0.9-0.4-1.6-0.6c-0.7-0.1-1.3-0.3-1.8-0.3c-1.8,0-3.3,0.8-4.5,2.5
		c-1.1,1.6-1.7,3.8-1.7,6.4v13.7h-5.2V57.8h5.2v5.4h0.1c0.6-1.8,1.5-3.3,2.7-4.3c1.2-1.1,2.6-1.6,4.2-1.6c1.1,0,1.9,0.1,2.5,0.4
		L390.2,62.9L390.2,62.9z"/>
	<path class="st4" d="M419.7,70.9c0,4.3-1.3,7.8-3.8,10.3S410.1,85,406,85c-4,0-7.3-1.3-9.7-3.8s-3.6-5.8-3.6-10
		c0-4.5,1.3-7.9,3.8-10.5s5.9-3.8,10.2-3.8c4,0,7.2,1.2,9.5,3.7C418.6,63.2,419.7,66.6,419.7,70.9 M414.4,71.1
		c0-3.2-0.7-5.6-2.1-7.2s-3.3-2.5-5.9-2.5s-4.6,0.9-6.1,2.6s-2.2,4.2-2.2,7.3c0,3,0.7,5.4,2.2,7.1s3.5,2.6,6.1,2.6s4.6-0.9,6-2.5
		C413.7,76.7,414.4,74.3,414.4,71.1"/>
	<path class="st4" d="M466,84.5h-5.2V69.3c0-2.8-0.4-4.7-1.3-6s-2.3-1.8-4.4-1.8c-1.7,0-3.2,0.8-4.3,2.3c-1.2,1.6-1.8,3.5-1.8,5.6
		v15.2h-5.2V68.9c0-4.9-1.9-7.4-5.7-7.4c-1.8,0-3.3,0.8-4.4,2.3s-1.7,3.4-1.7,5.7v15.2h-5.2V57.9h5.2v4.2h0.1
		c1.9-3.3,4.7-4.8,8.4-4.8c1.7,0,3.3,0.5,4.7,1.4c1.3,0.9,2.3,2.3,3,4c1.1-1.8,2.3-3.2,3.8-4.1s3.2-1.3,5.2-1.3
		c5.9,0,8.8,3.6,8.8,10.9V84.5L466,84.5z"/>
</g>
</svg>
