<svg xmlns="http://www.w3.org/2000/svg" width="12" height="11">
    <path fill="#FFF" fill-rule="evenodd" d="M11.09 0H.936a.923.923 0 0 0-.924.916V7.33c0 .504.416.916.924.916h4.846l3.461 2.749V8.246h1.847a.922.922 0 0 0 .923-.916V.916A.923.923 0 0 0 11.09 0zM2.837 5.27a.963.963 0 0 1-.967-.959c0-.53.433-.96.967-.96s.966.43.966.96a.963.963 0 0 1-.966.959zm3.175 0a.963.963 0 0 1-.966-.959c0-.53.433-.96.966-.96.534 0 .967.43.967.96a.963.963 0 0 1-.967.959zm3.176 0a.963.963 0 0 1-.967-.959c0-.53.433-.96.967-.96.533 0 .966.43.966.96a.963.963 0 0 1-.966.959z" opacity=".749"/>
</svg>
