<?xml version="1.0" encoding="utf-8"?>
<svg version="1.1" id="Слой_1" xmlns="http://www.w3.org/2000/svg" xmlns:xlink="http://www.w3.org/1999/xlink" x="0px" y="0px"
	 viewBox="0 0 171 106.2" style="enable-background:new 0 0 171 106.2;" xml:space="preserve" preserveAspectRatio="none">
<style type="text/css">
	.st0{fill:#14D883;}
	.st1{fill:#29E392;}
	.st2{fill:none;stroke:#FFFFFF;}
	.st3{fill:none;stroke:#FFFFFF;stroke-width:2;}
</style>
<path class="st0" d="M4,0h163c2.2,0,4,1.8,4,4v98.2c0,2.2-1.8,4-4,4H4c-2.2,0-4-1.8-4-4V4C0,1.8,1.8,0,4,0z"/>
<path class="st1" d="M4.4,0h12.5v106.2H4.4c-2.4,0-4.4-1.8-4.4-4.1V4.2C0,1.9,2,0,4.4,0z"/>
<rect x="30.7" y="0" class="st1" width="15.5" height="106.2"/>
<path class="st2" d="M16.2,43.3c5.3,0,9.7,4.3,9.7,9.7s-4.3,9.7-9.7,9.7C16.2,55.4,16.2,49.8,16.2,43.3z"/>
<rect x="92.6" y="0.1" class="st1" width="15.5" height="106.1"/>
<rect x="61.9" y="0.1" class="st1" width="15.5" height="106.1"/>
<path class="st1" d="M154.5,0H167c2.2,0,4,1.8,4,4v98.2c0,2.2-1.8,4-4,4h-12.5c0,0-0.1,0-0.1-0.1L154.5,0C154.4,0,154.5,0,154.5,0z"
	/>
<rect x="124.3" y="0" class="st1" width="15.6" height="106.2"/>
<path class="st2" d="M154.8,43.6c-5.6,0-10.1,4.3-10.1,9.5c0,5.3,4.5,9.5,10.1,9.5C154.8,55.5,154.8,50,154.8,43.6z"/>
<path class="st2" d="M168.9,99.5c0,0-0.7-0.2-1.1-0.2c-2,0-3.5,1.6-3.5,3.6c0,0.4,0.2,1.1,0.2,1.1l4.4,0
	C168.9,104,168.9,99.5,168.9,99.5z"/>
<path class="st2" d="M164.4,2.2c0,0-0.2,0.7-0.2,1.1c0,2,1.6,3.6,3.6,3.6h0c0.4,0,1.1-0.2,1.1-0.2l0-4.4L164.4,2.2z"/>
<path class="st2" d="M2.4,6.7c0,0,0.7,0.2,1.1,0.2C5.4,6.8,7,5.2,7,3.2c0-0.4-0.2-1.1-0.2-1.1l-4.4,0C2.4,2.2,2.4,6.7,2.4,6.7z"/>
<path class="st2" d="M6.8,104c0,0,0.2-0.7,0.2-1.1c0-2-1.6-3.6-3.6-3.6c0,0,0,0,0,0c-0.4,0-1.1,0.2-1.1,0.2l0,4.4
	C2.4,103.9,6.8,104,6.8,104z"/>
<rect x="2" y="27.9" class="st2" width="14.2" height="49"/>
<path class="st2" d="M2,2h167v102.1H2V2z"/>
<path class="st2" d="M154.8,27.9H169v49h-14.2V27.9z"/>
<rect x="161.5" y="35.4" class="st2" width="7.5" height="34.1"/>
<rect x="2" y="35.4" class="st2" width="7.5" height="34.1"/>
<ellipse class="st2" cx="85.5" cy="52.4" rx="16.9" ry="16.9"/>
<path class="st3" d="M84.8,103.5h0.3V2.9h-0.3V103.5z"/>
</svg>
