<svg xmlns="http://www.w3.org/2000/svg" width="14" height="15" viewBox="0 0 14 15">
  <defs>
    <style>
      .cls-1 {
        fill: #fff;
        fill-rule: evenodd;
      }
    </style>
  </defs>
  <path id="_-e-share-icon" data-name="-e-share-icon" class="cls-1" d="M777.472,2261.15a1.35,1.35,0,1,1-1.361,1.35A1.36,1.36,0,0,1,777.472,2261.15Zm0-10a1.35,1.35,0,1,1-1.361,1.35A1.36,1.36,0,0,1,777.472,2251.15Zm-8.944,5a1.35,1.35,0,1,1-1.361,1.35A1.36,1.36,0,0,1,768.528,2256.15Zm8.944-6.15a2.5,2.5,0,1,1-1.923,4.12l-4.565,2.79a2.487,2.487,0,0,1,0,1.18l4.565,2.79a2.48,2.48,0,1,1-.533,1.03l-4.565-2.79a2.5,2.5,0,1,1,0-3.24l4.565-2.79A2.5,2.5,0,0,1,777.472,2250Zm1.361,2.5a1.361,1.361,0,1,0-1.361,1.35A1.36,1.36,0,0,0,778.833,2252.5Zm0,10a1.361,1.361,0,1,0-1.361,1.35A1.36,1.36,0,0,0,778.833,2262.5Zm-8.944-5a1.361,1.361,0,1,0-1.361,1.35A1.36,1.36,0,0,0,769.889,2257.5Z" transform="translate(-766 -2250)"/>
</svg>
