<svg xmlns="http://www.w3.org/2000/svg" width="15.969" height="10" viewBox="0 0 15.969 10">
  <defs>
    <style>
      .cls-1 {
        fill: #d9dbdc;
        fill-rule: evenodd;
      }
    </style>
  </defs>
  <path id="_-e-show-password" data-name="-e-show-password" class="cls-1" d="M990,401c-3.057,0-5.829,1.754-7.874,4.6a0.69,0.69,0,0,0,0,.793C984.171,409.246,986.943,411,990,411s5.828-1.754,7.874-4.6a0.69,0.69,0,0,0,0-.793C995.828,402.754,993.057,401,990,401Zm0.219,8.521a3.532,3.532,0,1,1,3.139-3.291A3.452,3.452,0,0,1,990.219,409.521Zm-0.1-1.627a1.9,1.9,0,1,1,1.692-1.774A1.853,1.853,0,0,1,990.118,407.894Z" transform="translate(-982.031 -401)"/>
</svg>
