<svg 
 xmlns="http://www.w3.org/2000/svg"
 xmlns:xlink="http://www.w3.org/1999/xlink"
 width="14px" height="19px">
<path fill-rule="evenodd"  fill="rgb(72, 110, 124)"
 d="M12.682,17.682 C10.925,19.439 8.075,19.439 6.318,17.682 C4.561,15.925 4.561,13.075 6.318,11.318 C8.075,9.561 10.925,9.561 12.682,11.318 C14.439,13.075 14.439,15.925 12.682,17.682 ZM12.328,12.379 L11.621,11.671 L9.500,13.793 L7.379,11.671 L6.672,12.379 L8.793,14.500 L6.672,16.621 L7.379,17.328 L9.500,15.207 L11.621,17.328 L12.328,16.621 L10.207,14.500 L12.328,12.379 ZM-0.000,2.000 L2.594,2.000 L3.757,-0.000 L7.592,-0.000 L8.754,2.000 L11.000,2.000 L11.000,3.000 L-0.000,3.000 L-0.000,2.000 ZM9.488,9.117 C9.169,9.045 8.841,9.000 8.500,9.000 C6.015,9.000 4.000,11.015 4.000,13.500 C4.000,13.671 4.032,13.834 4.050,14.000 L2.000,14.000 L1.000,4.000 L10.000,4.000 L9.488,9.117 Z"/>
</svg>