<?xml version="1.0" encoding="utf-8"?>
<svg version="1.1" xmlns="http://www.w3.org/2000/svg" xmlns:xlink="http://www.w3.org/1999/xlink" x="0px" y="0px"
	 viewBox="0 0 9 8.2" style="enable-background:new 0 0 9 8.2;" xml:space="preserve">
<path fill="#5B9DE9" d="M1.5,4.3h-1c0-3.4,3.5-3.4,7.1-3.4v1C2.9,1.8,1.5,1.9,1.5,4.3z M6.2,2.6V0l2.5,1.3
	L6.2,2.6z M2.5,8L0,6.7l2.5-1.3V8z M8.4,7.2H1.1v-1h7.3V7.2L8.4,7.2z M9,6.7c0.1,0.8-0.5,1.5-1.3,1.6C6.9,8.3,6.2,7.7,6.1,6.9
	C6,6.1,6.6,5.4,7.4,5.4c0,0,0.1,0,0.1,0C8.3,5.3,9,5.9,9,6.7L9,6.7z"/>
</svg>
