<?xml version="1.0" encoding="utf-8"?>
<svg version="1.1" id="Слой_1" xmlns="http://www.w3.org/2000/svg" xmlns:xlink="http://www.w3.org/1999/xlink" x="0px" y="0px"
	 viewBox="0 0 14 10" style="enable-background:new 0 0 14 10;" xml:space="preserve">
<style type="text/css">
	.st0{fill:#353C53;}
</style>
<path class="st0" d="M13.9,7.8c0,0-0.1,1-0.6,1.4c-0.5,0.6-1.1,0.6-1.4,0.6C9.9,10,7,10,7,10s-3.6,0-4.8-0.1c-0.3-0.1-1,0-1.5-0.6
	C0.3,8.8,0.1,7.8,0.1,7.8S0,6.7,0,5.5V4.5c0-1.2,0.1-2.3,0.1-2.3s0.1-1,0.6-1.4c0.5-0.6,1.1-0.6,1.4-0.6C4.1,0,7,0,7,0h0
	c0,0,2.9,0,4.9,0.1c0.3,0,0.9,0,1.4,0.6c0.4,0.4,0.6,1.4,0.6,1.4S14,3.3,14,4.5v1.1C14,6.7,13.9,7.8,13.9,7.8z M5.6,2.8L5.4,7l0,0v0
	L9,5.1h0l0.5-0.3C9.5,4.9,5.6,2.8,5.6,2.8z"/>
</svg>
