<svg xmlns="http://www.w3.org/2000/svg" width="19" height="14" viewBox="0 0 19 14">
  <defs>
    <style>
      .cls-1 {
        fill: #c3c6c7;
        fill-rule: evenodd;
      }
    </style>
  </defs>
  <path id="_-e-clear-input" data-name="-e-clear-input" class="cls-1" d="M1369.1,22h-9.08a2.313,2.313,0,0,0-1.33.527l-6.45,5.946a0.7,0.7,0,0,0,0,1.054l6.45,5.947a2.313,2.313,0,0,0,1.33.527h9.08a1.961,1.961,0,0,0,1.9-2V24A1.961,1.961,0,0,0,1369.1,22Zm-2.67,11L1364,30.444,1361.57,33l-1.37-1.444L1362.63,29l-2.43-2.556L1361.57,25l2.43,2.556L1366.43,25l1.37,1.443L1365.37,29l2.43,2.556Z" transform="translate(-1352 -22)"/>
</svg>
