<svg xmlns="http://www.w3.org/2000/svg" width="10" height="10">
    <path fill-rule="evenodd" d="M5.25.479a4.305 4.305 0 0 0-4.3 4.3c0 2.371 1.929 4.3 4.3 4.3 2.371 0 4.3-1.929 4.3-4.3 0-2.371-1.929-4.3-4.3-4.3zM2.489 7.665a3.984 3.984 0 0 1-1.237-2.886l.002-.071 1.113.384.78 2.008-.658.565zM3.4 1.767l2.022-.728L6.869 2.39 5.68 4.092l-2.213-.42L3.4 1.767zm4.52 5.984a4.423 4.423 0 0 1-.26.215l-1.662.71-1.089-1.135 1.413-1.59 1.888.232-.29 1.568zm.532-5.362c.499.667.796 1.495.796 2.39l-.002.072-.226-.057-.68-1.918.112-.487z"/>
</svg>
