<?xml version="1.0" encoding="utf-8"?>
<svg version="1.1" id="Слой_1" xmlns="http://www.w3.org/2000/svg" xmlns:xlink="http://www.w3.org/1999/xlink" x="0px" y="0px"
	 viewBox="0 0 11.1 7.2" style="enable-background:new 0 0 11.1 7.2;" xml:space="preserve">
<style type="text/css">
	.st0{fill:#353C53;}
</style>
<path id="_-e-google_" class="st0" d="M4.1,4.3h1.7c-0.3,0.9-1.1,1.5-2,1.5C2.5,5.8,1.5,4.7,1.6,3.5c0.1-1.2,1-2.1,2.1-2.1
	c0.5,0,1.1,0.2,1.4,0.6C5.3,2,5.4,2,5.5,2c0,0,0,0,0,0l0.6-0.6c0.1-0.1,0.1-0.3,0-0.4C5.5,0.4,4.7,0,3.8,0C1.8-0.1,0.1,1.4,0,3.4
	c-0.1,2,1.4,3.7,3.4,3.8c2,0.1,3.7-1.4,3.8-3.4c0,0,0,0,0,0V3H4.1C4,3,3.9,3.1,3.9,3.2l0,0v0.9C3.8,4.2,3.9,4.3,4.1,4.3
	C4.1,4.3,4.1,4.3,4.1,4.3z M10.1,3.1V2.2C10.1,2.1,10,2,9.9,2c0,0,0,0,0,0H9.2C9,2,9,2.1,9,2.2c0,0,0,0,0,0v0.9H8.1
	C8,3.1,7.9,3.2,7.9,3.3V4c0,0.1,0.1,0.2,0.2,0.2H9v0.9c0,0.1,0.1,0.2,0.2,0.2c0,0,0,0,0,0h0.7c0.1,0,0.2-0.1,0.2-0.2c0,0,0,0,0,0
	V4.2h0.8c0.1,0,0.2-0.1,0.2-0.2V3.3c0-0.1-0.1-0.2-0.2-0.2H10.1z"/>
</svg>
