<svg xmlns="http://www.w3.org/2000/svg" width="11" height="11">
    <path fill="#353C53" fill-rule="evenodd" d="M8.137 10.999H3.49c-1.579 0-2.863-1.31-2.863-2.919V3.34C.627 1.732 1.911.421 3.49.421h4.647C9.716.421 11 1.732 11 3.34v4.74c0 1.609-1.284 2.919-2.863 2.919zM10.08 3.34c0-1.092-.872-1.98-1.943-1.98H3.49c-1.071 0-1.942.888-1.942 1.98v4.74c0 1.091.871 1.979 1.942 1.979h4.647c1.071 0 1.943-.888 1.943-1.979V3.34zm-1.482.225a.67.67 0 0 1-.476-.201.701.701 0 0 1 0-.974.671.671 0 0 1 .476-.202c.178 0 .353.074.478.202a.697.697 0 0 1 0 .974.675.675 0 0 1-.478.201zm-2.784 4.87c-1.474 0-2.673-1.223-2.673-2.725 0-1.503 1.199-2.725 2.673-2.725 1.473 0 2.672 1.222 2.672 2.725 0 1.502-1.199 2.725-2.672 2.725zm0-4.513c-.967 0-1.753.802-1.753 1.788 0 .985.786 1.787 1.753 1.787.966 0 1.752-.802 1.752-1.787 0-.986-.786-1.788-1.752-1.788z"/>
</svg>
