<svg xmlns="http://www.w3.org/2000/svg" width="9" height="11" viewBox="0 0 9 11">
  <defs>
    <style>
      .cls-1 {
        fill: #486e7c;
        fill-rule: evenodd;
      }
    </style>
  </defs>
  <path id="Фигура_2" data-name="Фигура 2" class="cls-1" d="M174,235l-0.021-1h-5L169,235c-0.926.051-2,.041-2,1.015A4.386,4.386,0,0,0,168.012,238S168,243,171,242.979V244h-1.938l-0.02,1H174v-1h-2v-1c3,0,3.012-5,3.012-5a3.76,3.76,0,0,0,.988-2C176,235.025,174.925,235.051,174,235Zm0,4c0,1-1,3-2,3h-1c-1,0-2-3-2-3v-4h5.012Z" transform="translate(-167 -234)"/>
</svg>
