<svg xmlns="http://www.w3.org/2000/svg" width="14.665" height="15.987">
    <path fill="#486E7C" fill-rule="evenodd" d="M0 11.967V1l2.053.006V0H3v1.008l5 .015V0h.947v1.026L11 1.032v10.967l-11-.032zm10-9.988l-1.053-.004V3H8V1.971l-5-.018V3h-.947V1.95L.947 1.946v1.071H10V1.979zm0 1.999H.947v7.09l9.053.033V3.978zM2.905 8H2v-.906h.905V8zm0 2H2v-.906h.905V10zM5 5.905h-.905v-.906H5v.906zM5 8h-.905v-.906H5V8zm0 2h-.905v-.906H5V10zm1.905-2H6v-.906h.905V8zM7 9.905h-.905V9H7v.905zM8.905 6H8v-.906h.905V6zm0 2H8v-.906h.905V8zm-2.81-2.906H7V6h-.905v-.906z"/>
</svg>
