<svg xmlns="http://www.w3.org/2000/svg" width="14.665" height="13.342">
    <path fill="#C9CCD1" fill-rule="evenodd" d="M11.008 3.286c0-1.814-1.414-3.285-3.159-3.285-.928 0-1.762.416-2.34 1.078A3.099 3.099 0 0 0 3.169.001C1.424.001.01 1.472.01 3.286c0 .964.4 1.832 1.036 2.433h-.005l3.437 3.573c.344.358.687.715 1.031.715.344 0 .687-.357 1.031-.715l3.437-3.573h-.005a3.34 3.34 0 0 0 1.036-2.433zm-1.96 1.375l-3.48 3.62-.059.062a23.187 23.187 0 0 1-.059-.062l-3.48-3.62a1.873 1.873 0 0 1-.585-1.375c0-1.023.8-1.855 1.784-1.855.51 0 .979.216 1.322.609l1.018 1.165L6.527 2.04a1.734 1.734 0 0 1 1.322-.609c.984 0 1.784.832 1.784 1.855 0 .53-.208 1.018-.585 1.375z"/>
</svg>
