<svg xmlns="http://www.w3.org/2000/svg" width="12" height="12.969" viewBox="0 0 12 12.969">
  <defs>
    <style>
      .cls-1 {
        fill: #c6c8c8;
        fill-rule: evenodd;
      }
    </style>
  </defs>
  <path id="_-e-Notifications_icon" data-name="-e-Notifications icon" class="cls-1" d="M252.484,28.41c-1.71-3.594-2.6-4.959-5.393-4.9-1,.02-0.756-0.7-1.515-0.429s-0.108.677-.883,1.3c-2.177,1.745-1.976,3.36-.967,7.208,0.426,1.621-1.025,1.7-.451,3.271,0.419,1.145,3.509,1.625,6.768.444s5.318-3.526,4.9-4.672C254.368,29.056,253.205,29.923,252.484,28.41Zm-2.8,5.921c-2.911,1.055-5.3.434-5.405,0.159-0.174-.476.94-2.063,4.269-3.269s5.186-.759,5.38-0.228C254.048,31.306,252.6,33.276,249.689,34.331Zm-0.935-2.56a10.975,10.975,0,0,0-3.264,1.751,2.346,2.346,0,0,0,2.284.205c1.145-.415,1.849-1.367,1.57-2.127,0-.009-0.008-0.018-0.011-0.027C249.145,31.634,248.952,31.7,248.754,31.771Z" transform="translate(-243 -23)"/>
</svg>
