<svg xmlns="http://www.w3.org/2000/svg" width="15" height="15">
    <path fill="#FFF" fill-rule="evenodd" d="M10.524 14.25H4.475A3.73 3.73 0 0 1 .75 10.524V4.475A3.73 3.73 0 0 1 4.475.75h6.049a3.73 3.73 0 0 1 3.726 3.725v6.049a3.73 3.73 0 0 1-3.726 3.726zm2.528-9.775a2.53 2.53 0 0 0-2.528-2.527H4.475a2.53 2.53 0 0 0-2.527 2.527v6.049a2.53 2.53 0 0 0 2.527 2.528h6.049a2.53 2.53 0 0 0 2.528-2.528V4.475zm-1.928.288a.882.882 0 0 1-.878-.879.88.88 0 0 1 1.5-.621.884.884 0 0 1 .257.621.886.886 0 0 1-.257.621.889.889 0 0 1-.622.258zM7.5 10.979A3.483 3.483 0 0 1 4.021 7.5 3.483 3.483 0 0 1 7.5 4.021 3.483 3.483 0 0 1 10.978 7.5 3.483 3.483 0 0 1 7.5 10.979zm0-5.76A2.283 2.283 0 0 0 5.219 7.5 2.283 2.283 0 0 0 7.5 9.78 2.284 2.284 0 0 0 9.781 7.5 2.283 2.283 0 0 0 7.5 5.219z"/>
</svg>
