<svg 
 xmlns="http://www.w3.org/2000/svg"
 xmlns:xlink="http://www.w3.org/1999/xlink"
 width="8px" height="9px">
<path fill-rule="evenodd"  fill="rgb(255, 255, 255)"
 d="M7.991,4.001 C7.991,5.947 6.596,7.573 4.756,7.929 L4.756,9.008 L1.828,7.327 L4.756,5.646 L4.756,6.633 C5.896,6.303 6.732,5.248 6.732,4.001 C6.732,2.490 5.505,1.260 3.996,1.260 C2.487,1.260 1.259,2.490 1.259,4.001 C1.259,4.408 1.346,4.799 1.517,5.164 L0.377,5.700 C0.127,5.166 -0.000,4.595 -0.000,4.001 C-0.000,1.795 1.792,-0.000 3.996,-0.000 C6.199,-0.000 7.991,1.795 7.991,4.001 Z"/>
</svg>