<svg 
 xmlns="http://www.w3.org/2000/svg"
 xmlns:xlink="http://www.w3.org/1999/xlink"
 width="24px" height="15px">
<path fill-rule="evenodd"  fill="rgb(91, 157, 233)"
 d="M19.750,14.750 L4.250,14.750 C2.041,14.750 0.250,12.959 0.250,10.750 L0.250,4.250 C0.250,2.041 2.041,0.250 4.250,0.250 L19.750,0.250 C21.959,0.250 23.750,2.041 23.750,4.250 L23.750,10.750 C23.750,12.959 21.959,14.750 19.750,14.750 ZM23.000,6.000 C23.000,3.791 22.209,1.000 20.000,1.000 L5.000,1.000 C2.791,1.000 1.000,2.791 1.000,5.000 L1.000,10.000 C1.000,12.209 2.791,14.000 5.000,14.000 L19.000,14.000 C21.209,14.000 23.000,12.209 23.000,10.000 L23.000,6.000 ZM6.166,5.068 L10.666,7.666 L6.166,10.264 L6.166,5.068 Z"/>
</svg>