<svg xmlns="http://www.w3.org/2000/svg" width="19" height="14">
    <path fill="#486E7C" fill-rule="evenodd" d="M14.684 14H4.315C1.66 14 0 12.383 0 9.781V4.213C0 1.611 1.66 0 4.315 0h10.369C17.339 0 19 1.611 19 4.213v5.568C19 12.383 17.339 14 14.684 14zM4.315 1C2.518 1 1 2.452 1 4.213v5.568C1 11.543 2.518 13 4.315 13h10.369C16.482 13 18 11.543 18 9.781V4.213C18 2.452 16.482 1 14.684 1H4.315zm3.229 9.56c-.547 0-.544-.46-.544-.996V4.439c0-.535-.003-.971.544-.971.155 0 .309.036.448.106l4.03 2.639A.963.963 0 0 1 12 7.956l-4.03 2.508a.986.986 0 0 1-.426.096zM8 5.34V9l3-1.936L8 5.34z"/>
</svg>
