<svg xmlns="http://www.w3.org/2000/svg" width="18" height="16">
    <path fill="#FFF" fill-rule="evenodd" d="M.49.87v.283c.657.098 1.422.566 2.295 1.407l.371.351c.137.13.234.225.293.283.065.065.117.111.156.137v9.521c.013 1.296-.7 2.002-2.139 2.119v.284h5.137v-.284c-.781-.058-1.317-.327-1.606-.805-.29-.479-.435-1.056-.435-1.733V4.337L15.09 15.411h.361V3.555c0-.429.039-.804.117-1.123a1.62 1.62 0 0 1 .518-.835c.267-.237.673-.385 1.22-.444V.87h-4.961v.283c.723.104 1.26.314 1.612.63.351.316.527.907.527 1.772v6.583L5.705.87H.49z"/>
</svg>
