<svg xmlns="http://www.w3.org/2000/svg" width="17" height="17">
    <path fill="#486E7C" fill-rule="evenodd" d="M15.367 12.92l-.254-.037v-.92c0-.832-.711-1.976-1.532-1.976H9.036l-.195-2.44.207-.023c1.897-.265 3.346-1.872 3.346-3.737 0-2.082-1.731-3.776-3.871-3.776-2.141 0-3.877 1.694-3.877 3.776 0 1.865 1.388 3.472 3.285 3.737l.126.023-.068 2.44h-4.36c-.804 0-1.624 1.193-1.624 2.062l-.219.834-.171.037c-.942.237-1.613 1.063-1.613 2.01 0 1.144.952 2.075 2.129 2.075s2.131-.931 2.131-2.075c0-.947-.631-1.773-1.573-2.01l-.119-.037.539-.855c0-.446-.321-.701.108-.701l4.787-.335.053 1.891-.102.037a2.065 2.065 0 0 0-1.579 2.01c0 1.144.968 2.075 2.145 2.075s2.139-.931 2.139-2.075c0-.948-.693-1.774-1.636-2.01l-.183-.037-.016-1.891 4.956.345c.483 0-.055.245-.055.691l.603.855-.035.037c-.942.237-1.545 1.063-1.545 2.01 0 1.144.986 2.075 2.163 2.075a2.073 2.073 0 0 0 2.094-2.075c0-.947-.697-1.773-1.639-2.01zM3.354 14.881c0 .632-.527 1.144-1.176 1.144-.65 0-1.176-.512-1.176-1.144 0-.631.526-1.144 1.176-1.144.649 0 1.176.513 1.176 1.144zm6.271 0c0 .632-.526 1.144-1.176 1.144-.649 0-1.175-.512-1.175-1.144 0-.631.526-1.144 1.175-1.144.65 0 1.176.513 1.176 1.144zM8.532 6.81c-1.714 0-3.108-1.356-3.108-3.023S6.818.763 8.532.763c1.714 0 3.109 1.357 3.109 3.024S10.246 6.81 8.532 6.81zm6.532 9.215c-.65 0-1.176-.512-1.176-1.144 0-.631.526-1.144 1.176-1.144.649 0 1.176.513 1.176 1.144 0 .632-.527 1.144-1.176 1.144z"/>
</svg>
