<svg xmlns="http://www.w3.org/2000/svg" width="17" height="17">
    <path fill="#3E80A9" fill-rule="evenodd" d="M15.361 12.913l-.253-.037v-.92c0-.833-.711-1.977-1.532-1.977H9.032l-.195-2.441.207-.023c1.896-.265 3.345-1.872 3.345-3.738C12.389 1.694 10.658 0 8.519 0 6.378 0 4.642 1.694 4.642 3.777c0 1.866 1.389 3.473 3.285 3.738l.126.023-.068 2.441H3.626c-.804 0-1.624 1.194-1.624 2.063l-.219.834-.171.037C.67 13.15 0 13.977 0 14.923 0 16.068.952 17 2.128 17c1.177 0 2.13-.932 2.13-2.077 0-.946-.63-1.773-1.572-2.01l-.119-.037.539-.856c0-.445-.321-.701.108-.701L8 10.984l.053 1.892-.102.037a2.066 2.066 0 0 0-1.579 2.01c0 1.145.969 2.077 2.145 2.077 1.177 0 2.139-.932 2.139-2.077 0-.947-.694-1.774-1.636-2.01l-.183-.037-.016-1.892 4.954.345c.484 0-.055.246-.055.691l.604.856-.035.037c-.942.237-1.545 1.064-1.545 2.01 0 1.145.986 2.077 2.162 2.077A2.074 2.074 0 0 0 17 14.923c0-.946-.697-1.773-1.639-2.01z"/>
</svg>
