<svg xmlns="http://www.w3.org/2000/svg" width="24" height="13">
    <path fill="#486E7C" fill-rule="evenodd" d="M22.827 12l-2.96-2 .987-3V4l-.987-1H17.894l-.986 1v3h-.987V4l.987-1s.179-.847 2.062-.847c1.884 0 1.884.847 1.884.847l.986 1v3l-.986 1.979L23.813 11v2h-.986v-1zm-8.879-5l3.946 3v3h-.986v-2l-3.946-3V6l.986-1V1.941S12.962 1 11.98.96c-.982-.039-1.977.981-1.977.981V5l.986 1v2l-3.946 3v2h-.986v-3l3.946-3V6l-.987-1V1.936S10.003 0 11.975 0c1.973 0 2.96 1.936 2.96 1.936V5l-.987 1v1zM7.043 4l-.986-1H4.084l-.987 1v3l.987 3-2.96 2v1H.138v-2l2.959-2-.986-2V4l.986-1s0-.847 1.884-.847c1.883 0 2.062.847 2.062.847l.987 1v3h-.987V4z"/>
</svg>
