<svg xmlns="http://www.w3.org/2000/svg" width="24" height="13">
    <path fill="#486E7C" fill-rule="evenodd" d="M23.131 13h-2.997v-2l-.999-2-.999-1-.999-1V4l.999-1h-.223l-.986 1v3h-.985V4l.985-1s.179-.847 2.06-.847c1.882 0 1.882.847 1.882.847l.985 1v3l-.609 1.224.767 1.536L23.825 11v2h-.694zM14.14 6h-.169v1l3.942 3v3H7.147v-2.057L7.073 11v2h-.986v-3l3.942-3V6l-.986-1V1.936S10.029 0 12 0c1.971 0 2.956 1.936 2.956 1.936V5l-.816.828V6zm-4.111-4.059V5l.985 1v2l-.247.188.376-.188V6l-.999-1V2l.655-.656c-.45.276-.77.597-.77.597zM11.609 1h.666c-.09-.018-.18-.036-.27-.04a1.6 1.6 0 0 0-.396.04zm-6.46 7L4.018 9.699l.098.301-.544.368-.421.632v2H1.238l-.023-1.037L1.16 12v1H.174v-2l2.957-2-.986-2V4l.986-1s0-.847 1.881-.847c1.882 0 2.061.847 2.061.847l.985 1v3h-.911L5.149 8zM3.131 4v3l.022.067L3.151 7V4l.965-1-.985 1z"/>
</svg>
