<svg xmlns="http://www.w3.org/2000/svg" width="18" height="15">
    <path fill="#76A9EA" fill-rule="evenodd" d="M17.336 1.655a6.845 6.845 0 0 1-1.184.4c.448-.426.784-.959.975-1.554a.194.194 0 0 0-.284-.226 6.815 6.815 0 0 1-1.811.749.479.479 0 0 1-.43-.107 3.705 3.705 0 0 0-2.452-.926c-.391 0-.786.061-1.173.181A3.593 3.593 0 0 0 8.558 2.76a3.954 3.954 0 0 0-.088 1.365.133.133 0 0 1-.033.104.14.14 0 0 1-.102.046h-.014A9.712 9.712 0 0 1 1.645.705a.194.194 0 0 0-.318.025 3.71 3.71 0 0 0-.501 1.864c0 1.005.403 1.952 1.104 2.642a3.29 3.29 0 0 1-.845-.327.194.194 0 0 0-.288.167 3.714 3.714 0 0 0 2.164 3.42l-.079.001c-.207 0-.417-.02-.624-.06a.194.194 0 0 0-.221.25 3.716 3.716 0 0 0 2.933 2.527 6.84 6.84 0 0 1-3.829 1.163H.713a.285.285 0 0 0-.278.214.293.293 0 0 0 .141.324 10.16 10.16 0 0 0 5.109 1.379c1.57 0 3.039-.312 4.366-.927a9.642 9.642 0 0 0 3.195-2.396c.842-.955 1.5-2.058 1.956-3.278a10.36 10.36 0 0 0 .665-3.588v-.056c0-.191.086-.37.236-.491a7.339 7.339 0 0 0 1.473-1.618.194.194 0 0 0-.24-.285z"/>
</svg>
