<svg xmlns="http://www.w3.org/2000/svg" width="13" height="11">
    <path fill="#FFF" fill-rule="evenodd" d="M12.439 2.027c-.27.12-.551.215-.84.284a2.62 2.62 0 0 0 .692-1.102.138.138 0 0 0-.201-.16 4.839 4.839 0 0 1-1.284.531.343.343 0 0 1-.305-.076A2.626 2.626 0 0 0 8.764.848c-.277 0-.557.043-.832.128A2.548 2.548 0 0 0 6.218 2.81a2.792 2.792 0 0 0-.063.968.095.095 0 0 1-.023.074.1.1 0 0 1-.073.032H6.05a6.882 6.882 0 0 1-4.732-2.53.137.137 0 0 0-.225.018 2.631 2.631 0 0 0 .427 3.194 2.385 2.385 0 0 1-.599-.232.137.137 0 0 0-.204.118 2.634 2.634 0 0 0 1.534 2.424h-.056c-.147 0-.296-.014-.442-.042a.138.138 0 0 0-.157.177 2.633 2.633 0 0 0 2.079 1.791c-.804.54-1.74.824-2.714.824H.657a.201.201 0 0 0-.196.152.208.208 0 0 0 .099.23 7.207 7.207 0 0 0 3.621.977c1.113 0 2.155-.221 3.095-.657A6.822 6.822 0 0 0 9.54 8.63a7.428 7.428 0 0 0 1.386-2.323 7.33 7.33 0 0 0 .472-2.543v-.04c0-.135.061-.262.167-.348a5.203 5.203 0 0 0 1.044-1.147c.076-.114-.044-.258-.17-.202z"/>
</svg>
