<svg xmlns="http://www.w3.org/2000/svg" width="8" height="7">
    <path fill="#BDBDBD" fill-rule="evenodd" d="M7.162 0H.985a.575.575 0 0 0-.562.584v4.081c0 .321.253.583.562.583h2.948l2.105 1.749V5.248h1.124a.574.574 0 0 0 .561-.583V.583A.575.575 0 0 0 7.162 0zM2.141 3.354a.6.6 0 0 1-.588-.611.6.6 0 0 1 .588-.61.6.6 0 0 1 .588.61.6.6 0 0 1-.588.611zm1.932 0a.6.6 0 0 1-.588-.611.6.6 0 0 1 .588-.61.6.6 0 0 1 .588.61.6.6 0 0 1-.588.611zm1.931 0a.6.6 0 0 1-.588-.611.6.6 0 0 1 .588-.61.6.6 0 0 1 .588.61.6.6 0 0 1-.588.611z"/>
</svg>
