<svg xmlns="http://www.w3.org/2000/svg" width="11" height="13" viewBox="0 0 11 13">
  <metadata><?xpacket begin="﻿" id="W5M0MpCehiHzreSzNTczkc9d"?>
<x:xmpmeta xmlns:x="adobe:ns:meta/" x:xmptk="Adobe XMP Core 5.6-c138 79.159824, 2016/09/14-01:09:01        ">
   <rdf:RDF xmlns:rdf="http://www.w3.org/1999/02/22-rdf-syntax-ns#">
      <rdf:Description rdf:about=""/>
   </rdf:RDF>
</x:xmpmeta>
                                                                                                    
                                                                                                    
                                                                                                    
                                                                                                    
                                                                                                    
                                                                                                    
                                                                                                    
                                                                                                    
                                                                                                    
                                                                                                    
                                                                                                    
                                                                                                    
                                                                                                    
                                                                                                    
                                                                                                    
                                                                                                    
                                                                                                    
                                                                                                    
                                                                                                    
                                                                                                    
                           
<?xpacket end="w"?></metadata>
<defs>
    <style>
      .cls-1 {
        fill: #a1a6ac;
        fill-rule: evenodd;
      }
    </style>
  </defs>
  <path class="cls-1" d="M7.637,1.087l-0.047,0a0.378,0.378,0,0,0-.241.067,0.138,0.138,0,0,1-.112.016,4.173,4.173,0,0,0-.419-0.092,0.346,0.346,0,0,1-.15-0.041,0.5,0.5,0,0,0-.2-0.066A0.258,0.258,0,0,1,6.31.889,0.139,0.139,0,0,0,6.243.85a0.457,0.457,0,0,0-.324.03,0.214,0.214,0,0,0-.1.227c0.007,0.027.017,0.052,0.023,0.079a0.1,0.1,0,0,1-.02.078,0.376,0.376,0,0,1-.039.047,0.1,0.1,0,0,1-.126.02C5.634,1.316,5.613,1.3,5.591,1.283a1.125,1.125,0,0,0-.1-0.068,0.5,0.5,0,0,0-.259-0.08,0.1,0.1,0,0,1-.091-0.067C5.133,1.042,5.125,1.016,5.116.99A0.132,0.132,0,0,0,5.037.9,0.694,0.694,0,0,0,4.694.84,0.355,0.355,0,0,1,4.508.79,0.041,0.041,0,0,1,4.491.78a0.33,0.33,0,0,0-.163-0.1A0.069,0.069,0,0,1,4.307.587C4.334,0.556,4.364.529,4.389,0.5A0.149,0.149,0,0,0,4.409.341,0.828,0.828,0,0,0,4.355.255a0.055,0.055,0,0,1,0-.039C4.364,0.177,4.381.14,4.4,0.1A0.028,0.028,0,0,0,4.363.065,0.07,0.07,0,0,1,4.276.044,0.117,0.117,0,0,0,4.134.009c-0.05.014-.1,0.037-0.148,0.051a0.541,0.541,0,0,1-.1.009A0.581,0.581,0,0,0,3.74.059a0.209,0.209,0,0,0-.149.023,0.416,0.416,0,0,1-.116,0,0.6,0.6,0,0,0-.289.022,0.531,0.531,0,0,1-.154.018A0.283,0.283,0,0,0,2.9.162C2.834,0.2,2.764.24,2.693,0.273a0.463,0.463,0,0,0-.15.093A0.156,0.156,0,0,1,2.361.4,0.26,0.26,0,0,0,2.21.376a0.685,0.685,0,0,1-.155,0A0.174,0.174,0,0,1,1.986.345,0.17,0.17,0,0,1,1.96.315c-0.051-.056-0.1-0.042-0.129.034a1,1,0,0,0-.036.118,0.286,0.286,0,0,1-.154.2c-0.068.04-.135,0.084-0.2,0.13a0.212,0.212,0,0,0-.118.178,0.169,0.169,0,0,1-.044.091,0.231,0.231,0,0,0-.041.157c0,0.041,0,.083.006,0.125a0.166,0.166,0,0,1-.028.1c-0.026.04-.05,0.081-0.078,0.12a0.278,0.278,0,0,1-.056.056c-0.031.024-.067,0.042-0.1,0.068a0.264,0.264,0,0,1-.141.066,0.157,0.157,0,0,0-.109.08,0.423,0.423,0,0,0-.043.07,0.24,0.24,0,0,1-.1.119,0.315,0.315,0,0,0-.109.141,1.01,1.01,0,0,1-.17.278,0.222,0.222,0,0,0-.043.069,1.807,1.807,0,0,1-.158.31,0.3,0.3,0,0,0-.04.138,0.136,0.136,0,0,0,.057.143,0.108,0.108,0,0,1,.044.127,0.244,0.244,0,0,0,0,.141,0.511,0.511,0,0,1-.014.366,0.161,0.161,0,0,0-.011.04,0.611,0.611,0,0,1-.137.338,0.043,0.043,0,0,0,0,.038c0.02,0.036.042,0.07,0.064,0.1a0.12,0.12,0,0,1,.018.117A0.225,0.225,0,0,0,.1,4.557a0.2,0.2,0,0,0,.1.1A0.847,0.847,0,0,0,.308,4.7s0,0,0,0l0.006-.009,0,0.013h0a0.114,0.114,0,0,0,.051.1,0.147,0.147,0,0,1,.069.1,0.089,0.089,0,0,0,.051.06,0.4,0.4,0,0,1,.137.116,0.136,0.136,0,0,1,.036.071,0.559,0.559,0,0,0,.082.232,0.332,0.332,0,0,0,.17.165,0.562,0.562,0,0,1,.148.1,3.1,3.1,0,0,0,.328.262,0.74,0.74,0,0,0,.178.082,0.09,0.09,0,0,0,.057,0c0.042-.017.083-0.039,0.124-0.06a0.457,0.457,0,0,1,.226-0.055A0.754,0.754,0,0,0,2.12,5.848a0.348,0.348,0,0,1,.225.031A0.355,0.355,0,0,0,2.4,5.9a0.167,0.167,0,0,0,.115,0c0.042-.017.087-0.029,0.129-0.046A0.444,0.444,0,0,0,2.75,5.8,0.507,0.507,0,0,1,2.909,5.72a0.892,0.892,0,0,1,.167-0.055,0.862,0.862,0,0,1,.25-0.036,0.28,0.28,0,0,1,.057.01,0.292,0.292,0,0,1,.167.165c0.015,0.039.027,0.079,0.044,0.116a0.168,0.168,0,0,0,.159.1,0.3,0.3,0,0,0,.058,0C3.894,6,3.978,5.989,4.06,5.968a0.086,0.086,0,0,1,.116.039,0.176,0.176,0,0,0,.055.057,0.228,0.228,0,0,1,.08.2,0.454,0.454,0,0,1-.026.143c-0.012.039-.041,0.073-0.049,0.113s0.007,0.1,0,.142a0.444,0.444,0,0,1-.078.21,0.075,0.075,0,0,0-.009.038,0.045,0.045,0,0,0,0,.02,0.915,0.915,0,0,0,.284.44C4.462,7.4,4.49,7.428,4.52,7.455a0.482,0.482,0,0,1,.113.167,0.658,0.658,0,0,1,.032.1,0.907,0.907,0,0,0,.093.226,0.963,0.963,0,0,1,.072.277,0.214,0.214,0,0,1-.014.06,0.282,0.282,0,0,0,0,.082,0.608,0.608,0,0,0,.055.178,0.317,0.317,0,0,1,.032.076,0.292,0.292,0,0,1-.067.306,1.2,1.2,0,0,0-.1.124,0.265,0.265,0,0,0-.067.148,0.8,0.8,0,0,1-.073.258,0.334,0.334,0,0,0-.03.141c0,0.083,0,.167,0,0.251a0.164,0.164,0,0,0,.04.114,0.737,0.737,0,0,1,.159.284,2.559,2.559,0,0,0,.137.322,0.514,0.514,0,0,1,.063.236A0.894,0.894,0,0,0,5,11.069a0.347,0.347,0,0,1,.02.1,1.437,1.437,0,0,0,.044.287,0.683,0.683,0,0,0,.126.279c0.032,0.044.061,0.09,0.095,0.132a0.341,0.341,0,0,1,.064.149,1.234,1.234,0,0,0,.1.314,0.51,0.51,0,0,1,.031.077,0.168,0.168,0,0,1-.019.176,0.064,0.064,0,0,0,0,.077,0.366,0.366,0,0,1,.046.178,0.054,0.054,0,0,0,.017.036C5.592,12.918,5.66,12.958,5.729,13a0.067,0.067,0,0,0,.056,0,0.335,0.335,0,0,1,.2-0.058,0.2,0.2,0,0,0,.094-0.023,0.4,0.4,0,0,1,.171-0.034,0.4,0.4,0,0,1,.191.009,0.069,0.069,0,0,0,.057,0,0.386,0.386,0,0,0,.18-0.062,0.073,0.073,0,0,1,.053-0.02,0.452,0.452,0,0,0,.251-0.1,2.517,2.517,0,0,0,.295-0.273,0.976,0.976,0,0,0,.166-0.2c0.045-.077.1-0.144,0.147-0.22A0.312,0.312,0,0,1,7.686,11.9a0.389,0.389,0,0,0,.153-0.234c0.019-.066.035-0.134,0.051-0.2a0.136,0.136,0,0,0-.011-0.1,0.084,0.084,0,0,1,.028-0.11,0.349,0.349,0,0,1,.151-0.091,0.505,0.505,0,0,0,.181-0.075,0.169,0.169,0,0,0,.083-0.134,1.2,1.2,0,0,1,.027-0.206,0.234,0.234,0,0,0-.005-0.1c-0.029-.107-0.055-0.214-0.083-0.321a0.094,0.094,0,0,1,.021-0.1C8.424,10.11,8.56,9.982,8.7,9.858a0.483,0.483,0,0,1,.136-0.079,1.25,1.25,0,0,0,.155-0.087,0.558,0.558,0,0,0,.235-0.3,0.33,0.33,0,0,0,.025-0.181,1.131,1.131,0,0,1,0-.188,0.753,0.753,0,0,0,0-.145,0.6,0.6,0,0,1,.011-0.247,0.1,0.1,0,0,0-.042-0.109,0.294,0.294,0,0,1-.114-0.186,2.272,2.272,0,0,1-.032-0.287,0.113,0.113,0,0,1,.013-0.059,0.089,0.089,0,0,0-.016-0.113,0.151,0.151,0,0,1-.043-0.2A0.566,0.566,0,0,1,9.122,7.5a0.9,0.9,0,0,0,.108-0.22,0.206,0.206,0,0,1,.077-0.091,0.493,0.493,0,0,0,.159-0.153A2.944,2.944,0,0,1,9.852,6.6a0.869,0.869,0,0,1,.262-0.212,0.135,0.135,0,0,0,.032-0.023A1.9,1.9,0,0,0,10.709,5.6a1.379,1.379,0,0,1,.163-0.33,0.686,0.686,0,0,0,.1-0.227A1.54,1.54,0,0,0,11,4.713a0.07,0.07,0,0,0-.075-0.051,0.073,0.073,0,0,0-.018.008,0.485,0.485,0,0,1-.253.1,1.719,1.719,0,0,0-.38.08,0.121,0.121,0,0,1-.058.007,0.341,0.341,0,0,0-.205.054,0.327,0.327,0,0,1-.054.023,0.088,0.088,0,0,1-.075-0.012,0.251,0.251,0,0,1-.045-0.04L9.7,4.731a0.042,0.042,0,0,1,0-.053c0.036-.078.036-0.1-0.018-0.144a0.483,0.483,0,0,1-.095-0.1,2.151,2.151,0,0,0-.2-0.228,0.465,0.465,0,0,0-.146-0.1,0.34,0.34,0,0,1-.2-0.238c-0.012-.061-0.033-0.12-0.05-0.18a0.307,0.307,0,0,0-.1-0.15l-0.123-.1a0.142,0.142,0,0,1-.053-0.108,2.572,2.572,0,0,0-.058-0.348A0.35,0.35,0,0,0,8.485,2.73,0.365,0.365,0,0,1,8.433,2.7,0.129,0.129,0,0,1,8.4,2.652a0.145,0.145,0,0,1-.01-0.061A0.263,0.263,0,0,0,8.335,2.4a1,1,0,0,1-.051-0.089A1.384,1.384,0,0,1,8.092,1.9a0.394,0.394,0,0,0-.034-0.074,0.028,0.028,0,0,1,.026-0.042A0.109,0.109,0,0,0,8.15,1.779,4.018,4.018,0,0,0,7.637,1.087ZM2.646,5.235l0.005-.005a0.089,0.089,0,0,0,.015.022ZM2.691,5.271L2.672,5.256a0.042,0.042,0,0,0,.023.01V5.279Zm0.1,0.15A0.037,0.037,0,0,1,2.787,5.4c0-.015.014-0.02,0.026-0.012a0.02,0.02,0,0,1,.005.016C2.815,5.424,2.805,5.429,2.793,5.421ZM6.716,12.2l0-.009L6.73,12.2ZM7.254,9.651c-0.01-.009-0.006-0.015.01-0.014l0,0.011A0.029,0.029,0,0,1,7.254,9.651ZM8.743,4.619a0.191,0.191,0,0,1,.029.01c0,0.015-.005.026-0.017,0.023A0.069,0.069,0,0,1,8.732,4.63,0.029,0.029,0,0,1,8.743,4.619ZM8.269,8.583A0.667,0.667,0,0,0,8.3,8.7a0.223,0.223,0,0,1,0,.161,0.238,0.238,0,0,0-.008.16C8.3,9.062,8.31,9.1,8.317,9.144a0.047,0.047,0,0,1-.007.037c-0.012.008-.021,0-0.029-0.019A0.72,0.72,0,0,1,8.206,8.93a0.164,0.164,0,0,1,0-.081A0.414,0.414,0,0,0,8.22,8.626,0.846,0.846,0,0,1,8.213,8.5,0.05,0.05,0,0,1,8.22,8.485a0.068,0.068,0,0,1,.03.019A0.633,0.633,0,0,1,8.269,8.583ZM8.081,6.5L8.094,6.506l-0.014,0V6.5ZM7.967,1.657a0.038,0.038,0,0,1,.015.01,0.033,0.033,0,0,1,0,.016,0.065,0.065,0,0,1-.015-0.012A0.029,0.029,0,0,1,7.967,1.657Zm-0.08-.105a0.037,0.037,0,0,0,0,.008,0.012,0.012,0,0,1,.008,0c0,0.01,0,.007-0.008,0l-0.009,0ZM7.865,7.1a0.923,0.923,0,0,0,.023-0.246A0.129,0.129,0,0,1,7.9,6.791,0.075,0.075,0,0,1,7.937,6.75a1.657,1.657,0,0,1,.19-0.034,0.117,0.117,0,0,1,.112.067,0.05,0.05,0,0,1,.006.037,0.638,0.638,0,0,1-.12.21,0.1,0.1,0,0,0-.027.075,0.053,0.053,0,0,1-.007.037,0.147,0.147,0,0,1-.05.027A0.1,0.1,0,0,1,8,7.17L7.964,7.163a0.463,0.463,0,0,1-.077,0,0.045,0.045,0,0,1-.021-0.029A0.079,0.079,0,0,1,7.865,7.1Zm-0.422-.02-0.005.014L7.432,7.076h0.01ZM7.357,8.318a0.138,0.138,0,0,1-.03.017A0.03,0.03,0,0,1,7.32,8.32a0.035,0.035,0,0,1,.037-0.034,0.03,0.03,0,0,1,.008.015A0.042,0.042,0,0,1,7.357,8.318ZM7.493,8.661l0,0.01c0,0.007,0,.014,0,0.021l-0.009,0,0.01-.019s0-.008,0-0.012l0.011,0ZM7.725,6.434H7.738l-0.01.006,0,0.009V6.434ZM7.688,8.213a0.02,0.02,0,0,1-.017,0A0.084,0.084,0,0,1,7.656,8.12l0,0V8.108a0.57,0.57,0,0,1-.057-0.095,0.913,0.913,0,0,1-.082-0.087,0.2,0.2,0,0,1-.046-0.089A2.363,2.363,0,0,1,7.423,7.47a0.032,0.032,0,0,1,.022-0.022,0.04,0.04,0,0,1,.03.021c0.017,0.08.032,0.161,0.048,0.242a0.17,0.17,0,0,0,.067.2,0.151,0.151,0,0,1,.05.108L7.651,8.108,7.657,8.113V8.12A0.1,0.1,0,0,1,7.7,8.2,0.018,0.018,0,0,1,7.688,8.213Z"/>
</svg>
