<?xml version="1.0" encoding="utf-8"?>
<!-- Generator: Adobe Illustrator 17.0.0, SVG Export Plug-In . SVG Version: 6.00 Build 0)  -->
<!DOCTYPE svg PUBLIC "-//W3C//DTD SVG 1.1//EN" "http://www.w3.org/Graphics/SVG/1.1/DTD/svg11.dtd">
<svg version="1.1" id="asia_1_" xmlns="http://www.w3.org/2000/svg" xmlns:xlink="http://www.w3.org/1999/xlink" x="0px" y="0px"
	 width="15px" height="11px" viewBox="0 0 15 11" enable-background="new 0 0 15 11" xml:space="preserve">
<g id="asia">
	<g>
		<path fill-rule="evenodd" clip-rule="evenodd" fill="#A1A6AC" d="M8.399,8.052c-0.001,0-0.001,0.002-0.002,0.002
			c0,0,0.001,0.001,0.001,0.001C8.397,8.055,8.4,8.053,8.399,8.052z M8.336,8.089C8.278,8.057,8.371,8.109,8.336,8.089L8.336,8.089z
			 M8.574,6.353c0.001,0,0.007-0.006,0.009-0.007c-0.004-0.001-0.006-0.002-0.01-0.003c0,0.001,0.001,0.002,0.001,0.002
			C8.573,6.346,8.571,6.355,8.574,6.353z M4.747,8.111C4.726,8.11,4.686,8.102,4.685,8.091c-0.01,0.036-0.007,0.146-0.036,0.217
			C4.652,8.305,4.65,8.323,4.651,8.321c-0.002,0-0.003-0.001-0.005-0.002C4.628,8.539,4.759,8.74,4.941,8.455
			C4.905,8.348,4.898,8.297,4.835,8.246C4.82,8.194,4.797,8.161,4.747,8.111z M4.646,8.269c-0.001,0.005,0.001,0.009,0,0.013
			c0,0,0,0,0,0C4.646,8.284,4.645,8.274,4.646,8.269z M4.694,8.059c-0.007,0-0.026,0.008-0.03,0.007
			c0.002,0,0.005,0.011,0.005,0.011C4.679,8.074,4.712,8.09,4.74,8.104C4.726,8.09,4.72,8.081,4.699,8.063
			C4.698,8.062,4.695,8.06,4.694,8.059z M4.696,8.06c0.002,0.001,0.002,0.002,0.003,0.003c0.011,0.007,0.038,0.027,0.04,0.03
			C4.731,8.084,4.707,8.061,4.696,8.06z M4.74,8.104c0.003,0.002,0.005,0.005,0.007,0.007c0.005,0,0.015,0.002,0.016,0.002
			C4.755,8.107,4.749,8.108,4.74,8.104z M4.64,8.317c0.002,0.002,0.004,0.002,0.006,0.002c0.001-0.013-0.002-0.024,0-0.037
			C4.642,8.294,4.644,8.308,4.64,8.317z M11.118,4.462c0,0,0.013,0.016,0.013,0.016c0.047,0.002,0.075-0.039,0.096-0.046
			C11.198,4.443,11.155,4.411,11.118,4.462z M0.913,3.318C0.909,3.304,0.907,3.294,0.904,3.281C0.902,3.28,0.897,3.28,0.895,3.279
			C0.898,3.284,0.905,3.31,0.913,3.318z M0.917,3.325c-0.002,0-0.003-0.005-0.004-0.006c0,0.001,0,0.002,0.001,0.004
			C0.915,3.321,0.915,3.319,0.917,3.325z M0.932,3.431c-0.008,0.006-0.004-0.014-0.001-0.03c0,0,0,0,0,0
			C0.939,3.4,0.935,3.429,0.932,3.431z M10.375,6.283c0.059-0.152,0.129-0.349,0.161-0.478c-0.158-0.046-0.264,0.168-0.266,0.302
			c0,0.029,0.054,0.135,0.089,0.171C10.364,6.269,10.369,6.277,10.375,6.283z M11.048,8.049c-0.004-0.019-0.005-0.068-0.007-0.07
			c-0.003,0.004-0.003,0.002-0.006,0C11.02,8.022,11.041,8.014,11.048,8.049z M10.556,7.655C10.512,7.779,10.543,7.691,10.556,7.655
			L10.556,7.655z M10.717,7.628C10.721,7.632,10.631,7.546,10.717,7.628L10.717,7.628z M10.775,7.656
			C10.787,7.743,10.771,7.629,10.775,7.656L10.775,7.656z M10.7,7.804c0.005,0.003-0.123-0.039-0.168-0.048
			c0,0.001-0.001,0.001-0.002,0.001c0.001,0.002-0.005,0.005-0.007,0.005c0.001,0.002-0.002,0.018-0.006,0.018
			c0.051,0.053,0.004,0.09,0.017,0.171C10.604,7.923,10.676,7.904,10.7,7.804z M10.858,7.812c0.032,0.11,0.103,0.174,0.104,0.175
			c0.003-0.06,0.018-0.132-0.1-0.177C10.862,7.81,10.859,7.812,10.858,7.812z M10.156,7.898c-0.001,0.006-0.003-0.004-0.005-0.002
			c-0.009,0.128-0.136,0.13-0.239,0.294c-0.015,0.024-0.029,0.06-0.046,0.08c0.149-0.112,0.24-0.211,0.346-0.317
			c-0.012-0.041-0.026-0.053-0.017-0.113c-0.001,0.007-0.007-0.011-0.007-0.012c0,0-0.007,0.016-0.009,0.012
			c0.001,0.054-0.002,0.032,0.003,0.073c-0.005,0.004,0.001,0.01,0.001,0.014c-0.002,0-0.008-0.004-0.008-0.004
			c-0.006,0.003-0.018-0.023-0.019-0.022c0,0,0.001-0.005,0.001-0.003C10.158,7.901,10.155,7.9,10.156,7.898z M10.799,7.653
			c0.002,0.001,0.004,0.002,0.005,0.004c-0.001,0.006,0.02,0.009,0.021,0.011c0.001-0.001,0.002-0.002,0.004-0.002
			c-0.004-0.02,0.009-0.054,0.012-0.072c-0.004-0.006-0.035-0.003-0.049-0.002c0.008,0.005,0.021,0.016,0.028,0.02
			C10.8,7.63,10.783,7.616,10.799,7.653z M11.062,7.886c0-0.126-0.042-0.211-0.189-0.221c0.026,0.111,0.079,0.179,0.181,0.208
			C11.054,7.879,11.056,7.885,11.062,7.886z M10.793,7.591c-0.003-0.002-0.009-0.007-0.012-0.009c0,0.004,0.001,0.005,0,0.01
			C10.781,7.592,10.789,7.591,10.793,7.591z M10.232,7.11c0.008,0.129,0.035,0.203,0.093,0.284c0.001-0.002,0.01-0.005,0.012-0.003
			c0.001-0.008-0.007-0.055-0.002-0.06c0,0.004,0.006-0.007,0.007-0.007c-0.003,0.022,0,0.008,0.003,0.004
			c-0.003,0.032,0.019,0.096,0.006,0.16c0.028,0.02,0.077,0.014,0.157-0.025c0.051,0.03,0.085,0.06,0.112,0.112
			c0,0.001,0.009-0.003,0.009-0.004c0-0.001,0.005-0.005,0.005-0.004c-0.013-0.051-0.014-0.057-0.038-0.106
			c0.002,0.002,0.02,0.008,0.017,0c0.069,0.062,0.12,0.091,0.168,0.12c0.001-0.027,0-0.031-0.03-0.069
			c0.002-0.002,0.006-0.017,0.006-0.017c0.005-0.003,0.055,0.002,0.055,0.001c-0.047-0.016-0.073-0.036-0.088-0.056
			c0.001,0,0.001,0.009-0.004,0.004c0.007,0.003-0.006,0.001-0.007,0.001c0.004,0.002,0,0.008-0.002,0.007
			c0.007,0.005,0.021,0.017,0.002,0.041c0,0-0.019,0.001-0.021,0.003c-0.081-0.094-0.063-0.065-0.12-0.077
			c-0.005,0.002-0.007,0.012-0.012,0.012c0.003,0,0.024,0.024,0.018,0.029C10.55,7.444,10.573,7.465,10.57,7.47
			c-0.009-0.008-0.007-0.017-0.014-0.025c0.004,0.002,0.004,0.002,0,0c-0.103-0.105-0.116-0.223,0.001-0.319
			c-0.003,0.004-0.015,0.033-0.019,0.034c0.066-0.12,0.071-0.218,0.033-0.367c-0.236-0.074-0.3,0.132-0.261,0.363
			c-0.003,0-0.009,0.001-0.009,0.006c-0.03-0.003-0.043-0.042-0.062-0.053C10.238,7.11,10.233,7.111,10.232,7.11z M10.698,7.756
			c0.081,0.01,0.035-0.013,0.128,0.029c-0.004-0.025-0.014-0.034-0.002-0.033c-0.029-0.038-0.054-0.043-0.068-0.07
			C10.735,7.7,10.699,7.656,10.698,7.756z M10.471,7.581c-0.066-0.037-0.085-0.073-0.169-0.039c0.013,0.026,0.098,0.15,0.111,0.168
			C10.48,7.697,10.46,7.656,10.471,7.581z M10.24,7.709c0.013,0.042,0.041,0.022,0.065,0.033c-0.019-0.009-0.02-0.025-0.064-0.043
			C10.242,7.706,10.249,7.709,10.24,7.709z M10.699,8.167c0.072-0.255,0.013-0.344-0.097-0.08c0.032,0.026,0.054,0.054,0.079,0.084
			C10.682,8.169,10.697,8.166,10.699,8.167z M11.01,8.663c0.006-0.112,0.047-0.16,0.061-0.253c0.001,0,0.002,0,0.003,0.001
			c0.009,0.049,0.032,0.107,0.049,0.152c-0.003-0.029,0.019-0.066-0.004-0.088c0.019,0.015,0.042-0.005,0.061-0.053
			c-0.016-0.099-0.019-0.153-0.07-0.189c-0.004-0.093,0.005-0.085-0.073-0.164c-0.001,0.003-0.016-0.008-0.018-0.01
			c-0.036,0.176-0.085,0.149-0.249,0.265c0,0.001-0.001-0.001-0.001-0.001c0.004-0.233-0.208,0.029-0.216,0.153
			c0.043-0.062,0.029-0.089,0.07-0.125c-0.001,0,0.014-0.004,0.012-0.002c0.003,0.003,0.009,0.009,0.014,0.004
			c0.006,0.004,0,0.037-0.002,0.039c0.002-0.001,0.006,0.001,0.003,0.003c0.021-0.014,0.016-0.02,0.043-0.039
			c-0.02,0.005,0.036,0.045,0.045,0.052c0.09-0.109,0.059,0.159,0.241,0.179c0.002,0,0.008,0.002,0.011,0.003
			c-0.009,0.01-0.009,0.067,0.01,0.073C11.004,8.663,11.007,8.664,11.01,8.663z M10.454,8.603
			C10.405,8.609,10.349,8.617,10.454,8.603L10.454,8.603z M10.827,7.851c-0.037,0.075-0.076,0.176-0.104,0.267
			c0.022-0.037,0.037-0.084,0.065-0.117C10.799,7.958,10.835,7.912,10.827,7.851z M10.789,8.07c0.03,0.02,0.091-0.005,0.099,0
			C10.864,8.057,10.881,7.974,10.789,8.07z M6.82,7.142C6.823,7.142,6.808,7.2,6.811,7.204C6.9,7.103,6.888,7.136,6.933,7.051
			C6.936,7.049,6.949,7.045,6.95,7.045C6.973,7.023,6.995,7.08,7.027,6.957c0.004,0.004,0.004,0,0.006-0.007
			c0.044,0.045,0.095,0.097,0.12,0.133C7.145,7.296,7.174,7.351,7.211,7.506C7.212,7.511,7.209,7.509,7.21,7.513
			C7.205,7.515,7.208,7.52,7.209,7.523c0.001,0,0.004-0.004,0.005,0C7.222,7.52,7.212,7.458,7.214,7.447
			C7.277,7.6,7.283,7.708,7.287,7.763c0,0-0.013,0.016-0.014,0.018c0.001,0.001,0.001,0.002,0.001,0.003
			c0.003,0.021,0.031-0.015,0.028-0.017C7.297,7.782,7.3,7.78,7.313,7.79c-0.031,0.087-0.03,0.124-0.049,0.245
			c0.004-0.006,0.005-0.01,0.009-0.016C7.269,8.036,7.263,8.048,7.26,8.066C7.25,8.121,7.228,8.208,7.235,8.291
			c0.003,0,0.008,0.006,0.008,0.008c0.001,0,0.003-0.009,0.005-0.002c-0.003,0,0.009-0.044,0.025-0.035
			c0.002,0.001,0.003,0.001,0.005,0.002c0.071,0.089,0.101,0.186,0.2,0.264C7.481,8.53,7.481,8.533,7.485,8.54
			c0.007,0.003,0.008,0.004,0.013,0.006C7.523,8.741,7.544,8.85,7.627,8.965c0.081,0.112,0.179,0.217,0.332,0.307
			c0.015-0.008,0.07-0.056,0.063-0.053c0.015,0.039,0.02,0.039,0.044,0.018C7.914,9.008,8.019,8.76,7.772,8.57
			C7.768,8.573,7.774,8.576,7.757,8.566C7.68,8.655,7.706,8.584,7.622,8.654c0.224-0.092-0.006-0.169-0.093-0.28
			c-0.017-0.045-0.039-0.092-0.04-0.13c0,0,0.004,0.012,0.005,0.018c-0.102-0.106,0-0.091-0.13-0.119
			c-0.016-0.099,0.015-0.441,0.118-0.55c0.043-0.045,0.008-0.061,0.124-0.064c0.003,0.041-0.023,0.093-0.019,0.122
			c0.135-0.005,0.146,0.045,0.196,0.05C7.766,7.683,7.82,7.727,7.866,7.776C7.8,7.657,7.802,7.595,7.832,7.554
			C7.816,7.62,7.828,7.7,7.869,7.779C7.868,7.778,7.867,7.778,7.866,7.776c0.005,0.009,0.002,0.011,0.008,0.02
			c-0.001-0.002-0.001-0.004,0-0.006C7.877,7.796,7.877,7.802,7.88,7.808C7.886,7.797,7.879,7.778,7.871,7.77
			c0.001,0.019,0.022,0.011,0.027,0.015C7.897,7.79,7.891,7.788,7.889,7.786C7.891,7.799,7.881,7.797,7.88,7.81
			C7.899,7.837,7.904,7.814,7.9,7.9c0.006,0.004,0.003,0.002,0.003,0.006c0.001,0.001,0.007,0.001,0.008,0.002
			c0.022,0.015,0.051-0.036,0.04-0.041c0.001,0.003,0.009,0,0.005-0.001c0,0-0.001-0.001,0-0.001c0,0,0.018,0.012,0.021,0.013
			c0,0.008-0.015,0.081-0.021,0.068c0.005,0.001,0.005,0.001,0.008,0.006c0.007,0,0.006,0.003,0.009,0.009
			c0.062-0.01,0.142-0.015,0.217-0.023c-0.023,0.01-0.048,0.023-0.102,0.035c0.001,0.001,0.001,0.006,0,0.006
			C8.11,7.995,8.14,8.019,8.181,8.054C8.163,8.093,8.158,8.2,8.16,8.216C8.149,8.224,8.135,8.219,8.127,8.233
			c0.001,0,0.015,0.004,0.015,0.004C8.272,8.112,8.257,8.163,8.28,8.032c0.027,0.007,0.07,0.049,0.087,0.067
			c0-0.002,0.005-0.002,0.006-0.001C8.376,8.06,8.36,8.034,8.321,8c0,0,0.001-0.001,0.001-0.001
			c0.021,0.015,0.052,0.045,0.072,0.059C8.393,8.056,8.395,8.055,8.397,8.055C8.388,8.042,8.359,8.017,8.346,7.997
			c0.012,0,0.028,0.048,0.049,0.04c0-0.007,0.017-0.026,0.021-0.026C8.41,7.997,8.37,8.003,8.364,7.988
			C8.41,7.935,8.406,8.011,8.387,7.97C8.386,7.968,8.385,7.966,8.386,7.963C8.388,7.964,8.387,7.969,8.388,7.97
			c0.016,0.001,0.019-0.023,0.021-0.033c0,0,0.004-0.004,0.004-0.002c0-0.001,0.038,0.03,0.027,0.031
			c0.01,0.005,0-0.026,0.003-0.033C8.45,7.936,8.447,7.941,8.446,7.942c0.012,0.002-0.002,0.023-0.003,0.023
			C8.586,7.94,8.745,7.849,8.748,7.727c0.001,0.012,0.004,0.024,0.007,0.036c0-0.003,0.009,0.005,0.01,0.001
			c-0.001-0.004-0.001-0.007-0.001-0.01C8.74,7.656,8.762,7.665,8.789,7.651C8.75,7.513,8.784,7.532,8.75,7.424
			C8.727,7.353,8.716,7.302,8.699,7.248c0,0-0.003,0.002-0.004,0c0.016,0.026-0.055-0.091-0.063-0.103c0,0-0.002-0.002-0.002-0.003
			C8.622,7.14,8.602,7.151,8.62,7.163C8.616,7.159,8.615,7.165,8.611,7.164C8.566,7.112,8.533,7.079,8.464,7.037
			C8.449,7.012,8.379,6.938,8.358,6.914C8.356,6.91,8.357,6.916,8.345,6.903c0,0.001,0.024,0.005,0.029,0.01
			C8.256,6.788,8.286,6.717,8.31,6.572c0.001-0.009,0.109-0.105,0.107-0.104C8.412,6.441,8.4,6.443,8.396,6.419
			c0.009,0.004-0.002-0.003-0.002-0.002c0.004,0.001,0.01,0.003,0.01,0c0.003,0.001,0.01,0.002,0.01-0.001
			c-0.008-0.002,0.125,0.017,0.12-0.054c-0.001-0.01,0.024-0.017,0.032-0.02c0.002,0,0.003,0,0.004,0
			c0.001,0,0.002,0.001,0.003,0.001c0,0,0-0.001,0-0.001c0.015,0.002,0.031,0.004,0.041,0.002C8.624,6.329,8.622,6.322,8.631,6.31
			C8.626,6.317,8.64,6.318,8.643,6.314c-0.002,0.004,0.006,0.01-0.001,0.018C8.645,6.323,8.638,6.338,8.64,6.335
			c0.003,0.001,0.006,0.001,0.01,0C8.65,6.331,8.652,6.331,8.653,6.33c0.002-0.001,0.004-0.003,0.004-0.003
			c0-0.008-0.001,0.002,0.004-0.007c0,0.003,0-0.004,0.001-0.006c0,0.013-0.005-0.011-0.01-0.03
			c0.001,0.001,0.003,0.004,0.002-0.003c0.004,0.003,0.007-0.003,0.007-0.006c0.001,0.002,0.002,0.003,0.002,0
			c0,0,0.003,0.017,0.004,0.005c0.01,0.035,0.002,0.011,0.022,0.041c0,0-0.008-0.005-0.006,0c0.003,0.001,0.004,0.005,0.005,0.007
			c0.003-0.001,0.006-0.01,0.015-0.003C8.69,6.324,8.696,6.299,8.7,6.301C8.698,6.299,8.697,6.3,8.693,6.296
			c0.002,0.001,0.009-0.001,0.011,0c0.003,0.002-0.003,0,0.002,0.002C8.71,6.302,8.704,6.3,8.71,6.303c0,0,0.001,0,0.003,0.001
			c0.066,0.038,0.014,0.032,0.083,0.012c0.001,0.001-0.006,0.001-0.004,0c0,0,0.007-0.01,0.01-0.011
			c0.001,0.002,0.001,0.003,0.004,0.002c0.014,0.035,0.01,0.039,0.049,0.039C8.854,6.349,8.85,6.35,8.856,6.351
			C8.807,6.446,8.839,6.482,8.851,6.535c0.003-0.004,0.077-0.032,0.086-0.036C8.905,6.45,8.913,6.474,8.918,6.463
			c-0.016-0.055-0.006-0.021-0.01-0.094c0.012,0.002,0.01-0.004,0.009-0.017C8.913,6.348,8.924,6.372,8.924,6.36
			C8.916,6.357,8.927,6.386,8.928,6.367c-0.004,0,0.003,0.004,0.003,0.002C8.917,6.373,8.933,6.373,8.93,6.379
			C8.922,6.383,8.928,6.375,8.922,6.38c0.002-0.001,0,0.011,0,0.011c0.011-0.007,0.022-0.008,0.03-0.006
			c0.001,0,0.003-0.004,0.003-0.005c0.095-0.039,0.089-0.041,0.143-0.079c0.057,0.001,0.005,0.029,0.03-0.022
			c0.075,0.024,0.018,0.027,0.071-0.022c0.068,0.006,0.021,0.029,0.099-0.023c0.026,0.008-0.001,0.029,0.041,0.006
			C9.327,6.22,9.303,6.205,9.305,6.181c0.003,0,0.035,0.07,0.044,0.064c0-0.005,0.009-0.009,0.01-0.01
			c0.001-0.002,0.002-0.003,0.005-0.003C9.355,6.161,9.338,6.171,9.311,6.13c0.036-0.028,0.041,0.02,0.026-0.027
			C9.339,6.104,9.358,6.102,9.375,6.1C9.371,6.103,9.374,6.108,9.37,6.11c0.012,0.019,0.056,0.068,0.063,0.077
			C9.435,6.193,9.406,6.2,9.407,6.206C9.41,6.207,9.409,6.209,9.409,6.211c0.023,0.003,0.043,0.01,0.054,0.017
			c-0.005-0.02-0.007-0.013,0.008-0.011c0-0.001,0.001-0.003,0.003-0.003C9.472,6.211,9.475,6.213,9.475,6.213
			C9.473,6.207,9.472,6.207,9.477,6.205c-0.001-0.001-0.001-0.002,0-0.004c0,0-0.007-0.001-0.005-0.003
			C9.472,6.2,9.449,6.2,9.45,6.208c0.001-0.001,0.001-0.002,0-0.002C9.452,6.204,9.445,6.201,9.444,6.2
			c0.001-0.001,0.005-0.003,0.006,0c0.001-0.001,0,0,0-0.003c0.021-0.01,0.009,0.001,0.005-0.013c0.001,0-0.003,0.005-0.003,0.003
			c0,0.001,0,0.001-0.001,0.001c0.001,0,0.003-0.005,0.003-0.005C9.464,6.18,9.506,6.19,9.493,6.199
			c0.002-0.004,0.01-0.007,0.014-0.009C9.516,6.172,9.487,6.183,9.53,6.144c0.001,0,0.004,0.003,0.005,0.002
			C9.53,6.144,9.518,6.177,9.526,6.178c0.014-0.008,0.016,0.005,0.02,0.006C9.57,6.158,9.54,6.157,9.605,6.13
			c0.003,0.006,0.004,0.032,0.011,0.033C9.623,6.16,9.633,6.164,9.641,6.166c0,0-0.003-0.012,0.002-0.011
			c0.004-0.003-0.011,0.002-0.005,0.003C9.635,6.161,9.634,6.138,9.646,6.136C9.641,6.135,9.615,6.144,9.624,6.129
			c-0.001,0-0.008,0.004-0.007-0.002C9.721,6.144,9.703,6.124,9.771,6.08c0.002-0.002,0.04,0.001,0.041,0
			c0.005-0.014-0.034-0.011-0.039-0.028c0.083-0.036,0.114-0.045,0.149-0.049c0.004-0.007,0.015-0.053,0.01-0.05
			c0.012-0.016,0.026,0.024,0.01,0.024c0.006-0.037,0.037-0.037,0.054-0.055c0-0.001-0.002-0.004-0.001-0.006
			C9.994,5.895,9.96,5.913,9.95,5.889c0.026-0.006,0.01,0.007,0.005-0.002c0.028-0.007,0.04,0,0.047-0.033
			c0.017,0.003,0.033,0.02,0.055,0.027c0.003-0.007,0.025-0.076,0.002-0.057c0.021-0.007,0.001,0.003,0.013-0.011
			c0.012-0.002-0.009,0.016,0.004,0.002c-0.006,0.001,0.02,0.018,0.039,0.01c0-0.001-0.001-0.002,0-0.002
			c0-0.013-0.012,0,0.006-0.011c-0.001-0.017-0.014-0.014-0.014-0.036C10.111,5.775,10.1,5.772,10.1,5.771
			c0.001,0,0.024-0.016,0.023-0.008c-0.006,0,0.005,0.028,0.01,0.026c0.012-0.011-0.005-0.008,0.025-0.011
			c0.005-0.005-0.002-0.009,0.01-0.012c-0.002,0-0.01-0.008-0.008-0.009c-0.013-0.003-0.018,0.013-0.027-0.016
			c0.011,0,0.023-0.014,0.024-0.023c0.006,0.002,0.006-0.006,0.006-0.006c0.003,0.001,0.005,0.007,0.008,0.003
			c-0.003-0.001,0.023,0.035,0.014,0.034c0,0,0.008-0.001,0.009-0.001c-0.006-0.017,0.004-0.008,0.006-0.009
			c-0.001-0.001,0.002,0.015-0.001,0.014c0.004,0,0.007-0.001,0.01-0.002c-0.032-0.044-0.013-0.044,0.006-0.1
			c-0.026-0.015-0.04,0.022-0.063,0.004c0.001-0.001-0.008-0.019-0.009-0.021c-0.007,0.002-0.008-0.003-0.012-0.007
			c0.055-0.013,0.068-0.017,0.12-0.036c0.002,0.001-0.024,0-0.014-0.005c-0.001-0.001-0.002-0.002-0.003-0.004
			c0.002,0.002-0.019,0.017-0.02,0.017c0-0.002,0.003-0.006-0.002-0.004c0.001-0.016-0.014-0.017-0.014-0.018
			c0.005-0.016,0.027,0.008,0.031,0.007c-0.002-0.004,0.001-0.002,0.003-0.003c-0.015-0.032-0.021-0.01-0.038-0.035
			c0.013,0.004,0.007-0.011,0.002-0.016C10.199,5.532,10.2,5.524,10.2,5.525c0.011,0.011,0.03,0.015,0.036-0.009
			c0.013,0.038-0.022,0.015,0.033,0.009c-0.004,0.005-0.033,0.04-0.034,0.037c-0.003,0.005,0.031-0.012,0.034-0.009
			c0-0.002,0.01-0.003,0.008-0.005c-0.003-0.06,0.014-0.035,0.036-0.073c0.001-0.004-0.002,0.003,0.002-0.004
			c0-0.013-0.004,0.008,0.002-0.002c-0.002-0.016-0.035-0.014-0.034-0.012c0.001-0.001,0.003-0.01,0.003-0.012
			c0.005-0.002,0.004,0.009,0.004-0.002c0.005-0.002,0.005,0.005,0.006-0.002c0,0,0.006,0.007,0.007,0.001
			c-0.011,0.01,0.02,0.021,0.022,0.022c0-0.001,0.006-0.003,0.007-0.003c0.007-0.064,0.006-0.09,0.006-0.145
			c0.004,0,0.004,0.004,0.004,0.009c0.066-0.003,0.049,0.002,0.061-0.04c0.012-0.001,0.013,0,0.02-0.013
			c0.021-0.001-0.003,0.028,0.025,0.038c0.005-0.028,0.016-0.026,0.038-0.022c0.001-0.003,0.003-0.006,0.005-0.009
			c-0.011-0.036-0.03-0.047-0.055-0.068c0.009,0.001,0.042,0.032,0.05,0.004c-0.003-0.006,0.004-0.005,0.006-0.009
			c-0.004-0.007-0.003,0.003,0.001-0.006c-0.004-0.006-0.024-0.013-0.025-0.017c0.001-0.011,0.025,0.006,0.031-0.003
			c-0.014-0.014-0.039-0.013-0.044-0.025c0.007-0.003,0.005-0.005,0.005-0.006c0.003-0.001-0.004-0.005-0.004-0.003
			c0.012-0.005,0.019-0.01,0.022-0.023c0.001,0,0.03,0.039,0.033-0.011c0.008-0.003-0.007,0.026-0.002,0.033
			c0.005,0.007,0.016-0.007,0.022-0.004c-0.002-0.002,0-0.004,0.002-0.003c-0.005-0.003,0.002-0.007,0.005-0.007
			c-0.008-0.004,0.001-0.001-0.006-0.002c-0.007-0.004-0.004-0.048,0.002-0.054c-0.001,0.002-0.007-0.007-0.007-0.006
			c-0.001,0.003-0.007,0.002-0.007,0.002c-0.001,0.002-0.003,0.002-0.005,0.002c-0.002,0.001-0.003,0.002-0.005,0.002
			c0.002,0.005-0.004,0.029-0.043,0.034c0.001-0.001,0.005-0.011,0.001-0.011c0.009-0.01-0.008,0.007-0.007,0.007
			c0,0,0.002-0.017,0-0.018c0.009-0.011,0.073-0.042,0.096-0.062c-0.083-0.022-0.128-0.028-0.198-0.035
			c-0.009-0.012,0.015-0.037-0.009-0.039c-0.001,0.002-0.015,0.006-0.029,0.009c0.065-0.024,0.116-0.063,0.214-0.101
			c-0.118-0.14-0.201-0.195-0.331-0.213c0.005,0.002,0.011-0.015,0.01-0.015c-0.001-0.001-0.005-0.009-0.009-0.011
			c0.1,0.063,0.185,0.074,0.321,0.108c-0.153-0.152-0.16-0.417-0.38-0.509c0.06-0.114,0.075-0.177,0.155-0.22
			c-0.004,0.011-0.037-0.021-0.029-0.042c0.003,0,0.014,0.007,0.017,0.001c0.009-0.001,0.001,0.014,0.012-0.009
			c0.013-0.003-0.002,0.034-0.002,0.037c0.03-0.038,0.074-0.093,0.075-0.094c0.001-0.001-0.019,0.02-0.011,0.003
			c0.006-0.002-0.001-0.003,0-0.005c0.041-0.014,0.084-0.016,0.12-0.042c0,0,0.1-0.012,0.126-0.009
			c0.008-0.028,0.017-0.053,0.025-0.091c-0.148-0.017-0.482-0.024-0.479-0.047c-0.378-0.138-0.094-0.32,0.092-0.422
			c0.152-0.084,0.128-0.144,0.274-0.184c0.03,0.13,0.022,0.194-0.09,0.272c0.01,0.025,0.078,0.014,0.098,0.019
			c-0.05,0.047-0.058,0.05-0.118,0.093c0.007,0.002,0.013,0.004,0.003,0.012c0.005,0,0.003,0.011,0,0.013
			c0.002-0.001,0.005,0.007,0.005,0.007c0.073-0.036,0.252-0.144,0.32-0.184c0.1-0.059,0.236-0.17,0.356-0.247
			c-0.014,0.014-0.026,0.025-0.043,0.041c-0.101,0.09-0.19,0.099-0.146,0.233c0.008-0.001,0.026-0.031,0.015-0.035
			c0.039,0.039,0.054,0.037,0.097,0.036c0,0.048-0.015,0.086-0.036,0.154c-0.002,0,0.034,0.01,0.036-0.007
			c-0.003,0.002,0.028,0.023,0.029,0.026c-0.005,0.001-0.01,0-0.012-0.006c-0.003,0.001-0.008,0.001-0.009-0.004
			c-0.075,0.041-0.053,0.056-0.117,0.101c0.016,0.007,0.077-0.004,0.085,0.011c-0.004,0.001-0.005,0.003-0.004,0.008
			c0.001,0.004-0.005-0.005-0.005-0.005c-0.001-0.003-0.026,0.03-0.033,0.022c0.008,0.003-0.001-0.005,0.004,0.001
			c0.046,0.016,0.032,0.008,0.061,0.01c-0.012-0.003-0.005-0.01,0-0.011c-0.001,0.001,0.008,0.005,0.009,0.005
			c-0.003,0-0.006,0.009,0.002,0.009c-0.012-0.003-0.029,0.02-0.025,0.03c0.06-0.036,0.022-0.035,0.032-0.063
			c0.047,0.03,0.144,0.023,0.224-0.007c-0.022,0.023-0.045,0.044-0.06,0.076c-0.001,0.005-0.02-0.037-0.031-0.023
			c0.026,0.066,0.006,0.047,0.047,0.089c0.001,0.003-0.025,0.008-0.03,0.002c0.01,0.011-0.002,0.011,0.001,0.016
			c0.006,0.005-0.001,0,0.002,0.006c0.012,0.012,0.028,0.016,0.049,0.026c-0.003,0-0.009,0.002-0.004,0.005
			c-0.011,0-0.017,0.017-0.014,0.023c-0.006-0.004-0.007,0.007-0.008,0.012c-0.003-0.004-0.001-0.001-0.001-0.004
			c-0.03-0.031-0.009-0.028-0.048-0.049c0.002-0.001,0.004,0.027,0.011,0.028c-0.006,0.001-0.013,0.01-0.014,0.01
			c0.008,0-0.014-0.03-0.013-0.029c-0.001,0.001-0.002,0.005-0.007,0.002c0.001-0.001,0.011,0.03,0.002,0.036
			c-0.006-0.003-0.004-0.003-0.009,0c-0.002-0.003,0.01-0.029,0.002-0.031c-0.002,0.02-0.009,0.011-0.01,0.011
			c0.008,0.011-0.015,0.024-0.01,0.016c-0.003-0.002-0.005,0.02-0.005,0.02c0.005,0,0.017-0.007,0.023,0.021
			c0,0,0.006-0.007,0.007-0.005c-0.011-0.013,0.014-0.024,0.019-0.024c0.022,0.078,0.021,0.066,0.055,0.12
			c-0.008,0.019-0.044,0.008-0.048,0.021c0.002,0.01,0.042,0.004,0.044,0.008c-0.045,0.057-0.033,0.071-0.058,0.151
			c-0.006-0.011-0.016-0.029-0.024-0.018c0.026,0.032,0.008,0.017,0.017,0.057c-0.001,0.01,0.038-0.017,0.029-0.018
			c-0.009,0.008,0.009,0.014,0.012,0.015c0,0-0.009,0.001-0.004,0.003c-0.003,0.002-0.034,0.011-0.038,0.007
			c0.002-0.006,0.034,0.018,0.036,0.021c-0.005,0.003-0.02-0.01-0.012,0.001c-0.015,0.015-0.011-0.013-0.033-0.022
			c0.002,0.002-0.001,0.026-0.001,0.026c0.042,0.008,0.025,0.01,0.026,0.043c0.009-0.005,0.005,0.006,0.006,0.009
			c0.001,0,0.01-0.004,0.011-0.001c0.054-0.032,0.013-0.038,0.09-0.08c0.003,0.007,0.008,0.008,0.013,0.006
			c0,0.002,0.001,0.004,0.003,0.006c-0.001,0.018-0.013-0.001-0.012-0.001c0.008,0.013-0.013,0.02-0.02,0.031
			c0,0,0.006,0.003,0.006,0.002c0.011-0.01,0.01,0.006,0.023,0.012c0-0.003-0.005-0.01,0.004-0.007
			c0.002-0.004,0.005-0.007,0.009-0.01c-0.001-0.01,0.013-0.012-0.011-0.038c0.015-0.009,0.004-0.003,0.001-0.011
			c0.011-0.001,0.018,0,0.021-0.012c0.002,0,0.014,0.044,0.017,0.047c0.002-0.003-0.004-0.015,0-0.014
			c0.008-0.005,0.003-0.004,0.014-0.005c0.005-0.004,0.001-0.018,0.005-0.021c-0.014,0.003-0.033,0.008-0.026-0.017
			c0.029,0,0.042-0.006,0.067-0.023c0.024,0.016,0.015,0.03,0.048,0.039c-0.004,0.002-0.006,0.001,0,0.003
			c0.003-0.001,0.023-0.044-0.006-0.03c0.039,0.011,0.025-0.029,0.032-0.035c0.085,0.058,0.096-0.02,0.136-0.146
			c-0.002-0.073-0.068-0.334-0.169-0.457c-0.026,0.009-0.042,0.021-0.063,0.031c0.03-0.044,0.021-0.1-0.073-0.162
			c0.003-0.008,0.017,0.007-0.002-0.005c0.014-0.03,0.02,0.011,0.023,0.013c0.042-0.106,0.225-0.33,0.297-0.422
			c0.065-0.084,0.071-0.128,0.14-0.14c-0.029-0.061-0.054-0.098-0.105-0.134c0.014,0.021,0.046,0.058,0.074,0.089
			c0.015-0.007-0.006-0.017,0.011,0.004c0.029-0.021-0.019-0.026-0.021-0.032c0.238-0.121-0.012-0.375,0.206-0.52
			c0.27,0.096,0.281-0.269,0.395-0.462c0.005-0.008,0.006-0.019,0.011-0.027c-0.064-0.28-0.134-0.001-0.293-0.047
			c0.023,0.007-0.108,0.065-0.145,0.058c-0.143-0.027-0.063-0.125-0.123-0.162c-0.03-0.018-0.018-0.044-0.009-0.094
			c-0.319-0.207-0.354-0.125-0.519-0.543c-0.075-0.19-0.13-0.462-0.457-0.509c-0.147-0.021-0.417,0.034-0.505,0.217
			c0.14,0.07-0.003,0.414-0.112,0.513C10.07,1.273,10.022,1.38,9.853,1.328c-0.062-0.07-0.169-0.121-0.404-0.112
			c-0.1,0.004-0.278,0.179-0.406,0.203c-0.347,0.066-1.039-0.254-1.27-0.374C7.683,0.998,7.447,0.875,7.312,0.793
			C7.074,0.996,7.319,1.205,7.063,1.316C6.887,1.392,6.652,1.14,6.49,1.127C6.321,1.114,5.803,1.348,5.793,1.534
			C5.782,1.511,5.769,1.491,5.768,1.455c-0.032,0.009-0.047,0.026-0.07,0.04c-0.001-0.01-0.013-0.022-0.001-0.028
			C5.661,1.39,5.596,1.404,5.62,1.321C5.618,1.323,5.6,1.319,5.599,1.317C5.421,1.458,5.47,1.286,5.328,1.235
			c-0.194-0.07-0.192-0.097-0.414-0.128C4.791,1.09,4.79,0.901,4.685,1.105C4.544,0.82,4.412,0.525,4.171,0.316
			c0.022-0.024,0.053-0.055,0.073-0.077C4.101,0.297,3.97,0.367,3.894,0.481c-0.075-0.01-0.055-0.01-0.136,0.008
			c0.004-0.007-0.011-0.03-0.025-0.034C3.76,0.404,3.777,0.391,3.804,0.338c-0.001,0-0.015,0.006-0.01-0.004
			C3.726,0.366,3.737,0.331,3.641,0.321C3.635,0.313,3.652,0.365,3.659,0.362C3.647,0.343,3.628,0.371,3.62,0.375
			C3.616,0.303,3.595,0.331,3.567,0.26C3.559,0.269,3.582,0.31,3.586,0.319C3.423,0.354,3.413,0.24,3.396,0.035
			c-0.306-0.047-0.61,0.15-0.952,0.24C2.383,0.292,2.29,0.337,2.239,0.383C2.152,0.339,2.102,0.37,2.023,0.369
			c-0.002,0.042,0,0.03-0.014,0.07c0.026,0.013,0.074,0.002,0.089,0.011C2.101,0.457,2.103,0.463,2.104,0.47
			c0.004,0.006-0.077-0.006-0.058,0.043C2.096,0.529,2.14,0.557,2.182,0.58C2.18,0.584,2.179,0.588,2.179,0.592
			c-0.181,0.002-0.2,0.102-0.292,0.232c0,0.002-0.001,0.004-0.002,0.005c0.136,0.047,0.379,0.274,0.013,0.252
			C1.865,1.109,1.87,1.149,1.82,1.167C1.588,0.863,1.396,1.235,1.124,1.049c0-0.001,0.002,0.02-0.004,0.017
			c0.015,0.046,0.019,0.038,0,0.091C1.078,1,0.922,0.926,0.813,0.874c-0.065,0.022-0.088,0.044-0.14,0.069
			C0.649,0.907,0.686,0.909,0.598,0.878C0.547,0.954,0.41,1.058,0.292,1.131C0.334,1.35,0.267,1.318,0.151,1.172
			C0.035,1.4,0.004,1.595,0.125,1.77c0.141,0.017,0.115,0.04,0.228,0.191C0.342,2.012,0.296,1.94,0.283,1.969
			C0.282,1.974,0.279,1.979,0.276,1.984C0.306,2,0.345,2.025,0.384,2.052C0.395,2.018,0.371,2.04,0.403,2.04
			c0.011-0.014-0.018-0.028-0.009-0.041C0.511,2,0.632,1.85,0.805,1.953C0.922,1.92,0.883,1.957,0.91,2.02
			c0.021,0.075-0.002,0.152,0.034,0.234C0.725,2.206,0.574,2.26,0.711,2.416C0.365,2.318,0.704,2.703,0.849,2.782
			C0.842,2.833,0.852,2.906,0.831,2.954C0.844,2.941,0.857,2.941,0.87,2.932C0.85,2.957,0.85,3.001,0.894,3.085
			c0.004-0.123,0.041-0.164,0.082-0.167C0.954,2.916,0.925,2.907,0.908,2.91c0.134-0.07,0.258-0.001,0.361,0.08
			C1.175,2.961,1.084,2.935,1.006,2.922c0.074,0.027,0.146,0.153,0.078,0.195C1.086,3.114,1.089,3.163,1.11,3.147
			C1.1,3.145,1.101,3.159,1.106,3.156c-0.12-0.04-0.121,0.009-0.207-0.077C0.877,3.163,0.885,3.216,0.904,3.281
			C0.922,3.287,0.969,3.297,0.99,3.287C0.988,3.303,0.943,3.334,0.973,3.349C0.981,3.343,0.99,3.339,1.013,3.37
			C0.998,3.372,0.99,3.365,0.99,3.379C0.967,3.38,0.924,3.349,0.948,3.343c-0.002-0.01-0.013,0.029-0.017,0.059
			C0.988,3.39,1.003,3.419,1.011,3.42C1.009,3.852,1.229,3.599,1.537,3.659c0.13,0.025,0.19,0.061,0.277,0.129
			C1.835,3.804,1.891,3.862,1.943,3.92C1.94,4.033,1.958,4.149,1.996,4.269C1.987,4.324,1.99,4.375,2.015,4.426
			c-0.151,0.33,0.299,0.336-0.011,0.607C2.128,5.198,2.233,5.28,2.269,5.45C2.299,5.473,2.324,5.438,2.35,5.474
			C2.233,5.532,2.11,5.658,2.128,5.803c0.052-0.009,0.064-0.009,0.091-0.01c0.05-0.021,0.214-0.049,0.247-0.057
			c0.069,0.027,0.17,0.027,0.328,0.008c0,0,0-0.004-0.001-0.008c0.015,0.025,0.023,0.045,0.022,0.095
			c0.086,0.077,0.122,0.17,0.19,0.139c0.013-0.006,0.007,0.036,0.01,0.036c0.005-0.007,0.003,0.002,0.009,0.002
			c0.012-0.022,0.034-0.039,0.06-0.054C3.059,5.971,3.041,5.99,3.036,6.016C3.053,6.009,3.109,5.982,3.117,5.98
			C3.111,5.987,3.106,5.989,3.098,5.99C3.026,6.119,3.22,6.152,3.347,6.096c0.002-0.001,0.006,0.006,0.007,0.006
			C3.219,6.17,3.25,6.186,3.15,6.201c0,0.002,0.008-0.007,0.003-0.006C3.151,6.188,3.131,6.22,3.135,6.22
			c0.12,0.233,0.453,0.307,0.427,0.081c0,0,0-0.009-0.001-0.01c0.015-0.02,0.028,0.019,0.004-0.013
			c0.019-0.019,0.05-0.007,0.017-0.052c0.003,0,0.011,0.001,0.008-0.003C3.618,6.23,3.629,6.224,3.687,6.225
			C3.676,6.258,3.635,6.218,3.637,6.282c0.017,0.019,0.021-0.044-0.001,0.036C3.651,6.33,3.712,6.299,3.719,6.305
			c-0.109,0.066-0.035,0.039-0.07,0.102C3.662,6.434,3.67,6.624,3.707,6.688C3.68,6.694,3.66,6.671,3.669,6.73
			c0.006,0,0.003-0.003,0.005,0.006c0.014-0.005,0.013-0.028,0.023-0.04C3.7,6.685,3.692,6.712,3.698,6.709
			C3.695,6.72,3.7,6.718,3.708,6.718C3.67,6.788,3.701,6.851,3.738,7.002c0.027,0.109,0.029,0.184,0.098,0.254
			c0.026,0.073,0.048,0.176,0.101,0.29c0.076,0.163,0.183,0.381,0.238,0.512c0.004,0.008,0.001,0.026,0.003,0.036
			C4.16,8.066,4.166,8.065,4.156,8.046c0-0.001-0.001-0.002-0.004-0.006c0.004,0.118,0.045,0.112,0.06,0.135
			C4.214,8.178,4.208,8.175,4.211,8.18c0.099,0.168,0.221,0.032,0.39-0.027c0.001,0.002-0.024-0.016-0.015-0.021
			C4.571,8.017,4.6,8.066,4.646,7.994C4.639,7.967,4.615,8.015,4.656,7.993c-0.008-0.04-0.026-0.149-0.024-0.146
			C4.684,7.739,4.698,7.604,4.69,7.501c0.003,0.011,0.012,0.015,0.007-0.005c0.007,0.013,0.016,0.03,0.024,0.042
			C4.658,7.378,4.714,7.21,4.802,7.16c-0.004,0,0.004,0.034,0.016,0.037c0.074-0.057,0.125-0.109,0.186-0.173
			c0.112-0.098,0.288-0.26,0.45-0.406c-0.021,0.006-0.024,0.008-0.029,0.01c0.002-0.002,0.004-0.003,0.005-0.004
			C5.427,6.623,5.427,6.628,5.424,6.628C5.42,6.631,5.417,6.632,5.419,6.631C5.411,6.635,5.404,6.638,5.392,6.649
			C5.394,6.648,5.394,6.642,5.39,6.645c0.002-0.001,0.06-0.052,0.064-0.055c0,0-0.002,0.02,0.001,0.019c0,0-0.019,0.008-0.021,0.006
			c0.001,0,0.003,0.005,0.003,0.006c0.038-0.013,0.084-0.032,0.129-0.045C5.563,6.578,5.528,6.554,5.536,6.549
			c0.072-0.012,0.07-0.016,0.124-0.084c0.011-0.022,0.104-0.199,0.12-0.262c0.001,0.002,0.008,0.001,0.006,0.008
			c0.001,0.002,0.005,0.012,0.003,0.014c0.016,0.033,0.039,0.048,0.033,0.103c0.004-0.001,0.007,0.002,0.006,0.007
			c0.001,0,0.002,0,0.003,0c0.001,0,0.003-0.002,0.003-0.002c0.001,0-0.005-0.037-0.006-0.035C5.835,6.3,5.85,6.324,5.851,6.329
			c0-0.001,0.014-0.054,0.012-0.054c-0.001,0,0.004,0.061,0.007,0.063C5.87,6.334,5.864,6.334,5.871,6.336
			c0.001-0.003,0.005-0.008,0.005-0.009C5.88,6.315,5.881,6.294,5.881,6.277c0.001,0.001,0.007,0,0.007,0.001
			c0-0.001,0.007-0.014,0.007-0.015C5.891,6.249,5.895,6.26,5.9,6.248c0.003,0.014-0.002,0.07,0,0.087
			c0.012-0.007,0.009-0.05,0.036-0.008c0-0.003,0.008-0.003,0.009-0.002C5.94,6.243,5.912,6.165,5.881,6.09
			c0.001-0.001,0.003-0.002,0.004-0.002c0.013,0.032,0.026,0.063,0.041,0.091C5.946,6.214,5.954,6.29,5.965,6.322
			C5.99,6.266,5.963,6.288,5.99,6.311C5.993,6.295,5.997,6.26,6.002,6.247C6.003,6.265,6,6.228,6,6.223
			c0.004,0.013,0.01,0.034,0.007,0.047c0.001,0,0.003-0.011,0.006-0.022c0.003,0.017,0.002,0.059,0.002,0.065
			c0,0,0.01-0.019,0.011-0.008c0.008-0.019,0.005-0.038,0.029-0.102c0.002,0.01,0.018-0.008,0.019-0.011
			c-0.001,0.008-0.039,0.07-0.006,0.079C6.07,6.273,6.075,6.249,6.105,6.238c0.001,0.005-0.002,0.017-0.009,0.013
			C6.091,6.246,6.076,6.288,6.076,6.289c0.001,0,0.003,0,0.003,0.002C6.096,6.279,6.086,6.28,6.085,6.294
			C6.098,6.282,6.119,6.236,6.13,6.225c-0.002,0.009,0.005,0.02-0.003,0.028c0,0.001,0.005,0.004,0.005,0.004
			C6.14,6.148,6.163,6.14,6.107,6.044C6.174,6.083,6.141,6.04,6.139,6.026c0.003,0.009,0.019-0.003,0.019-0.004
			c0,0.003,0.002,0.001,0.002,0c0.001,0.012-0.008,0.02,0.01,0.012c-0.001-0.007-0.007,0,0-0.004c0.023,0.166,0.025,0.144,0.109,0.1
			c0.013,0.021,0.018,0.086,0.047,0.1c0-0.001,0.003-0.027,0.009-0.027c0.01,0.12,0.014,0.092,0.061,0.256
			C6.374,6.396,6.379,6.38,6.393,6.377c0.015,0.053,0.029,0.095,0.061,0.154c0.001-0.003,0.001-0.019,0-0.034
			C6.46,6.521,6.462,6.544,6.459,6.54c0.004,0.001,0.01,0.008,0.013,0.012c0.021-0.005,0.021-0.048,0.029-0.065
			C6.499,6.495,6.492,6.532,6.505,6.506C6.506,6.573,6.493,6.518,6.515,6.6c0.003-0.005-0.013-0.059,0.01-0.002
			c0.001,0-0.014-0.034-0.015-0.041c0.036,0.012,0.049,0.034,0.086,0.027C6.59,6.636,6.59,6.592,6.629,6.652
			c-0.002,0.001-0.001,0.009,0,0.011C6.627,6.663,6.623,6.67,6.624,6.672C6.59,6.686,6.575,6.649,6.559,6.659
			C6.539,6.652,6.625,6.757,6.623,6.74c0,0.001,0-0.006,0.001-0.004C6.625,6.729,6.621,6.689,6.62,6.689
			c0.019,0.018,0.01-0.011,0.02-0.027c0.044,0.145-0.01,0.295,0.026,0.446c0.001,0.006,0.001,0.056,0,0.06
			c0.001-0.001,0.008-0.006,0.007-0.003c0.063-0.04,0.02-0.043,0.052-0.08c0,0.005,0.005,0.004,0.008,0.001
			C6.732,7.092,6.72,7.147,6.713,7.162C6.712,7.165,6.71,7.174,6.71,7.174C6.722,7.165,6.73,7.148,6.741,7.14
			c0.003,0.014-0.024,0.027-0.027,0.035c0.001,0,0.009,0.006,0.008,0.01C6.737,7.18,6.745,7.16,6.754,7.145
			C6.758,7.158,6.746,7.167,6.75,7.188c0.015-0.003-0.002,0-0.001,0.007C6.743,7.198,6.779,7.197,6.775,7.193
			c0.008-0.014,0.007-0.026,0.011-0.038C6.788,7.163,6.789,7.18,6.8,7.195c0.015-0.004-0.003-0.036,0.019-0.04
			C6.813,7.156,6.818,7.144,6.82,7.142z M8.498,7.313c0.001,0.013-0.001,0.032-0.001,0.048C8.468,7.37,8.448,7.377,8.43,7.383
			C8.453,7.365,8.475,7.338,8.498,7.313z M10.369,4.999c-0.007-0.002-0.001-0.003-0.01-0.002c-0.002,0,0-0.002-0.001-0.003
			C10.363,4.997,10.368,5,10.369,4.999z M8.398,6.136c0.004,0.002,0.015,0.01,0.018,0.013c-0.014,0.103,0.048,0.157,0.11,0.181
			C8.418,6.295,8.411,6.26,8.416,6.149C8.398,6.137,8.378,6.135,8.359,6.127C8.373,6.131,8.383,6.131,8.398,6.136z M8.314,7.468
			c-0.062-0.034-0.137-0.061-0.213-0.07c0.039-0.03,0.08-0.034,0.11-0.049c-0.006,0.02-0.009,0.043-0.02,0.057
			C8.211,7.411,8.286,7.452,8.314,7.468z M8.136,6.585c0.017-0.012,0.019-0.025,0.006-0.039c0-0.002,0.001-0.004,0.001-0.006
			c0.003,0.003,0.007,0.004,0.009,0.007c0.021,0.028,0.006,0.042-0.018,0.052C8.135,6.595,8.135,6.589,8.136,6.585z M8.083,6.909
			c0.051,0.046,0.087,0.116,0.112,0.189C8.161,7.024,8.125,6.95,8.074,6.904C8.077,6.906,8.08,6.906,8.083,6.909z M7.969,6.843
			C7.916,6.84,7.92,6.914,7.841,6.889C7.788,6.873,7.768,6.875,7.746,6.882C7.821,6.844,7.893,6.821,7.969,6.843z M7.599,6.906
			C7.6,6.907,7.6,6.913,7.601,6.914c0,0-0.008,0.017-0.009,0.019C7.596,6.923,7.595,6.915,7.599,6.906z M7.474,6.516
			C7.47,6.518,7.487,6.521,7.482,6.523c0.01-0.021,0.017-0.025,0.025-0.039c0,0,0.001,0.001,0.001,0.001
			C7.502,6.499,7.495,6.509,7.49,6.526C7.48,6.522,7.467,6.527,7.455,6.526C7.461,6.522,7.468,6.52,7.474,6.516z M7.315,7.108
			c-0.056,0.053-0.071,0.1-0.072,0.145C7.236,7.216,7.244,7.174,7.315,7.108z M7.183,6.672C7.154,6.71,7.131,6.751,7.126,6.794
			C7.124,6.807,7.098,6.788,7.098,6.787C7.12,6.734,7.15,6.699,7.183,6.672z M1.325,3.006C1.323,2.937,1.32,2.867,1.316,2.798
			C1.353,2.934,1.421,3.04,1.49,3.027C1.454,3.038,1.393,3.025,1.325,3.006z M1.872,2.894C1.855,2.881,1.837,2.869,1.82,2.858
			c0.019,0.011,0.039,0.012,0.059,0.025C1.877,2.886,1.875,2.89,1.872,2.894z M2.76,5.722c0.006,0.004-0.026,0.016-0.023,0.011
			C2.726,5.728,2.778,5.706,2.776,5.709C2.783,5.718,2.785,5.723,2.789,5.73C2.782,5.732,2.77,5.715,2.76,5.722z M3.403,5.835
			c0.001,0.001,0.002,0.001,0.003,0.002c0.009,0.022,0.018,0.036,0.027,0.062C3.424,5.874,3.413,5.856,3.403,5.835z M4.183,8.105
			C4.179,8.1,4.181,8.1,4.178,8.096C4.18,8.097,4.188,8.096,4.189,8.1C4.188,8.103,4.186,8.104,4.183,8.105z M6.44,6.377
			C6.438,6.379,6.436,6.375,6.434,6.375c0.002-0.001,0.004,0,0.006-0.001C6.44,6.375,6.44,6.376,6.44,6.377z M6.44,6.369
			C6.438,6.243,6.413,6.122,6.385,6.005c0.008,0.089,0.041,0.176,0.047,0.266C6.438,6.27,6.439,6.259,6.445,6.256
			C6.436,6.29,6.447,6.333,6.44,6.369z M6.649,5.981c-0.005,0.012-0.101-0.03-0.113-0.031c0.068,0.007,0.116-0.04,0.158-0.101
			C6.68,5.894,6.666,5.94,6.649,5.981z M6.786,7.154c0.001-0.004,0-0.008,0.003-0.012c0,0.003,0.006,0.003,0.007,0.001
			c0,0.002,0.005,0.003,0.005,0.003C6.802,7.146,6.787,7.153,6.786,7.154z M9.369,6.111C9.364,6.114,9.353,6.115,9.362,6.125
			C9.35,6.103,9.377,6.131,9.369,6.111z M9.369,6.111c0,0,0-0.001,0.001-0.001l0,0C9.37,6.112,9.369,6.11,9.369,6.111z M0.976,2.918
			c0.01,0.001,0.02,0.002,0.031,0.004C0.996,2.918,0.986,2.917,0.976,2.918z M6.702,7.162c0.004,0,0.009,0,0.012,0
			c-0.001,0,0.002,0-0.002,0C6.704,7.162,6.705,7.162,6.702,7.162z M6.493,6.585C6.457,6.518,6.506,6.61,6.493,6.585L6.493,6.585z
			 M13.793,2.451c-0.173,0.143-0.332,0.007-0.473-0.235c-0.008,0.02-0.026,0.025-0.039,0.014c0.009,0.203,0.03,0.478-0.166,0.411
			c-0.003,0.006-0.006,0.013-0.016,0.009c-0.049,0.118-0.059,0.207-0.043,0.362c0.001,0,0.007,0.004,0.007,0.004
			c0.004-0.002,0.014-0.001,0.015,0.002c0.06-0.038,0.095-0.045,0.138-0.075c-0.081-0.05-0.079-0.118-0.104-0.146
			c0.026,0.003,0.087,0.041,0.069,0.05c0.129,0.02,0.142-0.012,0.319,0.072c0.115-0.199,0.221-0.21,0.354-0.28
			C13.827,2.605,13.728,2.653,13.793,2.451z M11.552,4.283c-0.001,0.001,0.019,0.001,0.03-0.048
			C11.551,4.234,11.563,4.262,11.552,4.283z M13.176,2.992c0.001,0.002-0.018,0.073-0.021,0.076
			c0.003,0.001,0.058-0.011,0.055-0.021c-0.008,0.004,0.002,0.001,0-0.004c0.031-0.017-0.002,0.092-0.005,0.076
			c-0.024-0.026-0.043-0.027-0.052,0.007c-0.037-0.057-0.014-0.046-0.057-0.081c-0.003,0.006,0.002,0.031-0.013,0.025
			c-0.019,0.036-0.166,0.992-0.472,0.74c-0.109,0.144-0.113,0.309-0.215,0.286c-0.03-0.023,0.009-0.024-0.006-0.049
			c-0.001,0-0.007-0.007-0.007-0.007c-0.219,0.017-0.45,0.066-0.551,0.236c-0.02,0.033-0.037-0.015-0.056,0.08
			c0,0,0.002,0.002,0.004,0.003c-0.102,0.056-0.119,0.065-0.185,0.093c0.001,0.007,0.002,0.014-0.002,0.017
			c0,0.003-0.001,0.005-0.002,0.008c0.002,0.011,0.04,0.039,0.063,0.064c-0.001,0-0.023-0.008-0.019-0.001
			c0-0.001-0.003,0.002-0.003,0.002c-0.001-0.008-0.011-0.037-0.013-0.037c0.001,0.004-0.009-0.007-0.01-0.006
			c0.001,0.001-0.005,0.017-0.007,0.019c0.035,0.034,0.013,0.042,0.015,0.069c0.001-0.001,0.006-0.003,0.006-0.001
			c0.05-0.065,0.039-0.012,0.056-0.003c0.001-0.001,0.006-0.003,0.007-0.003c0-0.002,0.001-0.003,0.003-0.002
			c0.001-0.003,0.012-0.011,0.015-0.011c0-0.001-0.004-0.008,0.002-0.009c0.003-0.007-0.039-0.029-0.034-0.064
			c0.004,0.004,0.015-0.007,0.016-0.011c0,0,0.016,0.013,0.017,0.008c0.025,0.105,0.021,0.191-0.034,0.289
			c-0.01,0.003,0.062,0.044,0.06,0.041c0-0.003,0.005,0.001,0.005,0.001c0-0.001,0.007-0.006,0.007-0.005
			c-0.017-0.038-0.009-0.052,0.007-0.07c0.003,0.015-0.003,0.064-0.004,0.1c0.091-0.066,0.146-0.214,0.196-0.324
			c-0.017-0.029-0.021-0.036-0.078-0.066c0.01,0.025,0.023-0.048,0.024-0.055c-0.062-0.02-0.061-0.018-0.082-0.041
			c0.052,0.001,0.073,0.005,0.144,0.013c0.002-0.002-0.013,0.008-0.009,0.009c0.093-0.101,0.081-0.068,0.147-0.081
			c0.07-0.059,0.166-0.09,0.314-0.078c-0.002,0.007,0.009,0.003,0.01,0.003c-0.065,0.165-0.035,0.092,0.048,0.215
			c0.051-0.042,0.134-0.125,0.148-0.139c0.001,0,0,0.003,0.002,0.001c0-0.001,0-0.002,0-0.002c0,0,0,0,0,0l0,0
			c-0.009-0.036,0.002-0.104-0.004-0.135c0,0.006,0.004,0.004,0.003-0.005c0,0.006,0.007,0.008,0.006-0.003
			c-0.004,0.032,0.012,0.049,0.014,0.068c-0.007-0.01-0.011-0.028,0.001-0.039c0.017,0.038,0.017,0.01,0.034,0.019
			c0.002,0.002,0.011,0.007,0.014,0.009c-0.003-0.001,0.002,0.007,0.002,0.007c-0.002,0-0.009,0.003-0.005,0.006
			c0,0-0.041,0.007-0.04,0.019c0.137-0.061,0.157-0.028,0.249-0.094c0.001,0.002,0.016,0.015,0.015,0.016
			c-0.003-0.011-0.026,0.044-0.022,0.06c0,0,0.012,0.014,0.012,0.015c0.002-0.003,0.018-0.016,0.021-0.008
			c0.046-0.08,0.072-0.072,0.088-0.084c0-0.001,0.007,0,0.008,0c0.001-0.01-0.001-0.005,0.007-0.012
			c-0.008-0.037-0.008-0.034,0.005-0.077c-0.001,0.01,0.026,0.004,0.031-0.003c0.001,0.002,0.002,0.003,0.003,0.002
			c0,0,0.01,0.01,0.01,0.01c0,0.002,0,0.007,0.003,0.006c-0.007,0.032-0.038,0.081-0.049,0.104c0.002-0.001,0.011,0.004,0.01,0.009
			c0.001,0,0.002,0.001,0.003,0.002c0,0,0.006-0.001,0.006,0c0.055-0.04,0.098-0.092,0.136-0.136
			c0.001-0.002,0.002-0.004,0.003-0.006c-0.018-0.18-0.018-0.427,0.09-0.451c0.009-0.11,0.036-0.164,0.075-0.235
			c-0.021-0.093-0.07-0.214-0.084-0.347C13.227,3.038,13.199,3.013,13.176,2.992z M11.75,4.744c0.004-0.005,0.006-0.009,0.012-0.016
			C11.763,4.76,11.75,4.748,11.75,4.744z M11.805,4.882C11.787,4.922,11.758,4.987,11.805,4.882L11.805,4.882z M11.326,5.637
			c0.01-0.013,0.023-0.001,0.017-0.016c0.017-0.033,0.04-0.061,0.078-0.096C11.382,5.56,11.346,5.542,11.326,5.637z M11.613,5.26
			c-0.005,0.003-0.064,0.022-0.079,0.032C11.58,5.328,11.568,5.286,11.613,5.26z M12.236,4.473c0.012-0.048,0.042-0.09,0.076-0.101
			c-0.042-0.096-0.14-0.097-0.248-0.052c-0.006,0.007,0,0-0.006,0.003c-0.027,0.032-0.06,0.077-0.103,0.118
			c0,0-0.016,0.009-0.02,0.013c0.002,0.001,0.057-0.027,0.057-0.016c-0.004,0.079,0.007,0.056,0.081,0.124
			C12.141,4.416,12.097,4.499,12.236,4.473z M12.608,4.299c0,0-0.001-0.008,0.001-0.002C12.609,4.297,12.607,4.299,12.608,4.299
			L12.608,4.299C12.607,4.3,12.608,4.298,12.608,4.299z M12.801,3.68c0.025-0.051,0.058-0.024,0.041-0.094
			C12.799,3.633,12.818,3.643,12.801,3.68z M12.611,3.809C12.611,3.809,12.611,3.809,12.611,3.809c0.001,0,0.001-0.001,0.002-0.002
			C12.612,3.808,12.611,3.809,12.611,3.809z M12.678,3.731c-0.029,0.023-0.045,0.05-0.065,0.077
			c0.016-0.029,0.043-0.037,0.068-0.068C12.677,3.742,12.678,3.73,12.678,3.731z M11.833,9.5c-0.001-0.001,0.002-0.005,0.003-0.005
			c-0.002-0.001,0.006-0.005,0.005-0.005c-0.003-0.001-0.011-0.01-0.004-0.012c-0.043-0.012-0.062-0.01-0.083-0.008
			c0.022,0.008,0.049,0.027,0.074,0.034C11.826,9.503,11.83,9.5,11.833,9.5z M11.69,9.482c0.059,0.016,0.029,0.025,0.091,0.026
			c0.002-0.001,0.001-0.005,0.004-0.006c-0.006,0.005-0.033-0.025-0.04-0.032C11.716,9.473,11.698,9.481,11.69,9.482z M11.725,9.579
			C11.849,9.518,11.689,9.597,11.725,9.579L11.725,9.579z M11.618,9.72c0.044-0.001,0.064,0.026,0.097,0.009
			c-0.005-0.024-0.003,0,0-0.02C11.672,9.674,11.656,9.719,11.618,9.72z M11.739,9.464c0,0,0.011,0.003,0.003,0.003
			c0,0,0.003,0.003,0.003,0.003c0.002,0,0.007,0.001,0.009,0.001C11.75,9.469,11.743,9.464,11.739,9.464z M7.258,9.479
			C7.169,9.424,7.314,9.513,7.258,9.479L7.258,9.479z M9.574,10.701c0.011-0.004,0.068-0.07,0.078-0.073
			c-0.039,0.005-0.116-0.039-0.167-0.032C9.499,10.619,9.57,10.697,9.574,10.701z M9.804,10.638
			C9.774,10.657,9.7,10.65,9.679,10.685C9.761,10.76,9.741,10.685,9.804,10.638z M9.744,9.985C9.653,9.927,9.746,9.986,9.744,9.985
			L9.744,9.985z M10.143,10.684c-0.001-0.001,0.001-0.002,0.002-0.002c-0.003-0.002-0.003-0.01,0.001-0.011
			c-0.002-0.001,0-0.002,0.001-0.002c-0.001,0-0.004-0.008-0.005-0.007c-0.035-0.018-0.027-0.004-0.07-0.002
			c-0.038-0.016-0.059-0.044-0.131-0.055c0,0-0.004,0.01-0.003,0.01c0.025,0.018,0.07,0.036,0.082,0.054
			c-0.187-0.031-0.292,0.021,0.015,0.002c0-0.002,0-0.004,0.002-0.005c0.002,0.045,0.034,0.045,0.075,0.036
			C10.097,10.713,10.083,10.681,10.143,10.684z M10.731,10.952c0.018-0.007-0.048,0.006-0.081,0.028
			C10.695,11.007,10.701,10.965,10.731,10.952z M11.342,9.575c0,0.002,0.021-0.013,0.017-0.012c0-0.002,0.001-0.003,0.001-0.004
			c-0.03-0.049-0.069-0.042-0.08-0.05C11.31,9.531,11.295,9.563,11.342,9.575z M10.11,10.804c0.102,0.071,0.189,0.063,0.262,0.062
			C10.266,10.81,10.245,10.737,10.11,10.804z M7.527,9.907C7.523,9.899,7.472,9.81,7.527,9.907L7.527,9.907z M7.443,9.774
			C7.441,9.773,7.356,9.728,7.443,9.774L7.443,9.774z M7.28,9.586C7.305,9.689,7.375,9.69,7.366,9.681
			C7.345,9.658,7.325,9.607,7.314,9.58C7.313,9.583,7.284,9.587,7.28,9.586z M9.408,10.447c0.065,0-0.116-0.018-0.17-0.001
			c0.001,0.001,0.006,0.014,0.004,0.015C9.307,10.478,9.347,10.45,9.408,10.447z M9.024,10.396c-0.107-0.03-0.509-0.112-0.669-0.099
			c-0.041,0.003-0.133,0.084-0.142,0.096c0.006,0.003-0.019,0.016-0.018,0.014c0.003,0.001,0.006,0.009,0.005,0.01
			c0.051,0.006,0.126,0.019,0.179,0.02c0.081,0.104,0.514,0.156,0.722,0.195c0.113,0.022,0.312,0.025,0.404,0.048
			C9.44,10.498,9.233,10.455,9.024,10.396z M8.183,10.268c0.017,0.003,0.022-0.065,0.084,0.015c0.041-0.225,0.089-0.597-0.161-0.453
			C8.104,9.834,8.104,9.838,8.1,9.841C8.101,9.84,8.1,9.84,8.101,9.84C8.172,9.703,7.99,9.595,7.97,9.512
			c0,0.001-0.049-0.033-0.046-0.025C7.922,9.471,7.993,9.451,8,9.448c-0.056-0.01-0.09-0.032-0.169-0.03
			C7.845,9.41,7.897,9.384,7.899,9.384C7.879,9.366,7.856,9.349,7.835,9.33c0.008,0.011,0.019,0.021,0.052,0.022
			c0,0.001,0.003-0.002,0.004-0.002C7.87,9.316,7.834,9.312,7.812,9.294c0.009,0.007,0.011,0.019,0.016,0.03
			C7.751,9.256,7.672,9.186,7.594,9.126c-0.003,0-0.006,0.001-0.009,0.003C7.559,9.138,7.613,9.182,7.6,9.193
			C7.557,9.147,7.476,9.088,7.485,9.094c-0.013-0.016-0.01-0.017-0.021-0.024C7.465,9.07,7.475,9.086,7.469,9.083
			c-0.057-0.06-0.552-0.588-0.662-0.421c-0.001,0.001-0.005,0-0.005,0C6.866,8.884,7.195,9.101,7.292,9.23
			c0.149,0.2,0.218,0.454,0.404,0.679c0.131,0.159,0.305,0.257,0.43,0.378C8.063,10.16,8.138,10.27,8.183,10.268z M9.967,9.292
			c0.055,0.015,0.115,0.011,0.153,0.019c-0.002-0.001-0.002-0.007-0.001-0.007c-0.06-0.036-0.123-0.102-0.176-0.142
			c0.026-0.088-0.011-0.164-0.099-0.219c0.092-0.018,0.039,0,0.102-0.007c0-0.001,0.01-0.011,0.01-0.011
			C9.951,8.916,9.924,8.923,9.949,8.917c-0.028-0.044-0.027-0.036-0.03-0.054C9.855,8.835,9.815,8.835,9.777,8.837
			C9.828,8.812,9.992,8.84,10.062,8.83c-0.003-0.003,0.005-0.005,0.007-0.006c-0.021-0.013-0.051-0.028-0.071-0.062
			c0.045-0.006,0.117-0.021,0.159-0.064c-0.076-0.035-0.099-0.058-0.184-0.052c0-0.002-0.003-0.013-0.007-0.014
			c0-0.011,0.027-0.002,0.013-0.04c0.008,0.012-0.074,0.028-0.074,0.028C9.916,8.509,9.932,8.573,9.86,8.46
			c-0.002,0-0.007,0.005-0.009,0.002C9.841,8.465,9.842,8.515,9.809,8.519c0.002,0,0.015-0.057-0.001-0.062
			C9.68,8.62,9.592,8.686,9.61,8.836c0,0.002-0.002,0.003-0.001,0.006C9.565,8.814,9.586,8.805,9.563,8.756
			c0.001-0.001,0.001-0.003,0.002-0.004c0.017-0.017-0.11,0.039-0.144,0.049c0.005,0.005,0.01,0.009,0.014,0.014
			c-0.006-0.004-0.009-0.01-0.018-0.013C9.353,8.98,9.098,9.096,9.037,9.107c0.007,0.056-0.001,0.01,0.018,0.039
			c-0.001,0.011-0.048,0.1-0.049,0.07C9.002,9.263,9.039,9.237,9.056,9.26C8.931,9.2,8.93,9.235,8.813,9.157
			C8.769,9.201,8.751,9.196,8.721,9.279C8.724,9.278,8.727,9.278,8.73,9.277C8.725,9.289,8.719,9.305,8.717,9.324
			c0.02,0.122,0.002,0.169,0.078,0.229C8.771,9.536,8.76,9.545,8.761,9.571c0.156,0.064,0.06,0.295,0.236,0.289
			c-0.035-0.001,0.071,0.002,0.11-0.023c0.017,0.021,0.004,0.087,0.01,0.114c0.049-0.026,0.139-0.074,0.169-0.088
			C9.361,9.891,9.367,9.882,9.437,9.9c0.013,0.057,0.003-0.002,0.034,0.003c0.007,0.053-0.013,0.016,0.026,0.019
			c0.014,0.013,0.007,0.095,0.01,0.116c0.19-0.084,0.204-0.089,0.213-0.191C9.701,9.894,9.779,9.78,9.772,9.811
			C9.77,9.805,9.782,9.766,9.784,9.758C9.781,9.755,9.742,9.761,9.74,9.756c0.013-0.067,0.007-0.024-0.008-0.054
			c0.061-0.048,0.053-0.062,0.075-0.108c0.03,0.002,0.066-0.02,0.121-0.034C9.904,9.495,9.926,9.404,9.967,9.292z M8.87,9.279
			C8.829,9.285,8.822,9.236,8.818,9.197c0.025,0.033,0.06,0.06,0.106,0.077C8.906,9.276,8.889,9.276,8.87,9.279z M9.61,8.836
			C9.539,8.715,9.585,8.794,9.61,8.836L9.61,8.836z M12.543,9.69c-0.004,0-0.009,0-0.014,0.001c0.002,0,0.006,0.001,0.007,0.001
			C12.541,9.69,12.54,9.691,12.543,9.69z M11.295,9.65c0,0.002-0.001,0.007-0.003,0.008c0,0.002,0.001,0.006-0.001,0.008
			c0.028,0.05,0.046,0.002,0.096,0.026C11.366,9.682,11.357,9.635,11.295,9.65z M12.662,9.743c-0.189,0.032-0.271,0.313-0.366,0.058
			c-0.002-0.001-0.007-0.002-0.008-0.004c-0.011-0.008-0.004,0.044-0.002,0.052c-0.023-0.234-0.151-0.445-0.441-0.289
			c-0.007,0.004-0.048,0.07-0.059,0.091c0.063,0.001,0.091,0.014,0.144,0.015c0.03,0.098,0.117,0.12,0.273,0.08
			c0,0.007-0.012,0.012,0.001,0.009c-0.001,0.033-0.005-0.002,0.008,0.031c-0.04,0.026,0,0.009-0.027,0.037
			c-0.037-0.02,0.009-0.014-0.018,0.009c-0.051-0.029-0.001-0.018-0.042-0.006c-0.044-0.006-0.143,0.004-0.198,0.016
			c0.002,0.003,0.022,0.001,0.004,0.007c0.003,0.004,0.005,0.008-0.002,0.013c0.115,0.135,0.17,0.201,0.258,0
			c0.002,0,0.003,0,0.005-0.001C12.191,9.865,12.198,9.89,12.2,9.886c0,0.001,0.002,0.004,0.002,0.003
			c-0.013,0.092-0.004,0.135,0.138,0.115c0,0,0,0.002,0,0.002c0.001,0.004,0.004,0,0.006,0c0.004,0.01-0.034,0-0.034,0
			c-0.007-0.005-0.005,0.029-0.009,0.028c0.263,0.094,0.385,0.126,0.488,0.225c0.002,0.002,0.023-0.012,0.029-0.006
			c0.022,0.041,0.037,0.105,0.116,0.184c-0.031-0.015-0.055-0.021-0.088-0.008c0.023,0.035,0.048,0.028,0.075,0.039
			c-0.018,0.004-0.038,0-0.06,0.001c0.002,0.019,0.007,0.042,0.014,0.062c-0.081,0.014-0.074,0.015-0.157,0.113
			c0.025,0.004,0.129-0.03,0.137-0.027c0-0.006,0.014-0.023,0.03-0.042c0.004,0.017,0.011,0.029,0.011,0.05
			c0.011-0.011,0.042-0.042,0.049-0.043c0.039,0.009,0.064,0.02,0.123-0.015c0.002,0.011-0.009,0.007-0.013,0.009
			c0.049,0.128,0.178,0.094,0.128,0.069C13.146,10.078,13.28,9.639,12.662,9.743z M12.41,9.558c0.059,0.022,0.05,0.059,0.134,0.049
			C12.498,9.567,12.413,9.559,12.41,9.558z M12.53,9.691c-0.027,0.003-0.09-0.015-0.114-0.016c0,0-0.005,0.003-0.006,0.003
			C12.462,9.693,12.501,9.693,12.53,9.691z M12.282,10.217c-0.012,0.029-0.016,0.025-0.043,0.04
			c0.026,0.094,0.078,0.048,0.073,0.045c-0.006-0.007-0.002-0.045-0.02-0.086C12.291,10.219,12.284,10.219,12.282,10.217z
			 M11.808,10.581c0.031-0.007,0.017-0.007,0.027,0.005c0.035-0.039,0.039-0.098,0.058-0.125c-0.022,0.033-0.077,0.063-0.087,0.105
			C11.814,10.569,11.808,10.574,11.808,10.581z M11.422,9.889c0.103,0.029,0.187,0.038,0.343,0.106
			C11.707,9.861,11.524,9.814,11.422,9.889z M12.219,10.406c0.046,0.021,0.053-0.028,0.06-0.027
			C12.231,10.37,12.22,10.277,12.219,10.406z M11.366,9.945c0,0.001,0.001,0.005-0.002,0.007c0.012-0.03,0.035-0.046,0.058-0.062
			c-0.008-0.002-0.016-0.004-0.024-0.006C11.378,9.884,11.381,9.936,11.366,9.945z M8.102,9.418
			C8.138,9.492,8.097,9.408,8.102,9.418L8.102,9.418z M10.392,10.48C10.328,10.494,10.433,10.471,10.392,10.48L10.392,10.48z
			 M10.234,10.693c0.005,0.001,0.016,0.006,0.012,0.013c0.148,0.011,0.256,0.003,0.41-0.046c0.009-0.019,0.015-0.034,0.003-0.049
			c-0.135,0.066-0.271,0.025-0.419,0.029C10.239,10.641,10.227,10.699,10.234,10.693z M10.335,10.314
			C10.269,10.339,10.369,10.301,10.335,10.314L10.335,10.314z M10.591,10.12c-0.018,0.095,0.021,0.075,0.022,0.097
			c-0.002-0.026,0.03-0.061,0.023-0.115C10.63,10.108,10.602,10.121,10.591,10.12z M10.689,10.07
			c-0.055,0.113-0.023,0.183-0.029,0.151c0.014-0.04,0.028-0.071,0.047-0.087C10.72,10.131,10.688,10.066,10.689,10.07z
			 M11.075,9.719C10.876,9.638,11.233,9.782,11.075,9.719L11.075,9.719z M10.705,9.628c-0.005-0.042-0.043,0.01-0.046,0.046
			c0.017-0.003,0.026-0.04,0.038-0.04c0.017,0.012-0.007,0.037-0.004,0.04c0.002-0.001,0.007,0.003,0.009,0.005
			c0.01-0.007,0.004-0.003,0.009,0.001c0.037-0.035-0.016-0.021,0.031-0.019C10.751,9.583,10.709,9.663,10.705,9.628z M7.098,9.232
			c-0.003,0.025-0.027,0.012-0.04,0.018C7.06,9.255,7.057,9.254,7.061,9.252c0.072,0.132,0.114,0.056,0.117,0.057
			C7.15,9.3,7.12,9.25,7.098,9.232z M10.974,10.613c-0.032-0.006-0.135-0.014-0.082,0.003C10.884,10.614,10.87,10.671,10.974,10.613
			z M10.659,10.609c-0.01,0.015-0.023,0.007-0.011-0.011c0.009,0.005,0.007,0.009,0.011,0.014c0.003-0.002,0.006,0,0.01-0.002
			C10.665,10.609,10.662,10.608,10.659,10.609z M11.471,9.106c-0.042-0.056-0.031,0.01-0.065,0.027
			C11.403,9.135,11.435,9.194,11.471,9.106z M10.991,9.241c-0.004,0.002-0.012-0.023-0.01-0.027c-0.008,0.007-0.021,0-0.021-0.009
			c-0.164,0.219-0.322,0.027-0.517,0.069c-0.109,0.024-0.196,0.094-0.235,0.175c0.004,0.025,0.018,0.083,0.03,0.125
			c-0.061,0.024-0.075,0.124-0.121,0.243c0.001,0.034-0.041,0.057-0.006,0.138c0.167,0.075-0.038,0.314,0.213,0.289
			c-0.007-0.039-0.036-0.374-0.032-0.378c0.167-0.164,0.068,0.101,0.144,0.125c0.099,0.031,0.08,0.189,0.22,0.085
			c-0.002-0.003,0.007-0.006,0.008-0.007c-0.078-0.115-0.045-0.187-0.218-0.339c0.002-0.001,0-0.009-0.002-0.01
			c0.009-0.004-0.004-0.014-0.004-0.014c0.081-0.02,0.224-0.096,0.291-0.115c-0.003-0.003,0.003-0.021,0.009-0.024
			c-0.001-0.004-0.001-0.007,0.001-0.011c-0.002-0.002-0.003-0.004-0.001-0.007c-0.003-0.001-0.008-0.004-0.004-0.008
			c-0.06-0.01-0.107,0.021-0.064,0.012c-0.236,0.08-0.591,0.014-0.251-0.168C10.63,9.274,10.831,9.539,10.991,9.241z M10.87,9.686
			c0.001,0.001-0.006,0.028-0.008,0.029c0.001,0,0.012,0.016,0.011,0.019C10.918,9.731,10.979,9.702,11,9.701
			C10.983,9.702,10.927,9.687,10.87,9.686z M8.293,9.661c0,0-0.006-0.001-0.005-0.001C8.281,9.662,8.269,9.672,8.262,9.666
			c0.011,0.001,0.005,0.033,0.016,0.037C8.23,9.649,8.217,9.684,8.186,9.744c0.065,0.047,0.16,0.079,0.219,0.143
			c0-0.002,0.005-0.002,0.004-0.002C8.399,9.849,8.403,9.851,8.421,9.812C8.399,9.778,8.328,9.706,8.293,9.661z M8.624,8.932
			C8.657,8.849,8.6,8.895,8.582,8.883c0.034,0.023,0.034,0.046,0.033,0.049C8.616,8.931,8.623,8.932,8.624,8.932z M11.108,9.889
			c0.049,0.161,0.092,0.045,0.16,0.035C11.24,9.925,11.185,9.882,11.108,9.889z M11.064,10.583c0.053-0.007,0.106-0.036,0.148-0.042
			C11.152,10.55,11.107,10.508,11.064,10.583z M6.868,9.051C6.891,9.081,6.959,9.1,6.976,9.11C6.944,9.091,6.91,9.057,6.88,9.035
			C6.88,9.046,6.878,9.05,6.868,9.051z M11.405,9.336c0.027-0.048,0.073-0.031,0.07-0.106c-0.052,0.05-0.081,0.044-0.13,0.108
			c0-0.001-0.007-0.004-0.008-0.003c0.001-0.004-0.011-0.011-0.012-0.01c0.025-0.07,0.032-0.121,0.055-0.185
			c0.004-0.003-0.012,0.007-0.01,0.002c-0.063,0.055-0.048,0.089-0.077,0.153c0.027,0.094,0.051,0.196,0.143,0.284
			c-0.019-0.067-0.054-0.132-0.067-0.196c0.018,0.006,0.117,0.043,0.131,0.039C11.493,9.386,11.434,9.357,11.405,9.336z
			 M8.529,9.847c0.022,0.009,0.002,0.071,0.084,0.046C8.611,9.762,8.559,9.859,8.529,9.847z M3.035,6.016
			C3.035,6.016,3.036,6.016,3.035,6.016C3.033,6.017,3.023,6.022,3.023,6.021C3.023,6.02,3.035,6.009,3.035,6.016z M6.497,7.519
			c0,0.001-0.005,0.002-0.004-0.001c0,0.001-0.004,0.008-0.004,0.003C6.456,7.645,6.448,7.711,6.452,7.787
			c0.01-0.042,0.026-0.081,0.034-0.107c0.004-0.081-0.014-0.089,0.016-0.139C6.499,7.547,6.497,7.519,6.497,7.519z M6.452,7.797
			c0-0.003,0-0.007,0-0.01C6.451,7.793,6.448,7.796,6.447,7.802C6.448,7.804,6.45,7.799,6.452,7.797z M6.458,7.801
			c-0.001-0.009-0.007-0.01-0.005-0.005c0-0.001-0.001,0.001-0.002,0.002c0,0.007-0.001,0.014,0,0.021
			C6.451,7.815,6.459,7.803,6.458,7.801z M10.743,10.92c0.143-0.021,0.183-0.102,0.228-0.184c-0.006,0.018-0.012,0.035-0.006,0.058
			c0.109-0.043,0.221-0.09,0.313-0.156C11.126,10.63,11,10.655,10.971,10.73C10.852,10.754,10.773,10.811,10.743,10.92z
			 M10.534,4.767c-0.039-0.018-0.065-0.053-0.112-0.051C10.457,4.757,10.497,4.75,10.534,4.767z M8.79,6.594
			C8.8,6.585,8.75,6.599,8.747,6.6c-0.003,0.002,0.002,0.011,0,0.012C8.66,6.677,8.671,6.795,8.811,6.835
			c0.072,0.021,0.118-0.118,0.157-0.179C8.991,6.62,8.983,6.651,9.004,6.618C8.949,6.56,8.849,6.538,8.79,6.594z M6.158,6.265
			c0.033,0.019-0.002-0.038,0.031-0.066C6.192,6.195,6.148,6.136,6.158,6.265z"/>
	</g>
</g>
</svg>
