<?xml version="1.0" encoding="utf-8"?>
<!-- Generator: Adobe Illustrator 17.0.0, SVG Export Plug-In . SVG Version: 6.00 Build 0)  -->
<!DOCTYPE svg PUBLIC "-//W3C//DTD SVG 1.1//EN" "http://www.w3.org/Graphics/SVG/1.1/DTD/svg11.dtd">
<svg version="1.1" id="europe_1_" xmlns="http://www.w3.org/2000/svg" xmlns:xlink="http://www.w3.org/1999/xlink" x="0px" y="0px"
	 width="13px" height="9px" viewBox="0 0 13 9" enable-background="new 0 0 13 9" xml:space="preserve">
<g id="europe">
	<g>
		<path fill-rule="evenodd" clip-rule="evenodd" fill="#A1A6AC" d="M9.157,8.292C9.068,8.339,9.228,8.358,9.157,8.292L9.157,8.292z
			 M12.827,0.253c-0.333-0.075-0.152,0.113-0.242,0.163c0.047-0.03-1.143-0.212-1.304-0.189c-0.058,0.008,0.211,0.224,0.129,0.285
			c-0.126,0.093-0.212-0.215-0.251-0.212c0.022-0.002-0.477,0.417-0.546,0.241c-0.145-0.368-0.444-0.015-0.649-0.101
			C9.851,0.393,9.106,0.156,9.048,0.366c0.023-0.082-0.003,0.162-0.004,0.119c0.001,0.053,0.072,0.026,0.07,0.024
			c0.01,0.024,0.067,0.12,0.06,0.131C9.116,0.729,8.74,0.687,8.705,0.715c-0.02,0.015,0.05,0.199,0.05,0.2
			C8.756,0.921,8.457,0.82,8.43,0.77c0.302-0.123-0.569-0.354-0.476-0.19c0.124,0.22-0.81,0.002-0.852,0.134
			C7.079,0.788,7.137,0.778,7.167,0.755C7.179,0.804,7.033,0.91,7.003,0.913C7.077,0.907,7.287-0.19,6.619,0.245
			C6.63,0.237,6.35-0.051,6.255,0.012C6.076,0.13,6.385,0.428,6.077,0.526C6.069,0.529,5.932,0.61,5.829,0.659
			c-0.4,0.191-0.003,0.305-0.025,0.427C5.79,1.17,5.293,1.078,5.515,1.393C5.63,1.556,5.836,1.447,5.767,1.711
			c0.064-0.257-0.456-0.3-0.457-0.242c0,0.02,0.118,0.034,0.093,0.078c-0.01,0.019-0.156-0.041-0.124,0.027
			c0.037,0.08,0.165,0.059,0.181,0.104c0.024,0.07-0.435-0.172-0.298-0.253C5.087,1.471,5.104,1.568,5.154,1.671
			c-0.071-0.155-0.174-0.265-0.32-0.229c-0.332,0.08,0.209,0.766,0.209,0.772C5.047,2.155,4.308,1.978,4.312,1.97
			C4.34,1.921,4.576,2.349,4.455,2.282C4.354,2.22,4.047,2.292,3.988,2.317C3.935,2.341,3.681,2.631,3.634,2.579
			C3.633,2.576,3.613,2.184,3.441,2.356c0.001-0.001,0.127,0.347,0.07,0.335c-0.254-0.049-0.142,0.165-0.197,0.25
			C3.239,3.059,3.203,3.047,3.186,3.004c0,0.012,0.001,0.016,0.001,0.03C3.185,3.143,2.827,2.709,2.787,2.661c0,0,0,0,0,0
			C2.786,2.658,2.784,2.656,2.781,2.654C2.782,2.655,2.786,2.66,2.787,2.661C4.13,3.043,2.694,2.223,2.529,2.207
			c0.032-0.015,0.114-0.049,0.074-0.072C2.607,2.137,2.38,2.039,2.389,2.042c-0.03-0.008-0.283,0.128-0.305,0.079
			C2.082,2.12,1.908,2.262,1.87,2.274C1.852,2.282,1.897,2.233,1.85,2.23c-0.024-0.001-0.112,0.2-0.099,0.191
			C1.647,2.495,1.677,2.367,1.665,2.36C1.592,2.319,1.596,2.476,1.583,2.501C1.63,2.502,1.685,2.467,1.728,2.492
			C1.464,2.738,1.385,3.081,1.105,3.296C0.92,3.445,1.139,3.653,1.056,3.768C0.922,3.952,1.509,3.793,1.42,3.716
			c0.046,0.04,0.129,0.372,0.142,0.373C1.617,4.354,1.833,3.908,1.845,3.87C1.965,3.517,1.885,3.291,2.101,2.9
			c0.213-0.383,0.054,0.265,0.055,0.261C2.135,3.223,1.988,3.47,2.149,3.539c0.094,0.04,0.499,0.086,0.549,0.048
			C2.65,3.617,2.227,3.697,2.226,3.81c0.06-0.015,0.302,0.09,0.119,0.144c-0.206,0.06-0.126,0.228-0.383,0.252
			C1.946,4.208,1.301,4.398,1.378,4.205c0.035-0.078,0.14,0.156,0.182-0.116C1.355,4.077,1.539,4.181,1.491,4.209
			c-0.123,0.065-0.018-0.311-0.09-0.294c-0.27,0.061-0.036,0.349-0.219,0.451c-0.07,0.039-0.785,0.646-0.804,0.537
			C0.415,5.12,0.709,5.022,0.601,5.364C0.587,5.41,0.139,5.369,0.064,5.396c-0.19,0.069-0.015,0.874,0.287,0.663
			c0.219-0.155,0.218-0.17,0.388-0.352c0.111-0.12,0.419-0.255,0.447-0.289c0.206-0.255,0.433,0.147,0.626,0.257
			c0.177,0.351-0.112-0.001-0.162,0.256C1.598,6.189,1.945,5.81,1.975,5.708c0.006-0.022,0.017-0.026,0.028-0.023
			C1.797,5.502,1.342,4.751,2.089,5.489c0.07,0.069,0.249,0.412,0.267,0.514C2.415,6.346,2.517,5.475,2.418,5.69
			C2.56,5.416,2.773,5.933,2.684,5.886c0.312,0.165,0.395,0.17,0.781,0.14c0.001,0.097-0.161,0.482-0.14,0.528
			c0.028,0.062,0.156,0.021,0.202,0.063C3.536,6.7,3.495,6.76,3.403,6.798C3.512,6.708,3.819,7.395,3.906,7.46
			c0.432,0.331,0.039,0.604,0.662,0.497c0.268-0.045,0.497-0.29,0.723-0.418c0.186-0.102,0.073-0.407-0.046-0.545
			C5.168,6.984,5.095,6.97,5.027,6.951C4.871,7.007,4.79,7.122,4.675,6.976C4.502,6.757,4.478,6.37,4.711,6.754
			c0.062,0.102,0.177,0.16,0.316,0.198c0.035-0.013,0.07-0.026,0.115-0.029c0.029-0.001,0.067,0.029,0.103,0.072
			C5.601,7.044,6.029,7.038,6.26,7.213c0.004,0.001-0.105,0.026-0.082,0.051c0.146,0.153,0.16,0.052,0.271,0.026
			C6.52,7.62,6.669,7.873,6.788,8.182c0.181,0.464,0.355,0.049,0.344-0.237C7.122,7.64,7.698,7.381,7.889,7.247
			c0.263-0.185,0.21,0.672,0.552,0.46C8.444,7.705,8.739,9.017,9.074,9c0.019,0.012-0.324-0.608-0.353-0.672
			C8.616,8.306,8.685,7.932,8.767,7.995c0.102,0.077,0.223,0.199,0.319,0.25C9.121,8.264,9.143,8.28,9.157,8.292
			C9.182,8.279,9.222,8.264,9.3,8.248c0.24-0.049,0.189-0.373,0.065-0.503c-0.189-0.2-0.254-0.624,0.087-0.368
			c0.166,0.124,0.978-0.623,0.743-0.944c0.042-0.105,0.043-0.032-0.002-0.139c-0.026-0.06-0.328-0.634-0.037-0.62
			c-0.634-0.032-0.081-0.309-0.11-0.34C10.079,5.366,10,5.515,10.033,5.541c0.003,0.003,0.304-0.221,0.299-0.051
			c-0.005,0.21,0.064,0.08,0.159,0.188c0.013,0.015,0.007,0.31,0.064,0.304c0.171-0.02,0.243-0.15,0.157-0.307
			c-0.035-0.063-0.274-0.241-0.184-0.306c0.099-0.07,0.077-0.438,0.256-0.364c0.424,0.178,0.247-1.16,0.273-1.223
			c0.215,0.122,0.135,0.698,0.322,0.773c-0.058-0.023,0.143-0.096,0.106-0.04c0.052-0.079-0.353-1.058-0.484-1.069
			c-0.031-0.003-0.01,0.104,0.01,0.19c0.03,0.032,0.046,0.066,0.023,0.1c0.001-0.002-0.01-0.048-0.023-0.1
			c-0.07-0.073-0.238-0.123-0.323-0.053c0.038-0.029-0.041-0.051-0.082-0.022c-0.111,0.081-0.125-0.781,0.217-0.898
			c0.119-0.041,0.71-0.101,0.698-0.16c-0.145-0.701,0.381-0.097,0.292-0.673c0.008-0.027,0.032-0.036,0.071-0.029
			c0.143,0.062,0.013,0.82-0.045,0.895c-0.17,0.23,0.188,0.903,0.41,1.037c0.122,0.071,0.08-1.345-0.074-1.099
			c-0.001,0,0.006,0.008,0.006,0.005c-0.003-0.001-0.005-0.001-0.008-0.002c-0.076,0.122-0.035-0.586,0.04-0.458
			c0.01,0.017,0.196-0.052,0.317-0.038c-0.028-0.003,0.44-0.653,0.164-0.804c0.009,0.005-0.186-0.153-0.192-0.16
			c0.135,0.149,0.024-0.525-0.026-0.428c0.09-0.176,0.429,0.223,0.45-0.138C12.932,0.557,12.878,0.264,12.827,0.253z M1.635,3.769
			C1.651,3.624,1.616,3.944,1.635,3.769L1.635,3.769z M2.241,2.136C2.261,2.133,2.184,2.241,2.241,2.136L2.241,2.136z M2.418,2.373
			C2.453,2.294,2.4,2.413,2.418,2.373L2.418,2.373z M2.453,3.248C2.378,3.24,2.478,3.25,2.453,3.248L2.453,3.248z M2.624,3.395
			C2.542,3.511,2.658,3.345,2.624,3.395L2.624,3.395z M3.321,3.705C3.333,3.715,3.438,3.821,3.321,3.705L3.321,3.705z M3.038,3.303
			c0.076-0.011,0.158,0.127,0.08,0.146C3.115,3.449,2.986,3.31,3.038,3.303z M2.751,3.448C2.657,3.304,2.987,3.803,2.751,3.448
			L2.751,3.448z M2.877,5.661C2.785,5.776,2.9,5.631,2.877,5.661L2.877,5.661z M3.806,5.562c-0.204,0.139-0.452-0.109-0.678-0.03
			c-0.312,0.11-0.312-0.008-0.281-0.258c0.049-0.376,0.598,0.049,0.569-0.101C3.413,5.159,3.28,5.12,3.265,5.111
			C3.357,5.054,3.454,5.012,3.563,4.99C3.337,5.248,3.885,5.508,3.806,5.562z M4.497,5.613C4.013,5.436,4.244,5.031,4.591,4.976
			C4.37,5.011,4.833,5.976,4.843,5.975C4.352,6.036,4.595,5.648,4.497,5.613z M5.221,5.191C5.199,5.25,4.992,5.202,5.116,5.086
			C5.23,4.979,5.246,5.124,5.221,5.191z M5.427,2.413C5.343,2.542,5.264,2.464,5.236,2.462c-0.002,0-0.003,0.005-0.005,0.004
			c0-0.003-0.001-0.005-0.003-0.006c0.002-0.001,0.006,0.002,0.008,0.002C5.302,2.471,5.3,2.036,5.183,1.728
			C5.299,1.921,5.51,2.113,5.504,2.034C5.502,2.003,5.434,2.401,5.427,2.413z M5.548,2.065C5.59,2.033,5.664,2.122,5.629,2.167
			C5.6,2.203,5.526,2.081,5.548,2.065z M6.257,0.451C6.322,0.506,6.235,0.44,6.257,0.451L6.257,0.451z M6.203,5.021
			c-0.013-0.113,0.14-0.138,0.071-0.066C6.325,4.902,6.209,5.103,6.203,5.021z M6.59,0.838C6.53,0.789,6.498,0.749,6.469,0.68
			c0.034,0.016,0.13,0.03,0.139,0.005C6.564,0.681,6.557,0.806,6.59,0.838z M6.625,0.661c0.127-0.02,0.017-0.09,0.013-0.105
			C6.63,0.527,6.725,0.61,6.723,0.612C6.748,0.598,6.622,0.682,6.625,0.661z M6.88,4.661C6.879,4.662,7.01,4.728,6.997,4.746
			C6.958,4.803,6.83,4.695,6.88,4.661z M7.515,4.442C7.573,4.382,7.48,4.478,7.515,4.442L7.515,4.442z M7.557,4.675
			C7.561,4.622,7.553,4.724,7.557,4.675L7.557,4.675z M8.057,4.284C8.04,4.329,8.057,4.202,8.057,4.284L8.057,4.284z M8.314,4.18
			c0.033,0.018,0.345-0.521,0.205-0.547C8.684,3.665,8.496,4.258,8.314,4.18z M9.076,0.704C9.049,0.703,9.18,0.708,9.076,0.704
			L9.076,0.704z M9.398,0.364C9.307,0.363,9.459,0.365,9.398,0.364L9.398,0.364z M9.479,0.417C9.486,0.418,9.493,0.534,9.479,0.417
			L9.479,0.417z M10.694,4.722C10.774,4.715,10.617,4.729,10.694,4.722L10.694,4.722z M12.413,1.147
			C12.38,1.154,12.522,1.123,12.413,1.147L12.413,1.147z M3.186,3.004C3.185,2.781,3.157,2.932,3.186,3.004L3.186,3.004z"/>
	</g>
</g>
</svg>
