<svg xmlns="http://www.w3.org/2000/svg" width="55" height="60" viewBox="0 0 55 60">
  <metadata><?xpacket begin="﻿" id="W5M0MpCehiHzreSzNTczkc9d"?>
<x:xmpmeta xmlns:x="adobe:ns:meta/" x:xmptk="Adobe XMP Core 5.6-c138 79.159824, 2016/09/14-01:09:01        ">
   <rdf:RDF xmlns:rdf="http://www.w3.org/1999/02/22-rdf-syntax-ns#">
      <rdf:Description rdf:about=""/>
   </rdf:RDF>
</x:xmpmeta>
                                                                                                    
                                                                                                    
                                                                                                    
                                                                                                    
                                                                                                    
                                                                                                    
                                                                                                    
                                                                                                    
                                                                                                    
                                                                                                    
                                                                                                    
                                                                                                    
                                                                                                    
                                                                                                    
                                                                                                    
                                                                                                    
                                                                                                    
                                                                                                    
                                                                                                    
                                                                                                    
                           
<?xpacket end="w"?></metadata>
<defs>
    <style>
      .cls-1 {
        fill: #a1a6ac;
        fill-rule: evenodd;
      }
    </style>
  </defs>
  <path id="north_central_america" data-name="north&amp;central america" class="cls-1" d="M39.561,58.622a1,1,0,0,0-.78.089c-0.077.047-.164,0.076-0.24,0.124a0.48,0.48,0,0,1-.564.052,1.162,1.162,0,0,1-.8-0.572,4.713,4.713,0,0,1-.319-0.531,0.439,0.439,0,0,1-.051-0.2,1.026,1.026,0,0,1,.143-0.666,0.49,0.49,0,0,0,.077-0.262,2.527,2.527,0,0,1,.133-0.673,2.843,2.843,0,0,0,.056-0.688,0.148,0.148,0,0,0-.069-0.11,1.961,1.961,0,0,0-.248-0.1l0,0L36.909,55.1l-0.04.014,0.023-.029a0.772,0.772,0,0,0-.517-0.248,2.982,2.982,0,0,1-.6-0.078,3.172,3.172,0,0,0-.663.058c-0.178-.008-0.358.031-0.536,0.031a1.5,1.5,0,0,1-.329-0.053,0.059,0.059,0,0,1-.043-0.1,0.912,0.912,0,0,0,.273-0.755,1.94,1.94,0,0,1,.041-0.416,0.134,0.134,0,0,1,.124-0.136,0.269,0.269,0,0,0,.268-0.258,2.144,2.144,0,0,0,.059-0.482,0.76,0.76,0,0,1,.195-0.571,3.326,3.326,0,0,0,.246-0.331,0.818,0.818,0,0,0,.076-0.194,0.269,0.269,0,0,0-.2-0.307,1.7,1.7,0,0,0-.8.064,1.629,1.629,0,0,1-.657.12,0.449,0.449,0,0,0-.414.305,2.055,2.055,0,0,0-.116.325,1.641,1.641,0,0,1-.479.9c-0.083.275-.249,0.268-0.471,0.179a0.56,0.56,0,0,0-.329.013c-0.216.059-.423,0.158-0.641,0.208a0.453,0.453,0,0,1-.5-0.117,0.861,0.861,0,0,0-.4-0.252,0.628,0.628,0,0,1-.372-0.38,2.43,2.43,0,0,0-.383-0.655A0.638,0.638,0,0,1,29.6,51.64c-0.035-.207-0.076-0.411-0.1-0.618a2.236,2.236,0,0,1-.026-0.418,9.258,9.258,0,0,1,.177-1.454,0.607,0.607,0,0,1,.1-0.255,0.827,0.827,0,0,0,.171-0.651,2.319,2.319,0,0,1,.14-0.96,0.772,0.772,0,0,1,.545-0.57,1.566,1.566,0,0,0,.835-0.411,1.736,1.736,0,0,1,.6-0.279,0.694,0.694,0,0,1,.527.04,0.48,0.48,0,0,0,.393.02,0.253,0.253,0,0,1,.356.089,0.54,0.54,0,0,0,.651.227,1.706,1.706,0,0,0,.362-0.148,2.279,2.279,0,0,0,.092-0.394,0.254,0.254,0,0,1,.207-0.234,1.54,1.54,0,0,1,.264-0.048,7.211,7.211,0,0,1,.942.011,1.043,1.043,0,0,1,.914.349,0.261,0.261,0,0,0,.315.039c0.083-.034.163-0.077,0.248-0.107a0.219,0.219,0,0,1,.247.065c0.146,0.176.282,0.363,0.42,0.547a0.333,0.333,0,0,1,.044.329c-0.023.066-.04,0.135-0.067,0.2a0.344,0.344,0,0,0,.04.39,9.2,9.2,0,0,0,.443,1.088,1.746,1.746,0,0,0,.316.449,0.262,0.262,0,0,0,.41-0.042,2.163,2.163,0,0,0,.3-0.922,0.372,0.372,0,0,0-.007-0.139c-0.052-.178-0.126-0.351-0.163-0.533s-0.041-.366-0.06-0.551a0.25,0.25,0,0,0-.02-0.067,3.619,3.619,0,0,1-.129-1.66,0.487,0.487,0,0,1,.09-0.258,1.748,1.748,0,0,1,.83-0.682c0.044-.012.085-0.033,0.127-0.047a0.71,0.71,0,0,0,.324-0.243c0.074-.088.132-0.19,0.208-0.275a0.529,0.529,0,0,1,.208-0.168,0.943,0.943,0,0,0,.392-0.26,1.278,1.278,0,0,1,.642-0.365,0.238,0.238,0,0,0,.194-0.249,0.178,0.178,0,0,1,.122-0.146,1.3,1.3,0,0,0,.212-0.169,0.158,0.158,0,0,0,.046-0.187,0.29,0.29,0,0,1-.047-0.315,0.529,0.529,0,0,0,0-.534,0.374,0.374,0,0,1-.052-0.2c0.008-.208.028-0.414,0.047-0.621a0.068,0.068,0,0,1,.053-0.026,0.1,0.1,0,0,1,.059.023,0.374,0.374,0,0,1,.078.32,0.185,0.185,0,0,0,.077.095,0.073,0.073,0,0,0,.058-0.027c0.117-.171.238-0.339,0.34-0.517a0.8,0.8,0,0,0,.068-0.266,1.95,1.95,0,0,0,.006-0.208,0.076,0.076,0,0,1,.093-0.077,0.373,0.373,0,0,0,.288-0.156,1.376,1.376,0,0,0,.38-0.728,0.332,0.332,0,0,1,.372-0.312,2.381,2.381,0,0,0,.4-0.071,0.67,0.67,0,0,0,.178-0.095,0.065,0.065,0,0,0,0-.113,0.4,0.4,0,0,0-.129-0.036c-0.062,0-.09-0.025-0.071-0.075a0.106,0.106,0,0,1,.063-0.015,0.252,0.252,0,0,1,.067,0,8.409,8.409,0,0,0,1.131-.134,0.355,0.355,0,0,0,.168-0.109c0.14-.112.133-0.164-0.033-0.28a0.347,0.347,0,0,1-.167-0.343,3.969,3.969,0,0,1,.155-0.461,1.046,1.046,0,0,1,.558-0.58,1.2,1.2,0,0,0,.411-0.236,0.388,0.388,0,0,1,.309-0.115,3.049,3.049,0,0,0,.855-0.174,0.231,0.231,0,0,0,.15-0.2,0.24,0.24,0,0,1,.143-0.131c0.216-.06.436-0.1,0.656-0.149a0.086,0.086,0,0,1,.054.025,0.2,0.2,0,0,1-.04.111c-0.078.045-.167,0.066-0.246,0.108a0.848,0.848,0,0,0-.412.444,0.515,0.515,0,0,0-.031.27,0.49,0.49,0,0,0,.231.329,0.161,0.161,0,0,0,.126.022,1.663,1.663,0,0,0,.7-0.531,0.347,0.347,0,0,1,.4-0.176l1.025-.345c0.106-.036.21-0.076,0.316-0.114,0.052-.251.292-0.174,0.434-0.267,0.057-.037.124-0.055,0.184-0.086a1.328,1.328,0,0,0,.111-0.077,0.169,0.169,0,0,0,.038-0.187,0.4,0.4,0,0,1-.173-0.477,0.145,0.145,0,0,0-.02-0.065,0.137,0.137,0,0,0-.171-0.062,3.4,3.4,0,0,0-.559.692,0.168,0.168,0,0,1-.216.094,1.642,1.642,0,0,0-.194-0.037,0.1,0.1,0,0,1-.12.062,0.609,0.609,0,0,1-.141-0.07c-0.064-.01-0.127-0.024-0.191-0.03A0.238,0.238,0,0,1,50,34.475a0.418,0.418,0,0,1-.4-0.428,1.137,1.137,0,0,1,.066-0.668c0.042-.09-0.011-0.163-0.124-0.194-0.043-.012-0.089-0.006-0.133-0.014a0.208,0.208,0,0,1-.058-0.032c0.039-.014.08-0.025,0.119-0.041a1.376,1.376,0,0,0,.459-0.275,0.3,0.3,0,0,0,.058-0.32,0.663,0.663,0,0,0-.156-0.22,0.727,0.727,0,0,0-.63-0.16,4.944,4.944,0,0,0-1.728.66,0.193,0.193,0,0,0,0,.026l-0.036.006-0.219.237c0,0.013,0,.024-0.005.039l-0.294.113-0.159.127-0.013.035,0.012-.054,0.146-.126,0.29-.11,0.024-.025c0.026-.191.042-0.207,0.219-0.237l0.021-.022,0.015-.01A0.334,0.334,0,0,1,47.59,32.5a2.043,2.043,0,0,1,.754-0.444,0.563,0.563,0,0,0,.409-0.326,0.3,0.3,0,0,1,.078-0.113,3.383,3.383,0,0,1,.412-0.355,0.753,0.753,0,0,1,.46.009,14.853,14.853,0,0,1,1.87.192c0.271,0.041.529-.092,0.8-0.042a0.438,0.438,0,0,0,.2-0.037,0.929,0.929,0,0,0,.184-0.084A1.3,1.3,0,0,0,53.2,30.9a0.55,0.55,0,0,1,.4-0.239,2.685,2.685,0,0,1,.333-0.052,1.5,1.5,0,0,0,.847-0.382,0.348,0.348,0,0,0,.14-0.427,0.378,0.378,0,0,1-.011-0.33,0.99,0.99,0,0,0,.088-0.261,0.327,0.327,0,0,0-.03-0.2,0.456,0.456,0,0,0-.475-0.288,0.038,0.038,0,0,1,0,0l-0.042.024,0.03-.029h0.012a1.392,1.392,0,0,0-.031-0.2,0.293,0.293,0,0,0-.229-0.229c-0.066-.012-0.134-0.009-0.2-0.016a0.336,0.336,0,0,1-.064-0.019,0.4,0.4,0,0,1,.079-0.066c0.06-.028.127-0.042,0.186-0.072a0.163,0.163,0,0,0,.038-0.241A0.283,0.283,0,0,0,54,27.692a0.193,0.193,0,0,1-.131-0.009,1.576,1.576,0,0,0-.621-0.394,0.176,0.176,0,0,1-.089-0.1,1.07,1.07,0,0,0-.393-0.551,2.5,2.5,0,0,1-.216-0.265,0.183,0.183,0,0,1-.006-0.254c0.076-.085.159-0.165,0.235-0.25a0.2,0.2,0,0,0,.021-0.254,0.663,0.663,0,0,1-.125-0.52,0.249,0.249,0,0,0-.092-0.174,1.421,1.421,0,0,0-.139-0.3,0.376,0.376,0,0,1-.038-0.261,2.561,2.561,0,0,1-.032-0.338,2.329,2.329,0,0,0-.1-0.405,3.99,3.99,0,0,1-.2-0.951,1.592,1.592,0,0,0-.048-0.275,0.182,0.182,0,0,0-.1-0.069,0.064,0.064,0,0,0-.061.018,8.433,8.433,0,0,0-.513.811,1.22,1.22,0,0,1-.621.7,1.7,1.7,0,0,0-.211.17,1.915,1.915,0,0,1-.3.153,0.3,0.3,0,0,1-.312-0.077,0.446,0.446,0,0,1-.154-0.222,0.435,0.435,0,0,0-.225-0.248,0.345,0.345,0,0,1-.154-0.361,1.485,1.485,0,0,0,.063-0.68A0.392,0.392,0,0,1,49.5,22.4a3.084,3.084,0,0,1,.278-0.633,0.129,0.129,0,0,0-.072-0.172,3.6,3.6,0,0,0-.544-0.233,0.61,0.61,0,0,1-.241-0.118,0.17,0.17,0,0,1-.085-0.173,0.262,0.262,0,0,0-.029-0.2,1.431,1.431,0,0,1-.269-0.479,1.13,1.13,0,0,0-.18-0.29,0.347,0.347,0,0,0-.462-0.166,0.443,0.443,0,0,1-.262.026,1.73,1.73,0,0,1-.763-0.235,0.91,0.91,0,0,0-.31-0.131,0.55,0.55,0,0,0-.648.362,0.539,0.539,0,0,0,.016.472,0.281,0.281,0,0,1,0,.326,2.343,2.343,0,0,0-.312.452,4.128,4.128,0,0,0,.05.611,0.583,0.583,0,0,0,.03.276,0.271,0.271,0,0,1-.156.339,0.407,0.407,0,0,0-.164.117,3.054,3.054,0,0,1-.565.688,0.292,0.292,0,0,0,0,.383c0.067,0.094.147,0.178,0.209,0.275a0.733,0.733,0,0,1,.111.251c0.045,0.252.063,0.509,0.111,0.761a5.263,5.263,0,0,0-.042.827,0.157,0.157,0,0,1-.066.106,2.315,2.315,0,0,0-.274.2,2.765,2.765,0,0,1-.964.629c-0.166.071-.334,0.14-0.5,0.208a0.262,0.262,0,0,0-.169.272,4.123,4.123,0,0,1-.009.839,4.094,4.094,0,0,0-.059.554c0,0.183.022,0.367,0.027,0.551a0.485,0.485,0,0,1-.032.2,3.392,3.392,0,0,1-.194.369,0.13,0.13,0,0,1-.1.059,0.41,0.41,0,0,0-.347.173,0.183,0.183,0,0,1-.237-0.052c-0.029-.062-0.051-0.127-0.078-0.191a0.886,0.886,0,0,0-.14-0.311,2.758,2.758,0,0,1-.45-0.771,0.265,0.265,0,0,1,0-.264,2.077,2.077,0,0,0,.28-1,1.117,1.117,0,0,1,.093-0.334c0.033-.111.066-0.222,0.1-0.334a0.2,0.2,0,0,0-.089-0.173,8.957,8.957,0,0,0-1.062-.174,0.273,0.273,0,0,1-.234-0.119,1.616,1.616,0,0,0-.615-0.533,1.132,1.132,0,0,1-.521-0.527,1.465,1.465,0,0,0-.563-0.59c-0.212-.131-0.429-0.255-0.644-0.38A0.419,0.419,0,0,0,38.02,24.1a1.409,1.409,0,0,1-.569.105l-0.009.015-0.023.018,0.008-.035c0.008,0,.016,0,0.024,0a0.879,0.879,0,0,0,.164-0.568c-0.025-.253-0.013-0.509-0.022-0.763a1.183,1.183,0,0,0-.039-0.273,0.144,0.144,0,0,0-.094-0.087,1.8,1.8,0,0,0-.264-0.027,0.187,0.187,0,0,1-.188-0.154,0.493,0.493,0,0,1-.017-0.2c0.033-.134.1-0.259,0.128-0.394a2.532,2.532,0,0,1,.793-1.485,1.794,1.794,0,0,0,.252-0.322,1.887,1.887,0,0,1,.876-0.823,1.222,1.222,0,0,0,.461-0.57,0.119,0.119,0,0,1,.147-0.1,2,2,0,0,0,.264.047,0.384,0.384,0,0,0,.4-0.373,3.216,3.216,0,0,0-.019-0.328H40.279l-0.034-.028,0.051,0.01c0,0.006,0,.012,0,0.018a0.586,0.586,0,0,0,.68-0.388,0.126,0.126,0,0,1,.169-0.062c0.105,0.038.2,0.091,0.309,0.129a0.288,0.288,0,0,0,.315-0.044q0.513-.494,1.017-1a0.185,0.185,0,0,0,.038-0.128,0.258,0.258,0,0,1,.1-0.236c0.156-.128.308-0.259,0.462-0.389l0.124-.128,0.01-.011,0.086-.086c0.172-.174.174-0.176,0.055-0.408a0.481,0.481,0,0,1-.028-0.063,0.073,0.073,0,0,1,.051-0.11,0.359,0.359,0,0,1,.487.221,0.092,0.092,0,0,0,.049.044,1.112,1.112,0,0,0,.971.022,2.41,2.41,0,0,0,.617-0.417,0.536,0.536,0,0,1,.219-0.148,0.53,0.53,0,0,0,.331-0.32,0.414,0.414,0,0,0,.051-0.333,1.629,1.629,0,0,0-.084-0.265,0.536,0.536,0,0,1-.022-0.4c0.036-.131.056-0.267,0.083-0.4l-0.016,0-0.031-.015,0.048,0.011s0,0,0,.007a1.05,1.05,0,0,0,.243.033,0.328,0.328,0,0,0,.356-0.383,0.392,0.392,0,0,1,.075-0.25,0.281,0.281,0,0,0-.03-0.359,0.393,0.393,0,0,1-.265-0.4,0.2,0.2,0,0,0-.235-0.239,0.185,0.185,0,0,1-.179-0.211,0.546,0.546,0,0,1-.4-0.14,0.071,0.071,0,0,1,0-.012l-0.017,0,0.02,0.02a0.5,0.5,0,0,1-.129.035,0.357,0.357,0,0,0-.383.306,1.107,1.107,0,0,0-.107.6,0.111,0.111,0,0,1-.024.126c-0.079.078-.155,0.16-0.233,0.24a0.457,0.457,0,0,0-.367.353,2.2,2.2,0,0,1-.16.3,0.253,0.253,0,0,1-.219.117c0,0.006,0,.012.008,0.018l-0.028.03,0.012-.046,0.008,0a0.258,0.258,0,0,0-.148-0.189c-0.077-.02-0.145.084-0.184,0.252a0.447,0.447,0,0,0,.009.271,0.282,0.282,0,0,1-.052.261,0.225,0.225,0,0,1-.237.089,0.278,0.278,0,0,1-.143-0.131,2.279,2.279,0,0,1-.086-0.409,0.725,0.725,0,0,1,.227-0.689,0.372,0.372,0,0,0,.107-0.247,1.385,1.385,0,0,0-.2-0.864,0.122,0.122,0,0,0-.179,0,1.436,1.436,0,0,0-.338.515,0.552,0.552,0,0,1-.2.272,0.114,0.114,0,0,1-.06.026,0.058,0.058,0,0,1-.064-0.082,1.649,1.649,0,0,0,.113-0.683c-0.012-.126.087-0.132,0.166-0.171a0.152,0.152,0,0,0,.032-0.272,0.691,0.691,0,0,0-.347-0.2,0.591,0.591,0,0,1-.3-0.143c-0.046-.036-0.066-0.075-0.028-0.118,0.118-.138.238-0.274,0.363-0.4a0.325,0.325,0,0,1,.119-0.044c0.167-.062.207-0.105,0.179-0.227a2.146,2.146,0,0,1,.008-1.3,0.331,0.331,0,0,0,0-.205,6.787,6.787,0,0,0-.176-0.813A0.175,0.175,0,0,1,43,7.257c0.164-.121.319-0.256,0.48-0.383a0.5,0.5,0,0,0,.189-0.356,0.247,0.247,0,0,1,.05-0.126,0.148,0.148,0,0,1,.107-0.062,2.082,2.082,0,0,1,.3.148A0.33,0.33,0,0,0,44.5,6.444a1.641,1.641,0,0,0,.212-0.172q0.466-.455.925-0.917A1.349,1.349,0,0,0,45.8,5.133a0.306,0.306,0,0,0-.1-0.368,0.212,0.212,0,0,0-.061-0.028A1.3,1.3,0,0,1,44.924,4.4a0.583,0.583,0,0,0-.245-0.1,1.393,1.393,0,0,0-.6,0,0.349,0.349,0,0,0-.175.094,0.8,0.8,0,0,1-.333.324c-0.082.139-.167,0.275-0.244,0.418-0.12.223-.241,0.447-0.348,0.678a1,1,0,0,0-.12.4,2.628,2.628,0,0,1-.241.866,0.289,0.289,0,0,1-.118.155c-0.131.089-.254,0.191-0.384,0.281a0.292,0.292,0,0,0-.089.3l0.017,0a0.113,0.113,0,0,0,0,.029l0.026,0.017c-0.016.02-.023,0.009-0.026-0.017l-0.019-.013s0-.008,0-0.012a1,1,0,0,0-.3.094,1.179,1.179,0,0,0-.518.844,0.528,0.528,0,0,1-.149.365,0.8,0.8,0,0,0-.091.1,0.583,0.583,0,0,0-.129.45,0.838,0.838,0,0,0,.146.451,0.978,0.978,0,0,1,.105.228,0.648,0.648,0,0,1,.169.058c0.132,0.082.257,0.176,0.384,0.267a0.084,0.084,0,0,1,.039.047c0,0.044-.032.056-0.084,0.066a0.328,0.328,0,0,0-.177.068c-0.1.117-.191,0.25-0.284,0.377a0.143,0.143,0,0,0,.085.215,0.541,0.541,0,0,0,.113.034l0-.014,0.052-.016-0.035.034-0.014,0a0.272,0.272,0,0,1-.047.249c-0.11.116-.226,0.225-0.344,0.331a0.727,0.727,0,0,1-.481.22,0.419,0.419,0,0,0-.4.394c-0.039.157-.051,0.321-0.081,0.48a0.3,0.3,0,0,1-.059.09,0.364,0.364,0,0,1-.045-0.047c-0.05-.076-0.1-0.153-0.149-0.231a0.218,0.218,0,0,1,.011-0.311c0.12-.168.241-0.334,0.359-0.5a0.124,0.124,0,0,0-.061-0.167,0.34,0.34,0,0,1-.314-0.377l-0.058-.06,0.058,0.06h0l0.02,0.021-0.02-.022c0.086,0.023.174,0.043,0.259,0.07a0.339,0.339,0,0,0,.261,0c0.142-.068.287-0.13,0.426-0.2a0.15,0.15,0,0,0,.061-0.111c0-.162-0.017-0.323-0.024-0.484-0.007-.126-0.008-0.146.142-0.172a0.283,0.283,0,0,0,.224-0.342c-0.036,0-.072,0-0.109,0a0.55,0.55,0,0,1-.626-0.4,0.606,0.606,0,0,0-.066-0.119A0.157,0.157,0,0,0,40.091,9.8a1.742,1.742,0,0,0-.236.241,0.992,0.992,0,0,1-.688.492,0.3,0.3,0,0,0-.115.07,0.526,0.526,0,0,0-.046.049,0.148,0.148,0,0,0,0,.189,1.577,1.577,0,0,1,.605.626l-0.023-.018L39.6,11.469a1.611,1.611,0,0,1-.322.062,0.236,0.236,0,0,0-.268.14,0.732,0.732,0,0,1-.176.2,0.229,0.229,0,0,0-.1.173,0.187,0.187,0,0,1-.069.182,0.265,0.265,0,0,1-.258,0c-0.082-.037-0.161-0.084-0.244-0.119a0.521,0.521,0,0,0-.456-0.017,0.752,0.752,0,0,1-.194.055,0.38,0.38,0,0,1-.261-0.041,0.7,0.7,0,0,1-.352-0.313,0.612,0.612,0,0,0-.463-0.364,0.26,0.26,0,0,1-.186-0.186,1.531,1.531,0,0,1-.146-0.672,0.908,0.908,0,0,0-.006-0.209,0.33,0.33,0,0,0-.327-0.29,9.392,9.392,0,0,1-.933.119,0.375,0.375,0,0,0-.286.268,0.286,0.286,0,0,0,.1.308,0.156,0.156,0,0,0,.187.024,0.479,0.479,0,0,1,.109-0.08c0.132-.025.269-0.026,0.4-0.057s0.251-.091.379-0.128a0.158,0.158,0,0,1,.084.069,0.078,0.078,0,0,1-.029.055,1.728,1.728,0,0,0-.367.155,1.118,1.118,0,0,1-.488.22,1.274,1.274,0,0,0-.255.086,0.418,0.418,0,0,0-.27.287,3.872,3.872,0,0,0-.144.681,0.316,0.316,0,0,1-.1.176,0.224,0.224,0,0,1-.166.079C33.927,12.3,33.969,12.223,34,12.161a0.351,0.351,0,0,0,0-.333c-0.068-.147-0.131-0.3-0.2-0.443-0.058-.126-0.119-0.25-0.18-0.374a0.25,0.25,0,0,0-.226-0.12c-0.087.02-.173,0.05-0.26,0.07a2.016,2.016,0,0,1-1.836-.43,0.181,0.181,0,0,1-.009-0.192,0.372,0.372,0,0,1,.318-0.223c0.068,0,.134,0,0.2,0a0.321,0.321,0,0,0,.355-0.433,1.507,1.507,0,0,0-.142-0.388,0.441,0.441,0,0,0-.435-0.278A0.774,0.774,0,0,1,30.978,8.8c-0.247-.2-0.487-0.414-0.74-0.607a0.753,0.753,0,0,1-.34-0.5,0.677,0.677,0,0,0-.476-0.536,0.4,0.4,0,0,0-.539.12,0.757,0.757,0,0,1-.2.181,0.45,0.45,0,0,1-.193.036c-0.075,0-.148-0.086-0.111-0.135a1.569,1.569,0,0,0,.264-0.771,0.084,0.084,0,0,0-.035-0.054,0.069,0.069,0,0,0-.054-0.021,0.784,0.784,0,0,0-.175.1c-0.19.162-.373,0.333-0.564,0.494a0.146,0.146,0,0,1-.126.018,0.144,0.144,0,0,1-.08-0.095,1.322,1.322,0,0,1,.024-0.554A3.018,3.018,0,0,0,27.708,5.5a0.509,0.509,0,0,0-.056-0.2,0.11,0.11,0,0,0-.11-0.018,0.359,0.359,0,0,0-.143.3,0.334,0.334,0,0,1-.161.287c-0.136.08-.267,0.17-0.406,0.246a0.2,0.2,0,0,1-.245-0.049C26.562,6.045,26.533,6.02,26.5,5.995V6L26.452,6c-0.037.027-.074,0.055-0.113,0.078a0.064,0.064,0,0,1-.06,0c-0.044-.034-0.029-0.054.038-0.06,0.046,0,.09-0.012.135-0.019l0.036-.025L26.5,5.995c0.018-.065.04-0.13,0.054-0.2a0.145,0.145,0,0,0-.078-0.171,0.613,0.613,0,0,0-.456-0.018,2.792,2.792,0,0,1-1.031.265,0.534,0.534,0,0,0-.312.106,0.717,0.717,0,0,1-.619.119l-0.013.014-0.019.033,0.016-.05,0.016,0a0.427,0.427,0,0,0,.033-0.036,0.193,0.193,0,0,0,.011-0.249c-0.057-.081-0.111-0.091-0.227-0.023a0.606,0.606,0,0,1-.239.111,1.908,1.908,0,0,0-.451.113,0.476,0.476,0,0,0-.338.391c-0.013.091-.085,0.123-0.135,0.088L22.44,6.3a0.678,0.678,0,0,1-.268-0.386c-0.042-.155-0.09-0.309-0.145-0.46-0.038-.1-0.092-0.2-0.14-0.306a2.654,2.654,0,0,0-.536-0.4,1.5,1.5,0,0,1-.672-0.754,0.468,0.468,0,0,0-.072-0.118,0.307,0.307,0,0,0-.223-0.141,2.16,2.16,0,0,0-.269-0.011,0.708,0.708,0,0,1-.492-0.2,2.282,2.282,0,0,0-.671-0.461,1.018,1.018,0,0,1-.32-0.251,1.187,1.187,0,0,1-.265-0.4,0.331,0.331,0,0,0-.394-0.2c-0.11.021-.218,0.056-0.328,0.079a0.154,0.154,0,0,1-.169-0.081c-0.1-.177-0.1-0.4-0.2-0.575a0.165,0.165,0,0,1,.045-0.121,0.188,0.188,0,0,0,.046-0.191,0.328,0.328,0,0,0-.128-0.152,1.705,1.705,0,0,0-.312-0.121,1.731,1.731,0,0,0-.2-0.033C16.621,1,16.6.971,16.617,0.817a0.218,0.218,0,0,0-.1-0.278,0.07,0.07,0,0,1,0,.008,0.219,0.219,0,0,0-.05,0l-0.194.068L16.2,0.661l-0.02,0a0.443,0.443,0,0,1-.025.116,0.129,0.129,0,0,1-.213.064A0.233,0.233,0,0,1,15.891.728,0.082,0.082,0,0,1,15.94.69c0.081-.011.163-0.018,0.244-0.026,0-.006,0-0.013,0-0.019l0.089-.031A0.335,0.335,0,0,1,16.47.545l0.035-.013c0.005,0,.007.005,0.011,0.007A1.02,1.02,0,0,0,16.248.074,0.216,0.216,0,0,0,16,.017a1.3,1.3,0,0,0-.425.208,0.642,0.642,0,0,1-.639.1L14.552,0.2a0.508,0.508,0,0,0-.545.184c-0.046.047-.059,0.126-0.1,0.179a0.316,0.316,0,0,1-.151.125,1.151,1.151,0,0,1-.53.059,0.821,0.821,0,0,0-.7.145,6.936,6.936,0,0,0-1.16.839,0.785,0.785,0,0,1-.155.134,1.271,1.271,0,0,1-1.391.2A0.392,0.392,0,0,0,9.752,2.04a0.35,0.35,0,0,0-.474.136,2.9,2.9,0,0,1-.3.375,0.438,0.438,0,0,0-.142.551c0.058,0.151.083,0.316,0.136,0.469a1.5,1.5,0,0,1-.039,1.282,0.279,0.279,0,0,0,.1.309C9.145,5.24,9.269,5.3,9.379,5.371a0.2,0.2,0,0,1,.035.117,0.144,0.144,0,0,1-.057.021,0.148,0.148,0,0,0-.152.112c-0.022.184-.035,0.369-0.04,0.554a0.14,0.14,0,0,0,.093.086,0.731,0.731,0,0,0,.169.013A0.16,0.16,0,0,1,9.435,6.25L9.458,6.261c0.005-.041.011-0.082,0.017-0.123l-0.011,0L9.438,6.11,9.476,6.13V6.138a0.867,0.867,0,0,1,.559.055,0.141,0.141,0,0,1,.048.177,0.136,0.136,0,0,1-.1.065,1.552,1.552,0,0,1-.529-0.174l0,0.015H9.427C9.4,6.351,9.413,6.456,9.306,6.468a0.718,0.718,0,0,0-.372.146,0.339,0.339,0,0,1-.383.015C8.409,6.558,8.274,6.475,8.138,6.393a0.158,0.158,0,0,1-.061-0.232c0.049-.078.105-0.151,0.152-0.231a0.244,0.244,0,0,0-.2-0.353,2.817,2.817,0,0,0-.534.03,0.5,0.5,0,0,0-.3.146,0.33,0.33,0,0,1-.354.114,1.367,1.367,0,0,0-.328.048,4.73,4.73,0,0,0-.859.391A0.2,0.2,0,0,0,5.58,6.6c0.1,0.152.212,0.3,0.318,0.449,0.037,0.052.011,0.086-.1,0.135a0.217,0.217,0,0,0-.108.061c-0.04.232-.166,0.431-0.226,0.652a0.374,0.374,0,0,0,.037.267,0.647,0.647,0,0,0,.661.381,0.8,0.8,0,0,1,.7.159,0.311,0.311,0,0,0,.374.04c0.222-.112.451-0.209,0.682-0.3a0.4,0.4,0,0,1,.2.017,0.07,0.07,0,0,1,.039.046,0.075,0.075,0,0,1-.006.064,0.314,0.314,0,0,1-.113.07c-0.117.033-.211,0.072-0.176,0.233a0.332,0.332,0,0,1-.009.2,2,2,0,0,0-.209.586,0.7,0.7,0,0,1-.605.468,0.256,0.256,0,0,1-.127-0.042,1.853,1.853,0,0,1-.215-0.163,0.464,0.464,0,0,0-.136-0.139c-0.072,0-.06.1-0.081,0.158a0.654,0.654,0,0,1-.56.437,0.174,0.174,0,0,1-.12-0.046,0.55,0.55,0,0,1-.076-0.114,0.269,0.269,0,0,0-.389-0.138,1.087,1.087,0,0,0-.6.627,0.191,0.191,0,0,1-.077.11,9.959,9.959,0,0,0-1.027.888,0.651,0.651,0,0,0-.25.737c0.028,0.112.05,0.225,0.081,0.336A0.32,0.32,0,0,1,3.4,13.1a0.662,0.662,0,0,0-.142.71c0.045,0.156.073,0.318,0.117,0.475a0.269,0.269,0,0,0,.187.185,0.551,0.551,0,0,0,.259.041,1.528,1.528,0,0,1,.515-0.063l0-.018c0.006-.014.011-0.029,0.017-0.043,0-.048,0-0.1.008-0.144a0.112,0.112,0,0,1,.009-0.066c0.042-.029.062,0,0.041,0.063-0.016.05-.037,0.1-0.057,0.146,0,0.021,0,.041,0,0.062H4.331a2.251,2.251,0,0,0-.046.326,0.546,0.546,0,0,1-.21.417,0.248,0.248,0,0,0-.044.318,0.284,0.284,0,0,1-.016.264,1.9,1.9,0,0,1-.108.172c-0.047.079-.032,0.135,0.036,0.157a0.355,0.355,0,0,0,.52-0.13,0.075,0.075,0,0,1,.058-0.027,1.191,1.191,0,0,1,.47.569,0.08,0.08,0,0,0,.148.024c0.015-.018.024-0.04,0.038-0.058,0.108-.14.11-0.133,0.314-0.051a0.475,0.475,0,0,0,.192.027,1.764,1.764,0,0,0,.2-0.037,0.093,0.093,0,0,1,.062.015c0.037,0.026.037,0.072-.011,0.107a1.4,1.4,0,0,0-.41.538A2.507,2.507,0,0,1,4.5,18.245c-0.156.083-.287,0.209-0.459,0.282-0.269.114-.513,0.289-0.774,0.424a1.011,1.011,0,0,0-.4.359,0.178,0.178,0,0,1-.236.064,0.634,0.634,0,0,0-.579.1,3.388,3.388,0,0,0-.436.327,1.24,1.24,0,0,1-.79.349c-0.112.006-.223,0.032-0.335,0.039a0.668,0.668,0,0,0-.474.352,0.148,0.148,0,0,0,.011.126,0.153,0.153,0,0,0,.106.067,0.454,0.454,0,0,0,.2-0.035,1.787,1.787,0,0,1,.4-0.041,0.459,0.459,0,0,0,.246-0.1,0.678,0.678,0,0,1,.54-0.232,0.7,0.7,0,0,0,.636-0.43l-0.01-.017,0.038-.015-0.024.025a0.051,0.051,0,0,0,0,.007c0.055,0.093.11,0.186,0.166,0.279,0.042,0.07.043,0.069,0.114-.062A0.249,0.249,0,0,1,2.492,20a2.118,2.118,0,0,1,.581-0.114,0.251,0.251,0,0,0,.242-0.021,1.135,1.135,0,0,1,.354-0.193,0.767,0.767,0,0,0,.53-0.383c0.153-.094.3-0.2,0.461-0.276a0.376,0.376,0,0,1,.19.017,0.314,0.314,0,0,1,.1-0.151,3.382,3.382,0,0,0,.427-0.2,0.553,0.553,0,0,0,.332-0.32,0.35,0.35,0,0,1,.135-0.147A3.323,3.323,0,0,1,6.8,17.717,0.955,0.955,0,0,0,7.4,17.311a0.949,0.949,0,0,1,.268-0.2c0.075-.05.159-0.086,0.235-0.135a0.274,0.274,0,0,0,.106-0.36c-0.028-.062-0.07-0.118-0.1-0.181a0.2,0.2,0,0,1,.037-0.251A0.486,0.486,0,0,1,8.424,16a0.324,0.324,0,0,0,.308-0.081,0.776,0.776,0,0,0,.335-0.416,0.276,0.276,0,0,1,.256-0.194,0.268,0.268,0,0,0,.227-0.126,2,2,0,0,1,1.018-.747,0.214,0.214,0,0,1,.283.2,0.719,0.719,0,0,1-.008.207,0.117,0.117,0,0,1-.093.062,0.67,0.67,0,0,0-.758.046,0.35,0.35,0,0,0-.139.141,2.764,2.764,0,0,1-.594.837,0.208,0.208,0,0,0,.008.309c0.049,0.047.052,0.075-.006,0.106-0.119.063-.239,0.126-0.356,0.193a0.152,0.152,0,0,0-.04.187,0.249,0.249,0,0,0,.146.119,0.708,0.708,0,0,0,.323-0.078,2.759,2.759,0,0,1,.621-0.261,1.283,1.283,0,0,0,.251-0.1,0.894,0.894,0,0,1,.634-0.172,0.376,0.376,0,0,0,.184-0.072,0.683,0.683,0,0,0,.243-0.233c0.067-.09.145-0.06,0.214,0.006h0.135a0.211,0.211,0,0,0-.049-0.28,0.507,0.507,0,0,1-.141-0.221,0.31,0.31,0,0,1,.1-0.364c0.065-.058.132-0.064,0.159,0.012a0.227,0.227,0,0,0,.281.2,2.316,2.316,0,0,1,.317-0.025V15.256l0.029-.024-0.019.036H12.285a1,1,0,0,0,.006.2,0.669,0.669,0,0,0,.428.576,0.61,0.61,0,0,1,.326.337c0.031,0.061.041,0.135,0.073,0.2a0.288,0.288,0,0,0,.209.16,1.472,1.472,0,0,0,.267.03,0.756,0.756,0,0,1,.553.217,0.95,0.95,0,0,0,.168.105l-0.008-.01,0.028-.016-0.015.029,0,0a1.894,1.894,0,0,0,.116.154,0.5,0.5,0,0,0,.538.2,0.1,0.1,0,0,1,.063.013,0.071,0.071,0,0,1,.042.108,0.264,0.264,0,0,0,0,.42,1.147,1.147,0,0,0,.178.2,0.262,0.262,0,0,1,.182.249,1.49,1.49,0,0,0,.034.276,1.044,1.044,0,0,0,.264.554,0.335,0.335,0,0,0,.3.119,0.167,0.167,0,0,0,.147-0.191c-0.014-.068-0.039-0.133-0.056-0.2a0.1,0.1,0,0,1,0-.066c0.027-.046.057-0.034,0.082,0.031a0.922,0.922,0,0,1,.092.257,0.644,0.644,0,0,0,.186.36,0.075,0.075,0,0,1,.014.06,0.069,0.069,0,0,1-.114.023,0.451,0.451,0,0,0-.117-0.065,0.276,0.276,0,0,0-.336.153,0.711,0.711,0,0,0-.074.4c0.025,0.137.049,0.275,0.073,0.413l-0.016-.016v0.04l0.013-.02a0.376,0.376,0,0,1,.082.366,1.482,1.482,0,0,0-.065.685,0.079,0.079,0,0,0,.036.055A0.165,0.165,0,0,0,16.1,21.64c0.079-.147.149-0.3,0.221-0.45,0-.022,0-0.044.006-0.067h0.033a0.266,0.266,0,0,1,.255-0.108c0-.006.009-0.009,0.012-0.016h0.015a0.121,0.121,0,0,1,.012-0.051,3.227,3.227,0,0,0,.469-0.813,0.152,0.152,0,0,1,.105-0.021,0.069,0.069,0,0,1,.037.052,0.678,0.678,0,0,1-.013.2q-0.071.227-.163,0.445a0.285,0.285,0,0,0,.067.289l0.028,0c0,0.014,0,.029,0,0.043a0.481,0.481,0,0,1,.091.237,0.143,0.143,0,0,0,.021.017l0.014,0.033-0.028-.017c0-.011-0.005-0.021-0.007-0.032a0.252,0.252,0,0,1-.091-0.237c-0.006-.009-0.009-0.019-0.016-0.027a0.2,0.2,0,0,0-.012-0.02,0.851,0.851,0,0,1-.218-0.048,0.8,0.8,0,0,0-.3-0.054c0,0.005,0,.01,0,0.015H16.614a0.262,0.262,0,0,1-.255.108c0,0.007-.011.011-0.016,0.019l-0.023.046a1.651,1.651,0,0,1-.082.6,0.166,0.166,0,0,0,.13.2,0.526,0.526,0,0,0,.108.017s0-.01,0-0.014l0.039-.04,0.036-.1a0.1,0.1,0,0,1,.011.049,0.554,0.554,0,0,1-.047.048l-0.021.057-0.02,0a0.338,0.338,0,0,0-.015.185,0.34,0.34,0,0,1,.068.315,1.648,1.648,0,0,0-.064.268,0.327,0.327,0,0,0-.007.2,4.849,4.849,0,0,1,.171.518,0.131,0.131,0,0,0,.105.055,0.142,0.142,0,0,0,.1-0.067,1.723,1.723,0,0,0,.194-0.636H17.018c0-.012,0-0.024,0-0.036l-0.037-.032a0.07,0.07,0,0,1,.034.015,0.14,0.14,0,0,1,0,.018l0.021,0.02c0,0.005,0,.01,0,0.016H17.16l-0.01-.017,0.028-.029-0.012.046H17.16L17.3,23.084a0.16,0.16,0,0,1,.018-0.014c0,0.018,0,.037.007,0.055a0.19,0.19,0,0,1,.037.085c0,0.063-.021.063-0.035,0a0.467,0.467,0,0,1,0-.07s0-.01,0-0.015S17.308,23.1,17.3,23.089l0,0a0.244,0.244,0,0,0-.1.278,0.281,0.281,0,0,0,.154.215,0.99,0.99,0,0,0,.193.042c0.084,0.02.113,0.082,0.06,0.143a0.741,0.741,0,0,0-.219.49c0,0.085-.1.078-0.155,0.108-0.084.044-.093,0.089-0.036,0.153,0.153,0.172.144,0.247-.047,0.336-0.045.021-.088,0.034-0.076,0.091a0.25,0.25,0,0,0,.281.232,1.236,1.236,0,0,1,.452-0.121,0.076,0.076,0,0,1,.056.026,0.189,0.189,0,0,1-.01.118,1.959,1.959,0,0,1-.194.185,0.531,0.531,0,0,0-.169.434,0.261,0.261,0,0,0,.077.1L17.548,25.9a0.122,0.122,0,0,0,.03,0l0.021-.033c0.025,0.02.012,0.029-.021,0.033l-0.014.023c0.111,0.122.222,0.245,0.332,0.368a0.237,0.237,0,0,1,.048.246,1.753,1.753,0,0,1-.106.216l-0.01-.005a0.134,0.134,0,0,0,0,.022l0.013-.013a0.553,0.553,0,0,0-.012.2,0.313,0.313,0,0,1-.04.324,0.263,0.263,0,0,0-.027.063l0.191,0.409a0.752,0.752,0,0,1,.319.248,0.665,0.665,0,0,0,.318.245,1.992,1.992,0,0,1,.3.156,0.148,0.148,0,0,1,.077.173,0.617,0.617,0,0,0-.029.409,0.561,0.561,0,0,0,.095.148l0.033-.006-0.02.023-0.013-.017h0l0.027,0.14c0.06,0.011.121,0.018,0.181,0.034a0.235,0.235,0,0,1,.2.164,2.441,2.441,0,0,0,.172.451,0.413,0.413,0,0,1-.038.395,0.258,0.258,0,0,1-.084.107,0.277,0.277,0,0,1-.172.078,1.017,1.017,0,0,1-.541-0.246l0.023,0.017-0.016-.016a1.312,1.312,0,0,0,.189.026,0.2,0.2,0,0,0,.21-0.209,1.765,1.765,0,0,0-.129-0.783,0.333,0.333,0,0,1-.223-0.218c-0.028-.112-0.072-0.221-0.1-0.335a0.594,0.594,0,0,0-.444-0.476,1.208,1.208,0,0,1-.467-0.272,2.839,2.839,0,0,0-.264-0.216,0.511,0.511,0,0,0-.191-0.05,0.145,0.145,0,0,0-.136.123,1.663,1.663,0,0,1,.056.414,0.323,0.323,0,0,0,.07.189c0.094,0.13.211,0.244,0.3,0.379,0.258,0.41.607,0.746,0.861,1.157a0.771,0.771,0,0,0,.151.14l-0.02-.011,0.014,0.014a0.433,0.433,0,0,0-.3.417c0,0.3-.014.608,0,0.911a2.692,2.692,0,0,1-.185,1.093,9.355,9.355,0,0,0-.392,1.117,3.025,3.025,0,0,1-.415,1.026,1.57,1.57,0,0,0-.235.931c0,0.07.006,0.14,0.01,0.21a1.675,1.675,0,0,1-.252,1.065,0.332,0.332,0,0,0-.028.334,1.057,1.057,0,0,1,.082.746,1.264,1.264,0,0,0-.007.347,0.638,0.638,0,0,0,.034.2c0.075,0.194.152,0.387,0.243,0.573a0.4,0.4,0,0,0,.148.133c0.124,0.082.127,0.079,0.088,0.185a1.517,1.517,0,0,0-.076.194,0.422,0.422,0,0,0-.006.2,0.844,0.844,0,0,1,.09.6,0.325,0.325,0,0,0,.037.2c0.107,0.257.218,0.512,0.334,0.764a0.752,0.752,0,0,1,.077.4,0.2,0.2,0,0,0,.154.265,2.812,2.812,0,0,1,1.012.534,0.855,0.855,0,0,1,.441.735,3.322,3.322,0,0,0,.153.751,9.044,9.044,0,0,1,.363,1.27,0.55,0.55,0,0,0,.208.35,2.2,2.2,0,0,1,.476.673,0.4,0.4,0,0,1-.02.4,0.211,0.211,0,0,1-.229.107,0.2,0.2,0,0,0-.066.013,0.139,0.139,0,0,0-.072.169,1.035,1.035,0,0,0,.469.487,2.87,2.87,0,0,1,.683.557,0.408,0.408,0,0,1,.122.315,1.652,1.652,0,0,1-.032.347,0.379,0.379,0,0,0,.118.372,4.55,4.55,0,0,1,.939,1.085,0.161,0.161,0,0,0,.24.013,0.308,0.308,0,0,0,.116-0.305A1.088,1.088,0,0,0,22.75,49.5a4.066,4.066,0,0,1-.4-0.727c-0.034-.112-0.084-0.219-0.107-0.332-0.037-.182-0.052-0.369-0.087-0.552a5.649,5.649,0,0,0-.318-0.529,3.974,3.974,0,0,0-.4-0.88,8.294,8.294,0,0,0-.521-0.9,0.383,0.383,0,0,1-.081-0.19,2.723,2.723,0,0,1,0-1.041c0.016-.059.047-0.085,0.1-0.06,0.123,0.055.245,0.113,0.365,0.174a0.4,0.4,0,0,1,.236.31,4.714,4.714,0,0,0,.193.886A4.555,4.555,0,0,0,22.4,46.87a0.67,0.67,0,0,1,.157.221,0.923,0.923,0,0,0,.351.5c0.1,0.09.208,0.177,0.3,0.276a0.147,0.147,0,0,1,.019.191q-0.039.059-.073,0.118a0.24,0.24,0,0,0,.047.316,2.96,2.96,0,0,0,.391.273,0.415,0.415,0,0,1,.259.37,0.46,0.46,0,0,0,.146.223,3.677,3.677,0,0,1,1.088,1.969,0.42,0.42,0,0,1-.008.2,0.867,0.867,0,0,1-.111.254,0.57,0.57,0,0,0,.022.651,0.767,0.767,0,0,0,.432.417,0.937,0.937,0,0,1,.478.372,0.8,0.8,0,0,0,.5.324c0.087,0.022.179,0.029,0.264,0.058a0.631,0.631,0,0,1,.239.118,2.356,2.356,0,0,0,.989.576,2.182,2.182,0,0,1,.552.257,2.72,2.72,0,0,0,.626.255,1.521,1.521,0,0,0,1.489-.051,0.5,0.5,0,0,1,.568.093,11.018,11.018,0,0,1,1.055.979,0.729,0.729,0,0,0,.524.29,3.837,3.837,0,0,1,.847.221,2.553,2.553,0,0,0,.98.223,0.148,0.148,0,0,1,.154.106,1.807,1.807,0,0,0,.358.5c0.144,0.179.3,0.347,0.437,0.535a0.425,0.425,0,0,1,.086.391,0.3,0.3,0,0,0,.247.412,0.931,0.931,0,0,0,.257.064,0.279,0.279,0,0,1,.19.042,0.845,0.845,0,0,1,.383.469,0.461,0.461,0,0,0,.453.349,0.4,0.4,0,0,0,.2-0.022,0.472,0.472,0,0,1,.549.156,3.782,3.782,0,0,0,.424.338c0.146,0.136.23,0.118,0.411-.027a0.2,0.2,0,0,0,.065-0.245,0.162,0.162,0,0,1,0-.192,2.185,2.185,0,0,0,.4-0.459,0.2,0.2,0,0,1,.183,0,0.781,0.781,0,0,1,.137.085q0.06-.216.113-0.435ZM53.353,28.5a0.077,0.077,0,0,1,.028.053,0.583,0.583,0,0,1-.346.276,0.341,0.341,0,0,1-.055-0.078A0.534,0.534,0,0,1,53.353,28.5Zm-2.888.924,0.014-.044,0.014,0.045H50.465ZM50.3,28.086a0.9,0.9,0,0,0,.325-0.026,0.738,0.738,0,0,1,.638.041,0.17,0.17,0,0,1,.039.111,0.073,0.073,0,0,1-.039.052c-0.08.033-.163,0.061-0.228,0.085a0.991,0.991,0,0,0-.545-0.067,0.393,0.393,0,0,1-.174-0.079,0.084,0.084,0,0,1-.034-0.057A0.077,0.077,0,0,1,50.3,28.086ZM50.13,29.279L50.152,29.3l-0.038-.007Zm-1.614-1.857a0.307,0.307,0,0,1,.029.032l0.034,0.105-0.048-.105C48.485,27.462,48.479,27.451,48.515,27.422Zm-0.449.216a0.885,0.885,0,0,1,.12-0.147c0.014,0.042.03,0.083,0.04,0.126s0.015,0.089.031,0.187c0,0.012-.008.076-0.022,0.138a0.063,0.063,0,0,1-.056.017A0.209,0.209,0,0,1,48.066,27.637Zm-1.237-.687c0.062,0.021.059,0.033-.01,0.031l-0.043-.023A0.126,0.126,0,0,1,46.829,26.95Zm-1.07,3.35a0.092,0.092,0,0,1,.057.022,0.05,0.05,0,0,1,0,.047q-0.139.082-.282,0.158s-0.017-.032-0.027-0.05A0.293,0.293,0,0,1,45.759,30.3Zm-1.177,1.959a0.116,0.116,0,0,1,.05.016,0.083,0.083,0,0,1-.005.042,0.064,0.064,0,0,1-.05.009,0.143,0.143,0,0,1-.04-0.038A0.139,0.139,0,0,1,44.582,32.258Zm-2.7-16.89a0.074,0.074,0,0,1,.063.012,2.114,2.114,0,0,1,.376.557,0.117,0.117,0,0,1-.006.058,0.107,0.107,0,0,1-.052.03,0.561,0.561,0,0,1-.174-0.085,1,1,0,0,1-.263-0.466A0.081,0.081,0,0,1,41.878,15.369Zm-3.539,1.122a0.061,0.061,0,0,1,.053-0.017,0.326,0.326,0,0,1,.236.178l0.021-.008c0.007,0.009.015,0.015,0.022,0.023a0.363,0.363,0,0,1,.226.1c0.012,0,.023,0,0.036,0l0,0.044-0.021-.027c-0.006-.008-0.013-0.012-0.019-0.019a0.3,0.3,0,0,1-.226-0.1l-0.037-.005s0-.006-0.006-0.01c-0.181.073-.22,0.069-0.3-0.052A0.169,0.169,0,0,1,38.339,16.491ZM37.049,16a0.1,0.1,0,0,1,.039.029,0.094,0.094,0,0,1-.047.014C36.983,16.024,36.987,16,37.049,16Zm4.908,15.939a0.09,0.09,0,0,1,.049-0.012,0.154,0.154,0,0,1,.046.038c0.023,0.043,0,.067-0.054.06A0.069,0.069,0,0,1,41.949,32,0.064,0.064,0,0,1,41.957,31.942ZM41.5,36.077a0.111,0.111,0,0,1,.054-0.038,1.375,1.375,0,0,1,.311-0.117,5.256,5.256,0,0,1,.666-0.046,0.49,0.49,0,0,0,.36-0.149,0.319,0.319,0,0,1,.12-0.043,0.244,0.244,0,0,1,.048.044,0.327,0.327,0,0,1-.02.386,0.474,0.474,0,0,1-.578.234,3.077,3.077,0,0,0-.928-0.064,0.126,0.126,0,0,1-.079-0.088A0.217,0.217,0,0,1,41.5,36.077Zm-0.1.649a0.165,0.165,0,0,1-.052.108c-0.235.131-.468,0.267-0.713,0.377a4.7,4.7,0,0,0-.546.253,1.219,1.219,0,0,1-.594.158c-0.062-.038-0.138-0.081-0.21-0.132a0.175,0.175,0,0,1,.024-0.241,0.235,0.235,0,0,1,.054-0.039,1.845,1.845,0,0,0,.855-0.368,0.34,0.34,0,0,1,.319-0.039,0.447,0.447,0,0,0,.385-0.035,2.157,2.157,0,0,1,.313-0.116A0.149,0.149,0,0,1,41.4,36.726Zm-1.924-2.873a5.866,5.866,0,0,1,1.364.361,0.318,0.318,0,0,1,.155.125c0.1,0.181.192,0.369,0.28,0.558a0.284,0.284,0,0,1-.063.258,0.123,0.123,0,0,1-.169.05,1.063,1.063,0,0,1-.349-0.321,0.158,0.158,0,0,0-.11-0.017,0.086,0.086,0,0,0-.032.058,0.681,0.681,0,0,1-.032.206,4.128,4.128,0,0,0-.37.963,0.288,0.288,0,0,1-.091.1,0.1,0.1,0,0,1-.163-0.042c-0.025-.137-0.043-0.275-0.071-0.411a0.2,0.2,0,0,0-.27-0.125,0.934,0.934,0,0,0-.173.107c-0.046.034-.084,0.043-0.115,0a0.066,0.066,0,0,1,0-.06c0.066-.094.14-0.182,0.2-0.277a0.609,0.609,0,0,0,.068-0.6,0.646,0.646,0,0,0-.142-0.229c-0.1-.092-0.224-0.155-0.33-0.242a0.615,0.615,0,0,1-.107-0.149l-0.022.007-0.006,0a1.271,1.271,0,0,0-.307.329,0.368,0.368,0,0,1-.268.187,0.383,0.383,0,0,0-.308.24,2.623,2.623,0,0,0-.336,1.257,1.127,1.127,0,0,1-.521.99,0.171,0.171,0,0,1-.259-0.114,1.751,1.751,0,0,1,.131-1.149,5.49,5.49,0,0,0,.254-0.715A0.424,0.424,0,0,0,37.3,34.86a0.266,0.266,0,0,1,.007-0.132,0.14,0.14,0,0,1,.032-0.06,1.194,1.194,0,0,1,1.179-.662,0.486,0.486,0,0,1,.409.167c0.007-.005.012-0.012,0.019-0.017l0.009,0.014c0.121-.039.243-0.075,0.361-0.122a0.314,0.314,0,0,0,.079-0.1A0.225,0.225,0,0,1,39.474,33.853Zm-0.139-6.122,0.016-.028c0-.05,0-0.1,0-0.149s0.031-.084.071-0.047a0.067,0.067,0,0,1,.007.062c-0.022.046-.049,0.09-0.075,0.134,0,0.015,0,.03,0,0.046L39.3,27.76Zm-1.67,2.9a0.122,0.122,0,0,1,.06-0.013,0.244,0.244,0,0,1,.09.077,0.33,0.33,0,0,1-.045.313,0.108,0.108,0,0,1-.049.032,0.08,0.08,0,0,1-.108-0.05A0.294,0.294,0,0,1,37.665,30.628ZM37.031,29.61v0.041l-0.058-.02ZM36.61,18.06a0.141,0.141,0,0,1,.113-0.046,0.149,0.149,0,0,1,.1.074,0.788,0.788,0,0,1,.031.182c-0.03.071-.07,0.087-0.115,0.051a0.636,0.636,0,0,1-.139-0.142A0.13,0.13,0,0,1,36.61,18.06Zm-0.452-.445,0.019,0.051-0.033.04a0.114,0.114,0,0,1-.017-0.049A0.112,0.112,0,0,1,36.158,17.615Zm-0.226,8.632a0.177,0.177,0,0,1,.052.014,0.1,0.1,0,0,1-.017.038,0.167,0.167,0,0,1-.052-0.015A0.1,0.1,0,0,1,35.932,26.246Zm-0.256,3.845s0.014,0.02.021,0.032l0.011,0.008c0.126,0.012.253,0.019,0.378,0.041,0.042,0.007.045,0.063,0.011,0.106a0.076,0.076,0,0,1-.054.033,0.691,0.691,0,0,1-.336-0.179l-0.021,0C35.644,30.125,35.64,30.112,35.676,30.091Zm0.555,2.44a2.759,2.759,0,0,0,.791-0.381,5.729,5.729,0,0,0,.7-0.4,0.237,0.237,0,0,1,.254-0.043,2.009,2.009,0,0,0,.189.072,0.517,0.517,0,0,1,.456.444,0.334,0.334,0,0,0,.275.275,0.244,0.244,0,0,1,.206.295c0,0.208.042,0.415,0.061,0.624a0.117,0.117,0,0,1-.183.1,0.4,0.4,0,0,0-.248-0.082,4.218,4.218,0,0,0-.535.056,0.444,0.444,0,0,1-.528-0.192,0.507,0.507,0,0,0-.1-0.091c-0.047-.038-0.147-0.034-0.128-0.12a0.588,0.588,0,0,1,.113-0.166,0.079,0.079,0,0,0-.011-0.117,0.116,0.116,0,0,0-.059-0.026,0.453,0.453,0,0,0-.133.007,0.335,0.335,0,0,0-.121.059,2.713,2.713,0,0,1-.848.411,0.325,0.325,0,0,1-.465-0.1,0.4,0.4,0,0,0-.353-0.093c0,0.005-.007.009-0.011,0.015l-0.032,0-0.031.036a0.072,0.072,0,0,1,.014-0.034,0.084,0.084,0,0,1,.016,0l0.018-.021a0.207,0.207,0,0,0,.025,0A1.273,1.273,0,0,1,36.231,32.532ZM35.5,27.119a0.056,0.056,0,0,1-.04-0.093,0.054,0.054,0,0,1,.045-0.015,0.85,0.85,0,0,1,.054.091A0.148,0.148,0,0,1,35.5,27.119Zm-0.31-9.973a0.737,0.737,0,0,1,.254-0.062,0.227,0.227,0,0,1,.1.069,1.021,1.021,0,0,0-.17.513,0.147,0.147,0,0,1-.258.066C34.867,17.491,34.89,17.3,35.187,17.146ZM35,20.554l0.026-.027,0.025-.083,0.034,0.022-0.059.062-0.013.044-0.147.166-0.03.031,0.016-.046Zm-0.133-2.32v0.043l-0.049-.021Zm-0.328,5.4,0.018,0.047H34.517Zm-0.23,7.48a0.533,0.533,0,0,1,.151-0.274l-0.007-.025,0.033-.03-0.016.047s-0.006.006-.01,0.008c0.02,0.079.041,0.157,0.059,0.236a0.09,0.09,0,0,1,0,.065,0.4,0.4,0,0,1-.1.079,0.083,0.083,0,0,1-.062-0.006A0.071,0.071,0,0,1,34.306,31.117Zm-0.124-5.008,0.046,0.017-0.047.018V26.109ZM33.989,23.9a0.074,0.074,0,0,1,.1.062,0.063,0.063,0,0,1-.078.075,0.4,0.4,0,0,1-.1-0.046A0.313,0.313,0,0,1,33.989,23.9ZM33.9,29.233a0.576,0.576,0,0,1-.222.593c0,0.009,0,.017,0,0.026l-0.035.006,0.02-.02c0.005,0,.008-0.008.013-0.012a0.939,0.939,0,0,1,.145-0.636,0.051,0.051,0,0,1,.045-0.016A0.111,0.111,0,0,1,33.9,29.233Zm-0.078-2.828a0.1,0.1,0,0,1,.04.034,0.1,0.1,0,0,1-.021.048,0.049,0.049,0,0,1-.047-0.01C33.752,26.434,33.762,26.405,33.819,26.405Zm-0.459.58a0.137,0.137,0,0,1,.121-0.024,0.375,0.375,0,0,1,.293.252,1.208,1.208,0,0,1,.061.475c-0.023.228-.02,0.459-0.027,0.64a1.552,1.552,0,0,1,.054.25,0.263,0.263,0,0,1-.04.184c-0.075.05-.1-0.036-0.136-0.1a0.289,0.289,0,0,0-.131-0.139A0.3,0.3,0,0,1,33.33,28.3a1.93,1.93,0,0,1-.05-0.2,0.685,0.685,0,0,1,0-.534l-0.12-.229C33.226,27.219,33.286,27.1,33.36,26.985Zm-0.752.98a1.949,1.949,0,0,1-.178.286c-0.034.054-.065,0.063-0.085,0.022a0.135,0.135,0,0,1-.009-0.064,0.2,0.2,0,0,1,.013-0.066,0.6,0.6,0,0,0,.084-0.389,0.445,0.445,0,0,0-.3-0.224,0.067,0.067,0,0,1-.019-0.058,0.182,0.182,0,0,1,.086-0.073,0.388,0.388,0,0,1,.128.022l0.243,0.043-0.008-.02,0.009,0c-0.065-.109-0.134-0.216-0.195-0.328a0.6,0.6,0,0,1-.015-0.535,0.248,0.248,0,0,1,.136-0.136,0.21,0.21,0,0,1,.17.069,2.2,2.2,0,0,1,.186.271l0.007-.008,0.013-.035-0.014.054-0.006-.01a0.3,0.3,0,0,0,.005.5,0.065,0.065,0,0,1-.042.1c-0.081.021-.163,0.035-0.245,0.052l0.015,0.025-0.016,0a1.113,1.113,0,0,1,.073.238A0.558,0.558,0,0,1,32.608,27.965Zm0.312,1.886a0.066,0.066,0,0,1-.04.047,0.177,0.177,0,0,1-.106-0.009,4.376,4.376,0,0,1-.1-0.45,0.253,0.253,0,0,1,.058-0.114l-0.01-.021,0.025-.105a0.023,0.023,0,0,1,0,0,0.365,0.365,0,0,1,.012-0.047l-0.013.052c-0.005.041-.009,0.083-0.014,0.124l0,0c0.061,0.131.125,0.261,0.182,0.4A0.3,0.3,0,0,1,32.919,29.851ZM32.7,15.756a0.109,0.109,0,0,1,.054-0.023,0.065,0.065,0,0,1,.035.105,0.053,0.053,0,0,1-.047.019A0.065,0.065,0,0,1,32.7,15.756ZM32.331,22.28a0.222,0.222,0,0,1,.184-0.175,0.2,0.2,0,0,1,.116.043,0.076,0.076,0,0,1,0,.065,0.771,0.771,0,0,1-.319.311c0,0.009,0,.019,0,0.029l-0.035.007-0.033.042a0.08,0.08,0,0,1,.014-0.038,0.1,0.1,0,0,1,.019,0l0.019-.024c0.006,0,.01-0.008.017-0.012A1.478,1.478,0,0,1,32.331,22.28Zm-0.092-6.733c0.063,0,.08.032,0.04,0.067a0.116,0.116,0,0,1-.065,0l-0.033-.041A0.141,0.141,0,0,1,32.238,15.547ZM32,24.025c0.082-.016.164-0.028,0.246-0.041l0.046-.027,0.157-.156,0.009-.007c0-.015-0.01-0.03-0.013-0.046-0.118-.565-0.181-0.614.437-0.983a0.123,0.123,0,0,1,.115.022,0.225,0.225,0,0,1,.037.122,0.1,0.1,0,0,1-.022.064,3.776,3.776,0,0,0-.3.361,3.293,3.293,0,0,0-.162.375,0.3,0.3,0,0,1-.088.085l0.006,0.021-0.158.159-0.06.01c-0.074.044-.149,0.089-0.224,0.131a0.064,0.064,0,0,1-.04-0.037A0.062,0.062,0,0,1,32,24.025ZM31.974,13.41l-0.014.043-0.014-.043h0.028Zm-0.42,1.377a0.109,0.109,0,0,1,.054-0.007,0.065,0.065,0,0,1,.014.106,0.058,0.058,0,0,1-.056.01A0.069,0.069,0,0,1,31.554,14.787ZM16.5,20.611l-0.033.01,0.016-.029,0.02-.034C16.5,20.576,16.5,20.593,16.5,20.611ZM16.88,19.6a0.16,0.16,0,0,1,0-.034,0.571,0.571,0,0,1-.068-0.056,0.113,0.113,0,0,1,.014-0.051,0.092,0.092,0,0,1,.054.107l0.02,0.016,0.031,0.044Zm0.1-.893a0.062,0.062,0,0,1-.03.011c0-.035,0-0.071.008-0.107a0.171,0.171,0,0,1,.024.041A0.127,0.127,0,0,1,16.979,18.706Zm0.082,3.713a0.062,0.062,0,0,1-.1-0.023,1.189,1.189,0,0,1-.139-0.229,0.218,0.218,0,0,1,.09-0.281l-0.01-.025,0.013-.019a0.109,0.109,0,0,1,.034-0.121,0.091,0.091,0,0,1,.02.042,0.73,0.73,0,0,1-.054.08c0,0.012,0,.025,0,0.037l-0.008.007c0.059,0.158.119,0.316,0.176,0.476A0.073,0.073,0,0,1,17.061,22.419Zm0.186-.485a0.058,0.058,0,0,1-.039-0.038,0.6,0.6,0,0,1,.026-0.1l0.082,0.076A0.055,0.055,0,0,1,17.247,21.934ZM23.268,7.148a0.077,0.077,0,0,1-.027-0.054c0-.066,0-0.131,0-0.109,0.008-.131.008-0.175,0.014-0.218a0.116,0.116,0,0,1,.034-0.05,0.054,0.054,0,0,1,.031.021c0.006,0.108.007,0.217,0.013,0.326C23.335,7.121,23.317,7.153,23.268,7.148ZM24.2,6.835l-0.039.038,0.022-.056,0.027-.008ZM24.455,18.49l-0.024.017,0.015-.026,0.032-.029Zm1.026,5.7a0.2,0.2,0,0,1-.055-0.016,0.373,0.373,0,0,1,.074-0.03,0.084,0.084,0,0,1,.036.031A0.2,0.2,0,0,1,25.482,24.187ZM25.628,6.361a0.1,0.1,0,0,1-.056.029c-0.22,0-.438,0-0.658-0.006-0.014.008-.029,0.01-0.043,0.019l-0.146.16a0.128,0.128,0,0,1-.034.005,0.571,0.571,0,0,1-.058.071,0.109,0.109,0,0,1-.051-0.015,0.1,0.1,0,0,1,.109-0.056l0.018-.021,0.146-.164h0.059a1.126,1.126,0,0,1,.707-0.061A0.055,0.055,0,0,1,25.628,6.361ZM30.537,25.31a0.135,0.135,0,0,1-.046-0.038,0.3,0.3,0,0,1,.04-0.108,0.126,0.126,0,0,1,.164-0.031,0.058,0.058,0,0,1,.027.047A0.166,0.166,0,0,1,30.537,25.31Zm-0.062-2.27a0.069,0.069,0,0,1-.049-0.033,0.073,0.073,0,0,1,.009-0.059,0.249,0.249,0,0,1,.27-0.115,0.118,0.118,0,0,1,.023.052A0.25,0.25,0,0,1,30.475,23.04Zm0.247-4.828,0.019-.047,0.019,0.048H30.723ZM31.1,12.636a0.3,0.3,0,0,1,.113.031,0.128,0.128,0,0,1,.033.051,0.062,0.062,0,0,1-.11.055C31.055,12.724,31.039,12.635,31.1,12.636Zm-5.152-2.589a0.125,0.125,0,0,0,.023-0.009l0.007-.027c0.028,0.008.019,0.017-.007,0.027l-0.007.026-0.045.022Zm0.546,7.738-0.036-.035,0.054,0.017L26.517,17.8Zm0.12-4.76a0.433,0.433,0,0,1-.56.015c-0.092-.055-0.108-0.1-0.046-0.149a1.143,1.143,0,0,0,.271-0.2,0.785,0.785,0,0,1,.366-0.29,0.34,0.34,0,0,0,.2-0.261,0.126,0.126,0,0,1,.1-0.058,1.054,1.054,0,0,0,.327.053,0.151,0.151,0,0,0,.1-0.214,0.78,0.78,0,0,0-.19-0.19,0.943,0.943,0,0,0-.453-0.118c-0.289-.008-0.578-0.032-0.866-0.051a0.063,0.063,0,0,1-.036-0.046,0.24,0.24,0,0,1,.057-0.117,0.225,0.225,0,0,1,.125-0.03c0.337-.014.674-0.029,1.011-0.037a2.5,2.5,0,0,0,.729-0.121,5.965,5.965,0,0,1,.656-0.16,0.494,0.494,0,0,1,.2.009,0.139,0.139,0,0,1,.1.074,0.132,0.132,0,0,1-.044.117c-0.184.083-.373,0.153-0.559,0.229a0.153,0.153,0,0,0-.043.183,0.443,0.443,0,0,0,.037.058c0.034,0.03.072,0.055,0.109,0.082a0.637,0.637,0,0,0,.916.027,0.067,0.067,0,0,1,.062-0.007,0.082,0.082,0,0,1,.033.119,0.472,0.472,0,0,1-.126.24C29,12.256,28.9,12.318,28.82,12.4a0.533,0.533,0,0,0-.092.178c-0.092.233-.154,0.267-0.321,0.115a0.47,0.47,0,0,0-.561-0.08,0.241,0.241,0,0,0-.134.141,0.419,0.419,0,0,1-.38.39c0,0.008,0,.015-0.007.023l-0.044,0a0.442,0.442,0,0,1-.215.1,0.209,0.209,0,0,0-.023.028,0.187,0.187,0,0,1-.034,0,0.607,0.607,0,0,1-.054.069,0.094,0.094,0,0,1-.049-0.012,0.093,0.093,0,0,1,.1-0.058l0.018-.023a0.346,0.346,0,0,0,.039-0.01,0.264,0.264,0,0,1,.215-0.1c0.009-.007.019-0.011,0.028-0.019l0.023-.006c0.033-.1.068-0.2,0.1-0.3a0.171,0.171,0,0,0-.2-0.208,1.939,1.939,0,0,0-.368.165A2.585,2.585,0,0,0,26.61,13.025Zm1.583,0.442a0.589,0.589,0,0,1-.08.054,0.161,0.161,0,0,1-.007.032,0.051,0.051,0,0,1-.021.033l-0.007.078c-0.043-.038-0.016-0.058.007-0.078,0-.016,0-0.033,0-0.049l0.024-.016c0.007-.048,0-0.1.071-0.109A0.113,0.113,0,0,1,28.193,13.467Zm-0.547,2.153a0.205,0.205,0,0,1-.063.059,0.414,0.414,0,0,1-.311-0.326,0.149,0.149,0,0,1,.078-0.094,0.146,0.146,0,0,1,.123,0C27.539,15.376,27.592,15.5,27.646,15.621ZM27.16,19.27l0-.041,0.056,0.026Zm1.05,2.116a0.106,0.106,0,0,1-.045.024c-0.009-.039-0.02-0.077-0.026-0.116a0.061,0.061,0,0,1,.045-0.019,0.137,0.137,0,0,1,.035.049A0.172,0.172,0,0,1,28.21,21.386Zm0.265-3.1a0.535,0.535,0,0,1-.34.2c-0.2.029-.4,0.082-0.6,0.107a0.426,0.426,0,0,1-.417-0.176c-0.068-.092-0.146-0.176-0.216-0.265a0.055,0.055,0,0,1,.019-0.044,0.086,0.086,0,0,1,.062-0.015,1.729,1.729,0,0,0,.254.079,0.257,0.257,0,0,0,.186-0.046,1.982,1.982,0,0,0,.277-0.3,0.335,0.335,0,0,1,.352-0.145,0.432,0.432,0,0,0,.133-0.015,0.2,0.2,0,0,0,.155-0.2c-0.007-.069-0.011-0.139-0.023-0.208-0.024-.137-0.052-0.275-0.08-0.411-0.012-.055,0-0.093.042-0.1a0.092,0.092,0,0,1,.058.027,2.029,2.029,0,0,1,.45.6,0.357,0.357,0,0,0,.284.161,0.994,0.994,0,0,0,.815-0.255,1.408,1.408,0,0,1,.733-0.322,1.425,1.425,0,0,1,.323.011l0.011-.015c-0.006-.047,0-0.053.027-0.015a0.129,0.129,0,0,1-.027.031H30.944a1.013,1.013,0,0,1-.163.191,1.6,1.6,0,0,1-.3.164,3.2,3.2,0,0,0-.636.382,4.8,4.8,0,0,1-.768.43,0.173,0.173,0,0,1-.131,0A0.379,0.379,0,0,0,28.475,18.281Zm0.453,5.983L28.9,24.227l-0.046-.106,0.055,0.1C28.961,24.223,28.966,24.237,28.928,24.264Zm0.108-2.91a0.185,0.185,0,0,1-.116-0.029,0.081,0.081,0,0,1,0-.059,0.758,0.758,0,0,1,.165-0.213c0.242-.158.494-0.3,0.746-0.442a0.135,0.135,0,0,1,.124.021,0.6,0.6,0,0,0,.408.189,0.188,0.188,0,0,1,.048.1,0.062,0.062,0,0,1-.037.047c-0.152.021-.3,0.037-0.457,0.055,0-.01,0-0.02,0-0.03-0.067,0-.133,0-0.2,0a0.628,0.628,0,0,0-.532.232A0.54,0.54,0,0,1,29.036,21.354Zm7,36.162a0.154,0.154,0,0,1-.048.046,0.2,0.2,0,0,1-.251-0.219,0.069,0.069,0,0,1,.044-0.047,0.252,0.252,0,0,1,.26.155A0.157,0.157,0,0,1,36.033,57.516Z"/>
</svg>
