<svg xmlns="http://www.w3.org/2000/svg" width="14" height="13.969" viewBox="0 0 14 13.969">
  <metadata><?xpacket begin="﻿" id="W5M0MpCehiHzreSzNTczkc9d"?>
<x:xmpmeta xmlns:x="adobe:ns:meta/" x:xmptk="Adobe XMP Core 5.6-c138 79.159824, 2016/09/14-01:09:01        ">
   <rdf:RDF xmlns:rdf="http://www.w3.org/1999/02/22-rdf-syntax-ns#">
      <rdf:Description rdf:about=""/>
   </rdf:RDF>
</x:xmpmeta>
                                                                                                    
                                                                                                    
                                                                                                    
                                                                                                    
                                                                                                    
                                                                                                    
                                                                                                    
                                                                                                    
                                                                                                    
                                                                                                    
                                                                                                    
                                                                                                    
                                                                                                    
                                                                                                    
                                                                                                    
                                                                                                    
                                                                                                    
                                                                                                    
                                                                                                    
                                                                                                    
                           
<?xpacket end="w"?></metadata>
<defs>
    <style>
      .cls-1 {
        fill: #a1a6ac;
        fill-rule: evenodd;
      }
    </style>
  </defs>
  <path id="oceania" class="cls-1" d="M0.127,6.057h0V6.062ZM9.183,5.91C9.1,5.986,9.1,5.986,9.046,5.9c-0.01-.016-0.021-0.032-0.031-0.048a0.442,0.442,0,0,0-.16-0.227,0.6,0.6,0,0,1-.113-0.339A0.111,0.111,0,0,0,8.66,5.158a0.949,0.949,0,0,0-.151-0.067A0.055,0.055,0,0,1,8.48,5.049,0.541,0.541,0,0,0,8.422,4.8a0.477,0.477,0,0,1-.068-0.215,0.1,0.1,0,0,0-.043-0.069,3.648,3.648,0,0,0-.386-0.277A0.116,0.116,0,0,1,7.861,4.15a0.9,0.9,0,0,1-.028-0.225,0.455,0.455,0,0,0-.066-0.3,0.389,0.389,0,0,1-.06-0.245c0-.066-0.012-0.134-0.009-0.2A0.285,0.285,0,0,0,7.6,2.952,0.144,0.144,0,0,0,7.455,2.9a0.072,0.072,0,0,1-.082-0.056,0.422,0.422,0,0,1-.014-0.084,1.239,1.239,0,0,0-.045-0.282C7.287,2.349,7.211,2.236,7.188,2.1A0.108,0.108,0,0,0,7.128,2.05a0.058,0.058,0,0,0-.049.012,0.1,0.1,0,0,0-.032.044C7.014,2.186,7,2.271,6.964,2.35A1.822,1.822,0,0,0,6.9,2.6a1.181,1.181,0,0,0-.057.423,0.423,0.423,0,0,1-.016.141c-0.029.111-.062,0.22-0.1,0.33-0.023.072-.045,0.146-0.075,0.215a0.171,0.171,0,0,1-.129.1A0.216,0.216,0,0,1,6.305,3.73a0.34,0.34,0,0,1-.073-0.143l-0.051,0a0.25,0.25,0,0,1-.2-0.092,0.636,0.636,0,0,0-.229-0.158,0.351,0.351,0,0,1-.129-0.1,0.973,0.973,0,0,0-.1-0.1A0.106,0.106,0,0,1,5.5,3a0.651,0.651,0,0,0,.086-0.27,0.072,0.072,0,0,1,.055-0.057,0.136,0.136,0,0,0,.069-0.044A2.42,2.42,0,0,0,5.829,2.4a0.063,0.063,0,0,0-.023-0.047A0.118,0.118,0,0,0,5.68,2.32a0.106,0.106,0,0,1-.127,0,0.072,0.072,0,0,0-.077.008,0.14,0.14,0,0,1-.078.018A2.044,2.044,0,0,1,4.985,2.19a0.792,0.792,0,0,0-.2-0.086,0.113,0.113,0,0,0-.053,0,0.035,0.035,0,0,0-.022.016,0.032,0.032,0,0,0,0,.027c0.026,0.027.054,0.05,0.08,0.076a0.059,0.059,0,0,1-.016.1,0.385,0.385,0,0,1-.189.035,0.26,0.26,0,0,0-.107.014,0.525,0.525,0,0,0-.2.154c-0.073.1-.141,0.2-0.212,0.3a0.157,0.157,0,0,0-.016.161,0.06,0.06,0,0,1-.068.067,0.347,0.347,0,0,0-.162-0.022A0.078,0.078,0,0,1,3.719,3C3.68,2.946,3.644,2.889,3.6,2.84a0.124,0.124,0,0,0-.148-0.047,0.791,0.791,0,0,0-.177.075,0.333,0.333,0,0,1-.146.069,0.291,0.291,0,0,0-.115.151,0.211,0.211,0,0,1-.065.053,0.142,0.142,0,0,0-.1.178,0.252,0.252,0,0,1-.005.057,0.055,0.055,0,0,1-.056.049c-0.028,0-.055-0.006-0.083-0.006a0.069,0.069,0,0,0-.061.08c0.005,0.037.014,0.074,0.019,0.112a0.037,0.037,0,0,1-.01.025,0.028,0.028,0,0,1-.045,0C2.583,3.6,2.559,3.555,2.531,3.517A0.049,0.049,0,0,0,2.459,3.5c-0.042.037-.086,0.073-0.126,0.111a0.127,0.127,0,0,0-.046.1,0.384,0.384,0,0,1-.132.329,0.48,0.48,0,0,0-.058.1,0.378,0.378,0,0,1-.3.187c-0.083.008-.165,0.024-0.247,0.037-0.113.087-.27,0.061-0.381,0.157a0.1,0.1,0,0,1-.078.019,0.334,0.334,0,0,0-.262.06,2.316,2.316,0,0,1-.318.173,0.264,0.264,0,0,0-.119.117c-0.031.046-.04-0.013-0.06-0.014a0.06,0.06,0,0,0-.048.012,0.3,0.3,0,0,0-.053.1,0.709,0.709,0,0,0-.012.142,0.394,0.394,0,0,1-.059.218,0.363,0.363,0,0,0-.056.218,0.632,0.632,0,0,0,.058.307,0.287,0.287,0,0,1,.026.082,0.077,0.077,0,0,1-.027.075C0.152,6.037.139,6.047,0.127,6.057l-0.058.116h0V6.179l0,0a0.315,0.315,0,0,0,.008.084,0.442,0.442,0,0,1,.039.2,0.815,0.815,0,0,0,.058.337,1.069,1.069,0,0,1,.049.367,1.261,1.261,0,0,0,.041.427,0.251,0.251,0,0,1,0,.113c-0.012.076-.03,0.15-0.045,0.225a0.411,0.411,0,0,1-.158.26,0.163,0.163,0,0,0-.015.231,1.634,1.634,0,0,1,.117.122,0.3,0.3,0,0,0,.214.119,1.135,1.135,0,0,0,.194.01A0.186,0.186,0,0,0,.681,8.635,1.923,1.923,0,0,0,1.089,8.4a0.082,0.082,0,0,1,.05-0.022,1.02,1.02,0,0,1,.384-0.026,1.217,1.217,0,0,0,.331.021A0.213,0.213,0,0,0,2,8.305a1.272,1.272,0,0,1,.37-0.271,0.782,0.782,0,0,0,.118-0.075,0.238,0.238,0,0,1,.182-0.052,0.8,0.8,0,0,0,.485-0.086,0.74,0.74,0,0,1,.376-0.082L3.812,7.745a0.148,0.148,0,0,1,.121.061,0.28,0.28,0,0,0,.19.1A0.921,0.921,0,0,1,4.355,8a0.126,0.126,0,0,1,.073.114,0.185,0.185,0,0,0,.05.156,0.288,0.288,0,0,1,.078.18c0.007,0.067.014,0.133,0.019,0.2,0,0.028,0,.057,0,0.085a0.045,0.045,0,0,0,.007.028,0.266,0.266,0,0,0,.063.053A0.055,0.055,0,0,0,4.695,8.8c0.076-.083.148-0.171,0.226-0.252,0.039-.04.094-0.063,0.134-0.1s0.085-.1.128-0.147a0.026,0.026,0,0,1,.025,0,0.033,0.033,0,0,1,.016.022,0.124,0.124,0,0,1-.022.109,0.561,0.561,0,0,0-.133.249,0.286,0.286,0,0,1-.15.194,0.067,0.067,0,0,0-.025.048,0.057,0.057,0,0,0,.019.047,0.32,0.32,0,0,0,.08,0,0.173,0.173,0,0,0,.174-0.118A0.368,0.368,0,0,1,5.19,8.791a0.1,0.1,0,0,1,.02-0.018,0.1,0.1,0,0,1,.028.037,0.307,0.307,0,0,1-.05.245,0.037,0.037,0,0,0,.026.061c0.044,0,.088,0,0.132.005V9.114L5.358,9.1l-0.006.021H5.346a0.077,0.077,0,0,0,0,.022,0.645,0.645,0,0,1,.021.475,0.186,0.186,0,0,0,.013.111c0.015,0.045.042,0.085,0.059,0.13a0.389,0.389,0,0,0,.286.246,0.522,0.522,0,0,1,.194.1c0.036,0.029.066,0.067,0.1,0.1a0.094,0.094,0,0,0,.1.014,0.589,0.589,0,0,0,.3-0.241c0.008-.018.032-0.013,0.045,0a0.037,0.037,0,0,1,.009.024,0.181,0.181,0,0,0-.016.08,1.644,1.644,0,0,0,.177.256,0.064,0.064,0,0,0,.073.014c0.1-.089.211-0.154,0.308-0.241a0.485,0.485,0,0,1,.332-0.122,1.356,1.356,0,0,0,.138,0A0.254,0.254,0,0,0,7.688,9.9a2.072,2.072,0,0,1,.094-0.358A0.716,0.716,0,0,1,7.966,9.2,0.882,0.882,0,0,0,8.1,8.983L8.248,8.7a0.909,0.909,0,0,1,.321-0.386,0.154,0.154,0,0,0,.069-0.084c0.03-.128.151-0.2,0.188-0.315a2.437,2.437,0,0,1,.09-0.36A3.656,3.656,0,0,1,9.09,7.138,0.352,0.352,0,0,0,9.13,7a0.625,0.625,0,0,0-.023-0.284,0.328,0.328,0,0,1,0-.2,0.551,0.551,0,0,0,.025-0.14,1.127,1.127,0,0,1,.082-0.39,0.137,0.137,0,0,0,.013-0.055A0.121,0.121,0,0,0,9.2,5.895,0.187,0.187,0,0,0,9.183,5.91Zm-0.241-4.1c-0.075-.023-0.06-0.078-0.051-0.131a0.133,0.133,0,0,1-.158-0.068,0.071,0.071,0,0,0-.015-0.024,0.987,0.987,0,0,1-.13-0.1C8.55,1.443,8.529,1.386,8.5,1.342s-0.069-.063-0.1-0.1a1.371,1.371,0,0,1-.1-0.135,0.064,0.064,0,0,1,.019-0.1A0.54,0.54,0,0,0,8.384.967,0.1,0.1,0,0,0,8.369.817,0.6,0.6,0,0,0,8.3.777,1.668,1.668,0,0,0,8.116.7,0.184,0.184,0,0,1,7.964.527,0.161,0.161,0,0,0,7.9.437,1.606,1.606,0,0,0,7.313.127,2.093,2.093,0,0,1,7.027.02l-0.007,0a4.679,4.679,0,0,1-.686,1.355L6.4,1.357a0.21,0.21,0,0,1,.245.086A0.7,0.7,0,0,0,6.7,1.51a0.2,0.2,0,0,0,.146.073,1.145,1.145,0,0,1,.327.05A0.171,0.171,0,0,0,7.3,1.608a0.1,0.1,0,0,0,.053-0.141,0.1,0.1,0,0,1-.007-0.049,2.023,2.023,0,0,1,.194-0.16A0.192,0.192,0,0,1,7.729,1.24C7.789,1.265,7.845,1.3,7.9,1.327a0.293,0.293,0,0,1,.126.106c0.076,0.108.163,0.209,0.241,0.315a0.253,0.253,0,0,0,.215.11,0.838,0.838,0,0,1,.426.106,0.038,0.038,0,0,0,.026.006,0.1,0.1,0,0,0,.048-0.021A0.071,0.071,0,0,0,9,1.9,0.092,0.092,0,0,0,8.942,1.811ZM12.6,11.835a0.374,0.374,0,0,1-.107.021c-0.059-.009-0.031-0.081-0.062-0.113a0.318,0.318,0,0,1-.031-0.048,0.07,0.07,0,0,0-.1-0.011,0.167,0.167,0,0,0-.061.056,0.66,0.66,0,0,1-.273.35,0.244,0.244,0,0,0-.068.088,1.025,1.025,0,0,0-.062.128,0.439,0.439,0,0,1-.2.225c-0.106.059-.206,0.127-0.311,0.188a0.578,0.578,0,0,1-.263.147,0.148,0.148,0,0,0-.071.043,4.488,4.488,0,0,0-.391.363,1.363,1.363,0,0,0-.226.355,0.1,0.1,0,0,0,.046.122,0.438,0.438,0,0,1,.228.152,0.279,0.279,0,0,0,.037.044,0.192,0.192,0,0,0,.229.037c0.138-.064.227-0.2,0.36-0.265,0.039-.064.077-0.13,0.117-0.193a0.643,0.643,0,0,1,.084-0.114,0.615,0.615,0,0,0,.11-0.164,0.387,0.387,0,0,1,.27-0.268,0.3,0.3,0,0,1,.16-0.028,0.072,0.072,0,0,0,.087-0.084,0.165,0.165,0,0,1,.09-0.213,0.236,0.236,0,0,0,.083-0.075,4.122,4.122,0,0,1,.312-0.365,0.168,0.168,0,0,0,.043-0.1c0-.038,0-0.076.006-0.093s0.01-.039.012-0.049,0.009-.037.012-0.056,0-.019,0-0.029A0.057,0.057,0,0,0,12.6,11.835Zm1.357-1.209a0.075,0.075,0,0,0-.078,0c-0.016.008-.03,0.021-0.046,0.031-0.107.069-.134,0.067-0.219-0.008a0.2,0.2,0,0,1-.08-0.144,1.482,1.482,0,0,0-.03-0.2,0.253,0.253,0,0,0-.03-0.08,0.072,0.072,0,0,0-.041-0.023,0.03,0.03,0,0,0-.018.018c-0.008.017-.011,0.037-0.02,0.053a0.1,0.1,0,0,1-.034.037,0.061,0.061,0,0,1-.051-0.057c0.022-.131.011-0.265,0.042-0.394a0.227,0.227,0,0,0-.038-0.214,1.183,1.183,0,0,0-.189-0.242,0.225,0.225,0,0,1-.04-0.073,0.1,0.1,0,0,0-.017-0.023,0.029,0.029,0,0,0-.045,0,0.039,0.039,0,0,0-.012.024,0.493,0.493,0,0,1,.031.222,0.22,0.22,0,0,0,.006.166,1.949,1.949,0,0,1,.065.249,0.4,0.4,0,0,1,.024.25,0.156,0.156,0,0,0,.018.082c0.011,0.036.025,0.071,0.035,0.1a1.009,1.009,0,0,1-.052.26c-0.037.088-.069,0.177-0.1,0.266a0.151,0.151,0,0,1-.1.1,0.717,0.717,0,0,0-.126.057,0.139,0.139,0,0,0-.035.2c0.044,0.049.092,0.094,0.138,0.142a0.189,0.189,0,0,1,.047.158,0.237,0.237,0,0,1-.049.132c-0.052.067-.107,0.132-0.157,0.2a0.057,0.057,0,0,0,0,.053,0.763,0.763,0,0,0,.1.1,0.062,0.062,0,0,0,.051.006,0.476,0.476,0,0,0,.179-0.133c0.091-.095.183-0.189,0.267-0.29a0.536,0.536,0,0,0,.15-0.33,0.135,0.135,0,0,1,.135-0.122,0.537,0.537,0,0,0,.055,0,0.071,0.071,0,0,0,.047-0.021,0.4,0.4,0,0,1,.155-0.2,0.265,0.265,0,0,0,.056-0.1c0.021-.053.035-0.109,0.051-0.164A0.091,0.091,0,0,0,13.956,10.626Zm-7.1.522a2.469,2.469,0,0,0-.27.057,0.2,0.2,0,0,1-.2-0.049c-0.043-.036-0.084-0.075-0.13-0.106a0.159,0.159,0,0,0-.077-0.018,0.093,0.093,0,0,0-.062.085c0,0.019,0,.038-0.005.057a1.626,1.626,0,0,1-.038.51,0.486,0.486,0,0,0,0,.074C6.076,11.808,6.1,11.9,6.111,12a0.186,0.186,0,0,0,.17.159,0.071,0.071,0,0,0,.052,0,0.555,0.555,0,0,0,.106-0.09,0.142,0.142,0,0,1,.147-0.053,0.077,0.077,0,0,0,.084-0.059,0.677,0.677,0,0,1,.158-0.327,0.118,0.118,0,0,0,.02-0.053c0.025-.091.05-0.183,0.074-0.275,0-.018.006-0.037,0.009-0.056A0.073,0.073,0,0,0,6.854,11.148ZM9.438,0.357a0.107,0.107,0,0,0-.144.088,0.29,0.29,0,0,1-.187.192A0.115,0.115,0,0,1,8.966.6l0-.014L8.96,0.593,8.966,0.6A0.84,0.84,0,0,1,8.7.643a0.238,0.238,0,0,0-.055,0,0.152,0.152,0,0,0-.054.01,0.073,0.073,0,0,0-.037.036,0.061,0.061,0,0,0,.011.051,0.652,0.652,0,0,0,.57.127A0.179,0.179,0,0,0,9.181.845,1.834,1.834,0,0,1,9.4.677,0.058,0.058,0,0,0,9.43.632,0.307,0.307,0,0,1,9.505.485,0.092,0.092,0,0,0,9.438.357Zm2.9,4.877a0.167,0.167,0,0,0,.078-0.006,0.046,0.046,0,0,0,.012-0.02,0.2,0.2,0,0,0-.021-0.051c-0.1-.122-0.2-0.244-0.309-0.364-0.037-.042-0.078-0.081-0.117-0.121a0.12,0.12,0,0,0-.045-0.031,0.048,0.048,0,0,0-.066.054,0.675,0.675,0,0,0,.2.306A0.769,0.769,0,0,0,12.342,5.234ZM4.827,9.142a0.087,0.087,0,0,0-.014.051,0.033,0.033,0,0,0,.02.017c0.034,0.011.07,0.02,0.088,0.025L4.994,9.23a0.074,0.074,0,0,0,.027-0.006c0.016-.008.032-0.018,0.047-0.028a0.224,0.224,0,0,0-.04-0.068A0.155,0.155,0,0,0,4.827,9.142ZM12.7,3.22A0.219,0.219,0,0,0,12.6,3.1a0.091,0.091,0,0,0-.037.034,0.681,0.681,0,0,0,.009.137,0.06,0.06,0,0,0,.089.034A0.074,0.074,0,0,0,12.7,3.22ZM11.52,1.685a0.026,0.026,0,0,0,.022-0.008,0.026,0.026,0,0,0,.008-0.023c-0.018-.031-0.037-0.061-0.056-0.092l0,0c-0.026-.038-0.05-0.077-0.079-0.112a0.074,0.074,0,0,0-.041-0.02,0.081,0.081,0,0,0-.012.077A0.3,0.3,0,0,0,11.52,1.685Zm-0.213.091a0.05,0.05,0,0,0,.036-0.03,0.066,0.066,0,0,0-.011-0.05,0.162,0.162,0,0,0-.14-0.069,0.2,0.2,0,0,0-.046.022,0.06,0.06,0,0,0,.011.073A0.262,0.262,0,0,0,11.307,1.777Zm-0.237-.4c0.021,0.011.038,0.009,0.043-.015a0.07,0.07,0,0,0,0-.05A0.24,0.24,0,0,0,10.956,1.2a0.062,0.062,0,0,0-.02.016,0.029,0.029,0,0,0,0,.024A0.281,0.281,0,0,0,11.069,1.375Zm0.424,0.544a0.04,0.04,0,0,0,0,.028,0.134,0.134,0,0,0,.105.081A0.147,0.147,0,0,0,11.664,2a0.136,0.136,0,0,0-.008-0.037A0.178,0.178,0,0,0,11.539,1.9,0.036,0.036,0,0,0,11.494,1.919Zm-2.1-1.794L9.4,0.133H9.413A0.057,0.057,0,0,1,9.406.126H9.395Zm-0.2-.1a0.239,0.239,0,0,0,.2.1A0.177,0.177,0,0,0,9.193.021ZM0.1,5.932A0.05,0.05,0,0,0,.054,5.921a0.052,0.052,0,0,0-.025.042,0.694,0.694,0,0,0,.04.093H0.122A0.131,0.131,0,0,0,.1,5.932Zm-0.031.124h0V6.063H0.071Zm6.05,4.7c0.007-.016.013-0.033,0.019-0.05a0.083,0.083,0,0,0,0-.027,0.078,0.078,0,0,0-.028-0.04,0.05,0.05,0,0,0-.042.023,0.177,0.177,0,0,0-.021.076,0.058,0.058,0,0,0,.031.036A0.03,0.03,0,0,0,6.119,10.754Zm6.67-7.233a0.606,0.606,0,0,0-.039-0.069,0.031,0.031,0,0,0-.025-0.009,0.025,0.025,0,0,0-.017.015c-0.014.063,0,.1,0.04,0.114a0.271,0.271,0,0,0,.042-0.024A0.032,0.032,0,0,0,12.789,3.52ZM10.466,0.995s0,0,0,0H10.459s0,0,0,.006h0.006Zm0.1,0.108a0.079,0.079,0,0,0,.043-0.027,0.06,0.06,0,0,0-.01-0.024A0.107,0.107,0,0,0,10.466.995,0.11,0.11,0,0,0,10.568,1.1Zm0.073,0.282a0.046,0.046,0,0,0,.045-0.007,0.05,0.05,0,0,0,0-.046,0.106,0.106,0,0,0-.106-0.049A0.1,0.1,0,0,0,10.641,1.385Zm1.943,3.47A0.089,0.089,0,0,0,12.576,4.8a0.024,0.024,0,0,0-.041-0.011,0.033,0.033,0,0,0-.01.024,0.107,0.107,0,0,0,.018.048A0.023,0.023,0,0,0,12.584,4.855ZM6.955,10.8a0.125,0.125,0,0,0-.026.045,0.194,0.194,0,0,0,.032.04,0.027,0.027,0,0,0,.045-0.017A0.1,0.1,0,0,0,7,10.821,0.029,0.029,0,0,0,6.955,10.8ZM9.06,1.721C9.034,1.645,9.013,1.632,8.945,1.654a0.217,0.217,0,0,0-.039.02,0.3,0.3,0,0,1,.155.06A0.059,0.059,0,0,0,9.06,1.721ZM8.906,1.675l-0.014,0V1.679H8.9ZM9.15,1.787a0.025,0.025,0,0,0-.014-0.02C9.117,1.76,9.1,1.756,9.078,1.752a0.291,0.291,0,0,0,.039.051C9.134,1.819,9.149,1.81,9.15,1.787ZM9.078,1.752L9.07,1.741,9.061,1.735s0,0.009,0,.014ZM0.046,6.064C-0.009,6.083-.017,6.115.024,6.157a0.1,0.1,0,0,0,.042.016c0-.037,0-0.073,0-0.11A0.057,0.057,0,0,0,.046,6.064ZM9.513,0.177a0.2,0.2,0,0,0-.1-0.042A0.1,0.1,0,0,0,9.513.177Zm0,0,0.01,0.007L9.53,0.189s0-.008,0-0.012H9.513Zm3.374,3.369a0.04,0.04,0,0,0,.01-0.02,0.048,0.048,0,0,0-.013-0.019,0.019,0.019,0,0,0-.017.01C12.861,3.54,12.869,3.551,12.887,3.546ZM12.9,3.915a0.251,0.251,0,0,0,.04-0.016,0.052,0.052,0,0,0-.014-0.02,0.026,0.026,0,0,0-.039.017A0.028,0.028,0,0,0,12.9,3.915ZM13.054,4.2l-0.016,0,0.005,0.021Zm-0.341.783a0.027,0.027,0,0,0-.021.041,0.032,0.032,0,0,0,.018.017A0.03,0.03,0,0,0,12.732,5,0.053,0.053,0,0,0,12.713,4.987ZM6.953,10.962a0.031,0.031,0,0,0-.018.018,0.029,0.029,0,0,0,.04.023,0.06,0.06,0,0,0,.018-0.019A0.028,0.028,0,0,0,6.953,10.962ZM9.172,0L9.18,0.022H9.193L9.187,0.015Zm1.286,0.99a0.043,0.043,0,0,0,0-.019,0.026,0.026,0,0,0-.018,0C10.433,0.982,10.442.989,10.459,0.99Zm0.1,0.282,0.014,0.011h0.007s0,0,0-.007Z" transform="translate(0 -0.031)"/>
</svg>
