<?xml version="1.0" encoding="utf-8"?>
<!-- Generator: Adobe Illustrator 17.0.0, SVG Export Plug-In . SVG Version: 6.00 Build 0)  -->
<!DOCTYPE svg PUBLIC "-//W3C//DTD SVG 1.1//EN" "http://www.w3.org/Graphics/SVG/1.1/DTD/svg11.dtd">
<svg version="1.1" id="south_america_1_" xmlns="http://www.w3.org/2000/svg" xmlns:xlink="http://www.w3.org/1999/xlink" x="0px"
	 y="0px" width="8px" height="13px" viewBox="0 0 8 13" enable-background="new 0 0 8 13" xml:space="preserve">
<g id="south_america">
	<g>
		<path fill-rule="evenodd" clip-rule="evenodd" fill="#A1A6AC" d="M7.992,3.313c-0.152-0.452-0.76-0.675-1.211-0.74
			C6.345,2.51,6.104,2.35,5.657,2.326c0.052,0.001-0.172-0.2-0.213-0.213C5.431,2.169,5.43,2.134,5.446,2.154
			c-0.105,0.028-0.156,0-0.249-0.007c0.918-0.88-1.788-1.142-1.96-1.782C3.229,0.333,3.33,0.333,3.31,0.294
			C3.18,0.056,2.439,0.6,2.308,0.28C2.154-0.116,1.725,0.271,1.695,0.22C1.649,0.143,1.871,0.064,1.76,0.012
			C1.414-0.143,0.928,0.494,0.79,0.694C0.735,0.626,0.586,0.517,0.492,0.495c-0.064,0.248,0.19,0.349,0.19,0.58
			c0.003,0.506-0.165,0.35-0.274,0.772C0.391,1.912,0.146,2.229,0.097,2.309C0.039,2.403,0.11,2.765,0.224,2.608
			c0.009,0.026-0.171,0.467-0.198,0.537C0.031,3.131,0.507,3.734,0.54,3.828c0.17,0.474,0.467,0.827,0.848,1.115
			c0.482,0.365,0.454,0.32,0.617,0.826c0.206,0.625-0.03,1.58,0.001,2.251c0.022,0.545-0.412,1.344-0.016,1.834
			c-0.215-0.007-0.072,0.382-0.012,0.331c0.083-0.073,0.074-0.247,0.014-0.33c0.206,0.06,0.232,0.647,0.116,0.884
			c-0.037,0.078-0.081-0.09-0.073-0.067c-0.448-0.014,0.059,0.487,0.052,0.529c-0.029,0.112-0.214,0.099-0.05,0.312
			c-0.003-0.004,0.224,0.532,0.175,0.531c0.084,0.003,0.059-0.19,0.063-0.21c0.035,0.237,0.042,0.122-0.055,0.29
			c0.005-0.009,0.319,0.293,0.386,0.357c0,0,0,0,0.001,0c0.002,0.007,0.006,0.012,0.014,0.014c-0.002-0.002-0.011-0.011-0.014-0.014
			c-0.051-0.018-0.264-0.106-0.259-0.066c0.037,0.334,0.372,0.211,0.47,0.22c0.027,0.001,0.587,0.534,0.68,0.358
			c0.013-0.025-0.005-0.055-0.022-0.066c0.031-0.044,0.353-0.125,0.419-0.173c-0.247,0.163-0.536-0.508-0.7-0.515
			c-0.104-0.005-0.212,0.23-0.19,0.238c-0.201-0.088,0.244-0.283,0.258-0.303c0.061-0.086-0.26-0.299-0.11-0.47
			c0.076-0.086,0.346-0.486,0.332-0.592c-0.021-0.16-0.198-0.185-0.303-0.278c-0.254-0.224,0.203-0.263,0.214-0.35
			c0.012-0.105,0.121-0.533,0.086-0.511c-0.042,0.03,0.311-0.24,0.049-0.125C3.333,9.931,3.336,9.562,3.403,9.585
			c0.251,0.087,0.376,0.112,0.382-0.17C3.795,8.941,4.387,9.3,4.595,8.808c0.063-0.151-0.198-0.461-0.29-0.551
			c0.007,0.001,0.01,0.004,0.01,0.009c0.294,0.3,0.82-0.001,0.906-0.326c0.02-0.075,0.204-0.645,0.264-0.4
			c0.403-0.046,0.197-0.886,0.402-1.054c0.391-0.321,0.765-0.308,1.129-0.573C7.33,5.682,7.313,4.746,7.315,4.429
			C7.318,4.045,8.158,3.803,7.992,3.313z M1.731,0.51C1.718,0.607,1.528,0.395,1.722,0.378C1.746,0.376,1.733,0.495,1.731,0.51z
			 M2.063,4.783C2.078,4.75,2.232,4.923,2.195,4.909C2.173,4.818,2.033,4.874,2.063,4.783z M3.128,12.505
			C3.216,12.458,3.006,12.571,3.128,12.505L3.128,12.505z M3.088,12.678c0.014-0.015,0.027-0.027,0.034-0.019
			C3.146,12.686,3.121,12.685,3.088,12.678c-0.031,0.032-0.071,0.079-0.094-0.027C2.9,12.61,3.019,12.662,3.088,12.678z
			 M2.691,12.322C2.58,12.375,2.694,12.255,2.691,12.322L2.691,12.322z M2.829,12.402C2.774,12.511,2.786,12.408,2.829,12.402
			L2.829,12.402z M3.482,7.535C3.396,7.501,3.53,7.505,3.482,7.535L3.482,7.535z M4.439,1.283C4.497,1.316,4.4,1.262,4.439,1.283
			L4.439,1.283z M5.191,2.155c0.015,0.078,0.107,0.013,0.056,0.078C5.178,2.323,5.163,2.195,5.191,2.155z M5.454,2.456
			C5.46,2.407,5.552,2.456,5.454,2.456L5.454,2.456z"/>
	</g>
</g>
</svg>
