<svg xmlns="http://www.w3.org/2000/svg" width="13" height="13" viewBox="0 0 13 13">
  <metadata><?xpacket begin="﻿" id="W5M0MpCehiHzreSzNTczkc9d"?>
<x:xmpmeta xmlns:x="adobe:ns:meta/" x:xmptk="Adobe XMP Core 5.6-c138 79.159824, 2016/09/14-01:09:01        ">
   <rdf:RDF xmlns:rdf="http://www.w3.org/1999/02/22-rdf-syntax-ns#">
      <rdf:Description rdf:about=""/>
   </rdf:RDF>
</x:xmpmeta>
                                                                                                    
                                                                                                    
                                                                                                    
                                                                                                    
                                                                                                    
                                                                                                    
                                                                                                    
                                                                                                    
                                                                                                    
                                                                                                    
                                                                                                    
                                                                                                    
                                                                                                    
                                                                                                    
                                                                                                    
                                                                                                    
                                                                                                    
                                                                                                    
                                                                                                    
                                                                                                    
                           
<?xpacket end="w"?></metadata>
<defs>
    <style>
      .cls-1 {
        fill: #a1a6ac;
        fill-rule: evenodd;
      }
    </style>
  </defs>
  <path id="world_icon" data-name="world icon" class="cls-1" d="M347.405,685.157a10.667,10.667,0,0,0,2.8.43V682C349.017,682.162,347.988,683.39,347.405,685.157Zm2.8,9.845v-3.589a10.682,10.682,0,0,0-2.806.431C347.987,693.611,349.017,694.838,350.209,695Zm-2.969-3.7a11.048,11.048,0,0,1,2.969-.467v-1.807H346.9A10.861,10.861,0,0,0,347.24,691.3Zm-0.348-2.857h3.317v-2.27a11.026,11.026,0,0,1-2.966-.466A11.013,11.013,0,0,0,346.892,688.44Zm1.537-6.122a6.527,6.527,0,0,0-2.9,1.989,6.791,6.791,0,0,0,1.338.668A6.651,6.651,0,0,1,348.429,682.318Zm-1.731,3.2a7.437,7.437,0,0,1-1.513-.765A6.5,6.5,0,0,0,344,688.44h2.314A11.354,11.354,0,0,1,346.7,685.518Zm-1.17,7.174a6.526,6.526,0,0,0,2.9,1.99,6.648,6.648,0,0,1-1.566-2.656A6.706,6.706,0,0,0,345.528,692.692Zm9.128-4.252H357a6.492,6.492,0,0,0-1.188-3.687,7.5,7.5,0,0,1-1.543.777A11.356,11.356,0,0,1,354.656,688.44Zm-8.334.583h-2.3a6.492,6.492,0,0,0,1.166,3.225,7.413,7.413,0,0,1,1.513-.766A11.142,11.142,0,0,1,346.322,689.023Zm7.95,2.448a7.429,7.429,0,0,1,1.544.777,6.493,6.493,0,0,0,1.167-3.225h-2.338A11.3,11.3,0,0,1,354.272,691.471Zm-0.209-2.448h-3.272v1.807a11.031,11.031,0,0,1,2.937.457A10.785,10.785,0,0,0,354.063,689.023Zm-3.272,2.39V695c1.18-.183,2.2-1.408,2.775-3.163A10.685,10.685,0,0,0,350.791,691.413Zm1.729,3.287a6.513,6.513,0,0,0,2.952-2.008,6.76,6.76,0,0,0-1.365-.677A6.633,6.633,0,0,1,352.52,694.7Zm2.954-10.392a6.515,6.515,0,0,0-2.954-2.007,6.64,6.64,0,0,1,1.587,2.684A6.831,6.831,0,0,0,355.474,684.308ZM350.791,682v3.585a10.727,10.727,0,0,0,2.774-.421C352.988,683.411,351.971,682.185,350.791,682Zm2.935,3.712a11.063,11.063,0,0,1-2.935.456v2.27h3.284A10.987,10.987,0,0,0,353.726,685.714Z" transform="translate(-344 -682)"/>
</svg>
