<?xml version="1.0" encoding="utf-8"?>
<svg version="1.1" id="Слой_1" xmlns="http://www.w3.org/2000/svg" xmlns:xlink="http://www.w3.org/1999/xlink" x="0px" y="0px"
	 viewBox="8.7 2.9 78.8 91.2" style="enable-background:new 8.7 2.9 78.8 91.2;" xml:space="preserve">
<style type="text/css">
	.st0{opacity:0.4;}
	.st1{fill:#33CC00;}
	.st2{enable-background:new    ;}
	.st3{fill:#0066FF;}
	.st4{opacity:0.302;}
	.st5{opacity:0.3294;}
	.st6{fill:url(#polygon32_1_);}
	.st7{fill:url(#path38_1_);}
	.st8{fill:url(#path44_1_);}
	.st9{opacity:5.000000e-02;}
	.st10{opacity:6.000000e-02;}
	.st11{opacity:0.15;}
	.st12{opacity:0.149;}
	.st13{fill:#AAAAAA;}
	.st14{opacity:0.2;}
	.st15{fill:url(#polygon80_1_);fill-opacity:0.3;}
	.st16{fill:url(#polygon86_1_);}
	.st17{fill:url(#path4077_1_);}
	.st18{fill:url(#path4093_1_);}
	.st19{fill:url(#path4113_1_);}
	.st20{fill:url(#path4123_1_);}
	.st21{fill:url(#path4129_1_);}
	.st22{fill:url(#path4133_1_);}
	.st23{fill:url(#path4137_1_);}
	.st24{fill:url(#path4141_1_);}
	.st25{fill:url(#path4145_1_);}
	.st26{fill:url(#path4149_1_);}
	.st27{fill:url(#path4153_1_);}
	.st28{fill:url(#path4161_1_);}
</style>
<g id="dropshadow" class="st0">
	<g id="g3756_9_">
		<g id="g3758_9_">
			<polygon id="polygon3760_9_" points="60.2,8.8 59.5,7.3 59,5.9 58.5,4.9 57.7,4 56.9,3.5 56.2,3.1 55.3,3 54,3 52.4,2.9 
				41.6,2.9 40.7,3.1 39.4,4 38.5,5 37.7,6.3 36.8,8.1 36.1,9 32.8,10.4 30,11.4 27.2,12.3 25.3,12.8 23.4,13.6 22.7,14 22.1,14.6 
				21.1,16.6 19.8,18.5 17.9,21.6 17.1,23.2 16,25 14.7,27.2 13,30.4 12,32.4 11.3,33.9 10.7,34.9 10.2,35.7 9.7,36.5 9.1,37.3 
				8.7,37.7 10.1,38.6 13.5,40.6 15.6,41.8 17.4,42.9 19.1,43.9 20.3,44.5 21.5,45.1 26.2,36.7 26.6,37.3 26.7,39.3 26.8,42.1 
				26.8,44.2 27.1,47.3 27.6,50.2 27.9,52.5 28.3,54.6 28.5,56.7 28.8,59 29,61.3 29.2,63.7 29.2,66.9 29,69.1 28.8,71.1 28.5,73.4 
				28.3,75.7 28.1,77.6 27.8,78.4 27.6,79.4 27.7,80.5 28,81.5 28,82.3 27.8,83.2 27.9,84.3 28,85.4 27.9,86.1 27.9,88.1 27.7,89 
				27.3,89.4 27.1,90.2 27.2,90.8 26.7,91.3 27.1,91.9 28.5,92.7 29.6,93.2 31,93.6 32.8,93.9 35.3,94 39,94.1 41.9,94 43.8,93.8 
				45.8,93.6 47.9,93.5 51,93.5 52.6,93.8 53.9,94 55.5,94.1 58.4,94.1 60.2,94 62.5,93.9 64.2,93.8 65.6,93.6 66.9,93.2 68,92.7 
				69.4,91.8 69.7,91 69.4,87 69,81.8 68.3,75.4 68.1,70.2 67.8,63.1 67.8,58.7 68,56.2 68.3,54.1 69,49.8 69.4,45.3 69.7,40.3 
				69.8,37.5 69.9,36.5 74.4,45.1 74.9,45.2 87.5,38 74.4,15 74.1,14.4 73.5,13.9 72.8,13.5 			"/>
		</g>
	</g>
</g>
<g id="main_x5F_color_1_">
	<g id="main_x5F_color">
		<g id="g6">
			<polygon id="polygon8" class="st1" points="72.8,13.5 60.2,8.8 59.5,7.3 59,5.9 58.5,4.9 57.7,4 56.9,3.5 56.2,3.1 55.3,3 54,3 
				52.4,2.9 41.6,2.9 40.7,3.1 39.4,4 38.5,5 37.7,6.3 36.8,8.1 36.1,9 32.8,10.4 30,11.4 27.2,12.3 25.3,12.8 23.4,13.6 22.7,14 
				22.1,14.6 21.1,16.6 19.8,18.5 17.9,21.6 17.1,23.2 16,25 14.7,27.2 13,30.4 12,32.4 11.3,33.9 10.7,34.9 10.2,35.7 9.7,36.5 
				9.1,37.3 8.7,37.7 10.1,38.6 13.5,40.6 15.6,41.8 17.4,42.9 19.1,43.9 20.3,44.5 21.5,45.1 26.2,36.7 26.6,37.3 26.7,39.3 
				26.8,42.1 26.8,44.2 27.1,47.3 27.6,50.2 27.9,52.5 28.3,54.6 28.5,56.7 28.8,59 29,61.3 29.2,63.7 29.2,66.9 29,69.1 28.8,71.1 
				28.5,73.4 28.3,75.7 28.1,77.6 27.8,78.4 27.6,79.4 27.7,80.5 28,81.5 28,82.3 27.8,83.2 27.9,84.3 28,85.4 27.9,86.1 27.9,88.1 
				27.7,89 27.3,89.4 27.1,90.2 27.2,90.8 26.7,91.3 27.1,91.9 28.5,92.7 29.6,93.2 31,93.6 32.8,93.9 35.3,94 39,94.1 41.9,94 
				43.8,93.8 45.8,93.6 47.9,93.5 51,93.5 52.6,93.8 53.9,94 55.5,94.1 58.4,94.1 60.2,94 62.5,93.9 64.2,93.8 65.6,93.6 66.9,93.2 
				68,92.7 69.4,91.8 69.7,91 69.4,87 69,81.8 68.3,75.4 68.1,70.2 67.8,63.1 67.8,58.7 68,56.2 68.3,54.1 69,49.8 69.4,45.3 
				69.7,40.3 69.8,37.5 69.9,36.5 74.4,45.1 74.9,45.2 87.5,38 74.4,15 74.1,14.4 73.5,13.9 			"/>
		</g>
	</g>
</g>
<g id="sleeves_1_" class="st2">
	<g id="sleeves">
		<g>
			<path class="st3" d="M61.7,14v-1.6l-0.2-0.8L61.4,11L61,10l-0.4-0.6L60.4,9V8.9l-0.2-0.1l-0.7-1.5L59,5.9l-0.4-1L57.7,4l-0.8-0.5
				l-0.6-0.4L55.3,3H54l-1.6-0.1H41.6l-0.9,0.2L39.4,4l-0.9,1l-0.9,1.3l-0.9,1.8L36.1,9L36,9l0,0.1l-0.4,0.8l-0.4,0.7L35,11.5
				l-0.2,0.7L34.6,13V14l0,0.9l-0.1,0.8l0,0.6l0,0.7l-0.1,0.4l1.2-0.1l0.9-0.2l0.6-0.2l0.8-0.2l0.8-0.2l0.8-0.2l0.9,0H41l0.4-0.4
				l0.4-0.4l0.1-0.6v-1.1l0.1-0.7l0.6,0.5l0.5,0.8l0.6,0.8l0.7,0.9l0.5,0.7l0.5,1l0.4,1l0.4,0.8l0.6,1l0.4,0.9l0.4,0.7l0.2,0.6
				l0.3,0.4l0.4,0.5l0.5-0.4l0.7-1.5l0.6-1.7l0.5-1.3l0.5-1.2l0.5-0.9l0.6-0.8l0.6-0.9l0.4-0.8l0.4-0.6l0.5-0.5l0.1,0.6l0.1,0.6v0.6
				l0.2,0.4l0.3,0.3l0.1,0.4h0.6l0.6-0.1l0.7,0.1l0.8,0.1l1,0.2l0.6,0.1c0,0,0.5,0.2,0.7,0.2c0.2,0,0.8,0.2,0.8,0.2l0.5,0.1h0.5v-1
				l0-1.2L61.7,14z M56.6,9.1l-0.2,0.5l-0.3,0.5l-0.3,0.6l-0.4,0.5l-0.5,0.8l-0.3,0.3l-0.4,0.5l-1,0.6l-1.4,0.1l-1.1,0.2l-1.2,0.1
				l-0.9,0l-0.7,0l-1-0.1l-1.2-0.1l-1-0.2L44,13.3l-0.6-0.2L42.7,13l-1.2-0.9L41,11.5l-0.4-0.6l-0.3-0.5L40,9.8l-0.2-0.6l-0.2-0.5
				l0-0.4V7.9L40,7.7l0.5,0.2L41,8.1l0.6,0.2l0.9,0.1l1,0l1.3,0l1.3,0h3l0.8,0h1.1l0.9,0l1,0l0.7-0.2l0.8-0.2l0.7-0.2l0.6-0.1h0.5
				L56.7,8l0.1,0.4L56.6,9.1z M25.6,29.7l-0.3-2.2l-0.3-2.3l-0.4-2.5L24,20.2l-0.5-2.6l-0.6-2.5L22.7,14l-0.6,0.6l-1,2l-1.4,1.9
				l-1.9,3.1l-0.8,1.6L16,25l-1.3,2.2L13,30.4l-1,2l-0.7,1.5l-0.6,1l-0.6,0.8l-0.5,0.8l-0.6,0.8l-0.4,0.4l1.4,0.9l3.5,1.9l2.1,1.2
				l1.8,1.1l1.7,1l1.2,0.6l1.1,0.6l4.8-8.4l0-0.6v-1.5l-0.3-2.4L25.6,29.7z M74.4,15l-0.3-0.6l-0.2-0.2l-0.3,0.4L72.8,16l-0.5,2.2
				l-0.5,3l-0.5,3.2l-0.5,3.3l-0.4,2.9L70,33.5L69.9,36l0,0.4l0,0l4.5,8.6l0.5,0.1L87.5,38L74.4,15z"/>
		</g>
	</g>
</g>
<g id="shadow1_1_" class="st4">
	<g id="shadow1">
		<g id="g18">
			<path id="path20" d="M44.5,17.7l-0.3-0.6l-0.3-0.3l-0.4-0.3L43,16.2l-0.5-0.1L41.6,16l-0.9,0.1l-0.8,0.1L39,16.4l-0.9,0.3
				L37.2,17l-0.6,0.1L36,17.3l-0.5,0.2l-0.4,0.1l0.1,0.2H36l0.6-0.2l0.8-0.1l0.7-0.3l0.7-0.2l0.8-0.1l0.8-0.2l0.8-0.1l0.5-0.1
				l0.5,0.1l0.5,0.2L43,17l0.5,0.5l0.4,0.3l0.3,0.4l0.3,0.4l0.4,0.4l0.4,0.5l-0.6-1.2L44.5,17.7z M60.2,17.2L59.7,17L59,16.8
				l-0.7-0.2l-0.7-0.2l-0.7-0.2l-0.7-0.1L55.6,16h-1.1L54,16.1l-0.5,0.2l-0.3,0.3l-0.4,0.7l-0.3,0.6l-0.4,0.7l-0.2,0.6l-0.2,0.8
				l0.5-0.9l0.6-0.9l0.4-0.6l0.5-0.5l0.5-0.4l0.4-0.2l0.4-0.1l0.5,0l0.7,0.2l0.6,0.1l0.8,0.2l0.5,0.2l0.5,0.1l0.6,0.2l0.6,0.1l0.5,0
				l0.7,0.1h0.6L60.2,17.2z"/>
		</g>
	</g>
</g>
<g id="shadow2_1_" class="st5">
	<g id="shadow2">
		<g id="g24">
			<polygon id="polygon26" points="56.7,7.8 56,7.8 55.6,7.9 54.9,8.1 54.3,8.2 53.7,8.3 52.2,8.4 50.9,8.4 50,8.5 44,8.5 43.3,8.4 
				42.5,8.2 41.8,8 41.2,7.9 40.6,7.7 40.1,7.8 39.8,7.9 39.6,8 39.5,8.4 39.6,8.7 40.2,10.1 40.5,10.6 40.9,11.2 41.2,11.6 
				41.6,12 42,12.5 42.5,12.8 43.2,13.1 44,13.4 44.6,13.5 45.4,13.6 46.1,13.7 46.7,13.7 47.5,13.7 48.2,13.7 47.7,13.6 45.8,13.5 
				44.4,13.2 43.5,13 42.7,12.6 42.1,12 41.8,11.7 41.4,11.2 40.9,10.6 40.5,9.9 40.2,9.3 40.1,8.9 40.1,8.6 40.4,8.5 40.6,8.5 
				41.1,8.5 41.9,8.7 42.4,8.7 43.8,8.8 44.9,8.8 45.9,8.8 47.3,8.8 48.5,8.8 52.1,8.8 52.8,8.8 53.5,8.7 54.3,8.7 54.9,8.5 
				55.3,8.5 55.7,8.4 56.1,8.4 56.3,8.6 56.3,9 56.1,9.5 55.8,10.2 55.5,10.8 55.2,11.2 54.9,11.7 54.5,12.3 53.9,12.7 53.4,13 
				52.6,13.2 51.6,13.4 50.5,13.6 49.6,13.6 49.2,13.6 48.7,13.7 48.4,13.8 50.9,13.7 51.5,13.6 52.2,13.4 52.9,13.3 53.8,13 
				54.4,12.7 54.8,12.3 55.3,11.5 55.9,10.7 56.3,10 56.6,9.3 56.8,8.7 57,8.3 56.9,8 			"/>
		</g>
	</g>
</g>
<g id="shadow3_1_">
	<g id="shadow3">
		<g id="g30">
			
				<linearGradient id="polygon32_1_" gradientUnits="userSpaceOnUse" x1="659.7675" y1="-711.9259" x2="659.7675" y2="-727.9259" gradientTransform="matrix(0.3226 0 0 -0.3226 -164.7406 -226.4277)">
				<stop  offset="0" style="stop-color:#000000;stop-opacity:0.1333"/>
				<stop  offset="1" style="stop-color:#000000;stop-opacity:0"/>
			</linearGradient>
			<polygon id="polygon32" class="st6" points="56.9,3.9 56.4,3.6 55.7,3.4 55,3.3 54.6,3.5 54,4.1 53.3,4.8 52.2,5.3 51.4,5.2 
				50.8,4.8 49.9,4.2 48.8,4 48.2,3.8 47.7,3.5 47.4,3.6 47,4.2 46.2,4.9 45.5,5.2 44.7,5.4 43.9,5.4 43.4,5 42.9,4.3 42.3,3.8 
				41.9,3.4 41.5,3.3 40.9,3.3 40.3,3.6 39.7,3.9 39.2,4.2 38.7,4.7 38.5,5.3 38.6,6 38.8,6.8 39.1,7.6 39.5,8.6 39.6,8.1 39.6,7.7 
				39.8,7.4 40.2,7.3 41.1,7.1 41.8,7.1 42.6,7.1 43.5,7.2 44.4,7.3 45.7,7.2 46.4,7 46.9,6.5 47.1,5.9 47.4,5.1 47.6,5 48.3,5.4 
				49.3,6.4 50.3,7.1 51,7.4 52.2,7.2 53.1,7.5 53.7,7.5 54.7,7.4 55.3,7.3 55.7,7.2 56.5,7.2 56.9,7.6 56.9,8.2 57.1,7.8 57.3,7.3 
				57.5,6.7 57.7,6 57.7,5.1 57.4,4.5 			"/>
		</g>
	</g>
</g>
<g id="shadow4_1_">
	<g id="shadow4">
		<g id="g36">
			
				<linearGradient id="path38_1_" gradientUnits="userSpaceOnUse" x1="660.0535" y1="-757.9259" x2="660.0535" y2="-733.9259" gradientTransform="matrix(0.3226 0 0 -0.3226 -164.7406 -226.4277)">
				<stop  offset="0" style="stop-color:#000000;stop-opacity:8.333334e-02"/>
				<stop  offset="1" style="stop-color:#000000;stop-opacity:0"/>
			</linearGradient>
			<path id="path38" class="st7" d="M34.7,15.3l0.1-1.1l0-1l0.1-1.3l0.5-1.6L35,11l-0.4,0.6l-0.3,1l0,1.2l-0.1,0.9v0.7L34,15.9
				l-0.4,0.6L33,17l-0.5,0.4l-0.3,0.4l0.4,0.1l1,0.1l0.6-0.1l0.6-0.2l0.3-0.3l0.2-0.2l-0.7,0.2v-0.7L34.7,15.3z M63.4,17.5l-0.6-0.9
				l-0.5-0.9l-0.1-2v-0.8l0-0.6l-0.4-0.5l-0.2-0.3l0.1,0.7v0.7l0.1,1.1l0.1,0.9l0.1,0.9v1.5l-0.8,0.3l0.9,0.1l0.8,0.2l0.7,0.1l0.6,0
				L63.4,17.5z"/>
		</g>
	</g>
</g>
<g id="shadow5_1_">
	<g id="shadow5">
		<g id="g42">
			
				<linearGradient id="path44_1_" gradientUnits="userSpaceOnUse" x1="660.071" y1="-766.9259" x2="660.071" y2="-828.9259" gradientTransform="matrix(0.3226 0 0 -0.3226 -164.7406 -226.4277)">
				<stop  offset="0" style="stop-color:#000000;stop-opacity:0.1167"/>
				<stop  offset="1" style="stop-color:#000000;stop-opacity:0"/>
			</linearGradient>
			<path id="path44" class="st8" d="M22.7,23l-0.3-1.7l-0.2,2.2v14.3l0.6-2.7l0.6-3.5l0.2-2.6l-0.2-3.1L22.7,23z M25.7,28.7
				l-0.4-1.5l-0.8-1.6l-1-2.3l0.5,1.8l0.4,1.5l0.4,1L25.7,28.7z M25.7,31.3l-0.5-1.8l-0.7-1.2l0.6,2.5l0.2,2.1l0.2,1.5l0.1,1.4
				l0.5-1.4l-0.2-1.7L25.7,31.3z M71.5,26.4l-0.6,1.3l-0.5,1.2l1.8-3.1l0.6-2.1L72,25L71.5,26.4z M73.6,24l-0.3,4.2v2.4l0.2,2.5
				l0.3,2.7l0.6-6.1l0.1-4.1v-2.4L74.2,21L73.6,24z M75.9,26.6l-0.6,2.6v5.6l-0.1,2.3L75.2,39l0.7-3.8l0.5-4.8v-2L75.9,26.6z
				 M21,31.8l-0.4-6.5l-0.5,0.8L20,28.3v3l0.6,4.8l0.6,5.2l0.2-2.8l-0.1-2.5L21,31.8z M70.6,31.2l-0.1,2.7v1.5l0.6,2l-0.1-2v-2.6
				l0.4-2.6l0.7-2.4l-1.1,2L70.6,31.2z"/>
		</g>
	</g>
</g>
<g id="shadow6_1_" class="st9">
	<g id="shadow6">
		<g id="g48">
			<path id="path50" d="M36.8,49.7l1-5.6l0.4-5.5l-1.9,4.6l-0.9,4.1l-0.4,2.9L34.6,57l-0.8,6.9l0.8-3.7l0.8-3.8L36.8,49.7z
				 M39.4,43.3l-0.8,3.3l-0.6,4l-0.9,4.7l-0.6,3.9l-0.6,2.5l-0.8,3l-0.2,1.6l1.6-1.7L37,63l0.9-3.4l1.1-9.1l1-5.7l1-7.2l-1,2.8
				L39.4,43.3z M65.9,69.5l-0.9-2.8l-0.8-2.8l-0.8-4.2l-1-4.4l-0.8-4.4l-0.8-2.8l-0.9-4.6l-1.1-4.1l-0.5-0.8l-0.4,1.3l0.4,3.5
				l0.9,4.2l0.8,4.9l0.9,4.8l1,4.1l1.6,4.6l1.2,2.3l1.3,2.7L65.9,69.5z M60.5,62.3l-0.8-3.8l-1.1-6.2L57,42.4l-0.1,5.3l0.5,4.1
				l0.6,5.5l0.9,5.1l1.1,3.7l1.6,3.3L61,65.9L60.5,62.3z"/>
		</g>
	</g>
</g>
<g id="shadow7_1_" class="st10">
	<g id="shadow7">
		<g id="g54">
			<path id="path56" d="M62.7,88.7l-0.7-1.2l-1.1-2.1l-1.3-3.2L59.3,84l0.5,2.3l0.8,2.3l1.3,1.9l1.2,0.5l0.6-1L62.7,88.7z M36,85.5
				l-1.3,2.4l-2.2,2.3h1.2l1.8-0.9l1.5-2.2l0.6-2.1l0.5-3.5l-1,1.9L36,85.5z M47.6,85.9l-0.3,0.7l0.2,1.2L47,89.4l1.3-1.3l0.5-0.6
				l0.1-1l-0.2-0.6H47.6z"/>
		</g>
	</g>
</g>
<g id="shadow8_1_" class="st11">
	<g id="shadow8">
		<g id="g60">
			<path id="path62" d="M28.4,89.2l-0.3,1l0.6-0.2l0.6-0.4l0.6-0.6l-0.6-0.2L28.4,89.2z M67.9,89.4l-0.4-0.6l-0.7-0.2l-0.5-0.3v1
				L65,89.3l-0.6-0.7l-0.6-2.3v2.3l0.3,1.1l0.8,0.3l1.3-0.2h1l1,0.7L67.9,89.4z"/>
		</g>
	</g>
</g>
<g id="sawing1_1_" class="st12">
	<g id="sawing1">
		<g id="g66">
			<path id="path68" class="st13" d="M18.4,40.7l-4.5-2.6l0,0l-3.7-2.3l-0.2,0.3l3.7,2.3l0.1-0.1l-0.1,0.1l4.3,2.6l0,0l4.7,2
				l0.1-0.3L18.4,40.7L18.4,40.7z M14.6,39.3l-2.8-1.7l-0.1,0.1l0.1-0.1l-2-1.2l-0.2,0.3l2,1.2l2.8,1.7l0.1-0.1l-0.1,0.1l3.3,1.9
				l0.1-0.1l-0.1,0.1l4.4,2.2l0.2-0.3L18,41.3L14.6,39.3z M77.3,41.3l0.1,0.1l2.8-1.5l-0.1-0.1l0.1,0.1l2.8-1.6L83,38.1l0.1,0.1
				l3.2-2L86.2,36L83,38l-2.8,1.6l-2.8,1.5l-3.9,2l0.1,0.3l3.9-2L77.3,41.3z M86.5,36.8l-0.2-0.3l-2.5,1.6l-3.7,2.1l0,0l-6.3,3.5
				l0.2,0.3l6.3-3.5l-0.1-0.1l0.1,0.1l3.7-2.2l-0.1-0.1l0.1,0.1L86.5,36.8z"/>
		</g>
	</g>
</g>
<g id="sawing2_1_" class="st14">
	<g id="sawing2">
		<g id="g72">
			<polygon id="polygon74" class="st13" points="69.5,89.6 69,90.2 67.5,90.9 65.4,91.4 62.9,91.6 60,91.6 60,91.8 60,91.6 
				56.9,91.7 54.4,91.6 54.4,91.8 54.4,91.6 51.8,91.6 50.1,91.3 50.1,91.5 50.1,91.3 48.9,91.1 48.8,91.3 48.8,91.1 47.7,91.1 
				47.7,91.3 47.6,91.1 45.8,91.5 45.8,91.5 44.4,91.6 41,91.6 41,91.8 41,91.6 35.1,91.6 32.4,91.6 30.4,91.4 28.5,90.7 28.5,90.7 
				27.4,90.2 27.2,90.5 28.5,91.1 28.5,91.1 30.4,91.7 30.4,91.5 30.4,91.7 32.4,91.9 32.4,91.7 32.4,91.9 35.1,92 35.1,91.8 
				35.1,92 41,91.9 44.4,91.9 44.4,91.7 44.4,91.9 45.8,91.8 45.8,91.9 47.7,91.4 48.8,91.4 50.1,91.6 50.1,91.6 51.7,92 51.7,91.8 
				51.7,92 54.4,92 56.9,92 56.9,91.9 56.9,92 60,92 63,92 63,92 65.4,91.7 65.4,91.5 65.4,91.7 67.6,91.3 67.6,91.1 67.6,91.2 
				69.1,90.4 69.1,90.3 69.2,90.4 69.7,89.8 			"/>
		</g>
	</g>
</g>
<g id="shadow_x5F_shoulders_1_">
	<g id="shadow_x5F_shoulders">
		<g id="g78">
			
				<linearGradient id="polygon80_1_" gradientUnits="userSpaceOnUse" x1="659.821" y1="-728.9259" x2="659.821" y2="-776.9259" gradientTransform="matrix(0.3226 0 0 -0.3226 -164.7406 -226.4277)">
				<stop  offset="0" style="stop-color:#FFFFFF;stop-opacity:0.4"/>
				<stop  offset="1" style="stop-color:#FFFFFF;stop-opacity:0"/>
			</linearGradient>
			<polygon id="polygon80" class="st15" points="17.4,42.9 19.1,43.9 20.3,44.5 21.5,45.1 26.2,36.7 26.6,37.3 26.7,39.3 26.8,42.1 
				26.8,44.2 27.1,47.3 27.6,50.2 27.9,52.5 28.3,54.6 28.3,54.8 68.2,54.8 68.3,54.1 69,49.8 69.4,45.3 69.7,40.3 69.8,37.5 
				69.9,36.5 74.4,45.1 74.9,45.2 87.5,38 74.4,15 74.1,14.4 73.5,13.9 72.8,13.5 60.3,8.8 60.2,9.1 60.9,10.2 61.3,11.5 61.7,13.4 
				61.9,15.1 61.9,17.3 61.2,17.5 59.8,17.4 57.6,16.6 56.4,16.3 55.4,16.3 54.3,16.4 53.3,16.7 52.4,17.7 51.4,18.9 50.2,20.8 
				49.4,22.6 48.5,23.9 47.9,23.6 47.3,22.6 46.5,21.2 45.6,19.9 44.9,18.9 44.1,17.5 43.2,16.8 42.3,16.3 41.4,16.1 40.1,16.2 
				38.9,16.5 37.6,16.8 36.2,17.1 34.5,17.7 34.6,16.6 34.7,15.2 34.7,13.9 34.8,12.7 35,11.5 35.6,10.4 36,9.3 36.1,9 32.8,10.4 
				30,11.4 27.2,12.3 25.3,12.8 23.4,13.6 22.7,14 22.1,14.6 21.1,16.6 19.8,18.5 17.9,21.6 17.1,23.2 16,25 14.7,27.2 13,30.4 
				12,32.4 11.3,33.9 10.7,34.9 10.2,35.7 9.7,36.5 9.1,37.3 8.7,37.7 10.1,38.6 13.5,40.6 15.6,41.8 			"/>
		</g>
	</g>
</g>
<g id="shadow_x5F_body_1_">
	<g id="shadow_x5F_body">
		<g id="g84">
			
				<linearGradient id="polygon86_1_" gradientUnits="userSpaceOnUse" x1="659.925" y1="-992.9259" x2="659.925" y2="-820.9259" gradientTransform="matrix(0.3226 0 0 -0.3226 -164.7406 -226.4277)">
				<stop  offset="0" style="stop-color:#000000;stop-opacity:0.145"/>
				<stop  offset="1" style="stop-color:#000000;stop-opacity:0"/>
			</linearGradient>
			<polygon id="polygon86" class="st16" points="68.3,54.1 69,49.8 69.4,45.3 69.7,40.3 69.8,37.5 69.8,35.7 69.8,33.8 70,31.5 
				70.2,29.5 70.6,27.1 71,25.3 71.9,22.1 72.6,19.6 73.2,17.7 74,15.3 74.3,14.7 74.1,14.4 73.5,13.9 72.8,13.5 60.3,8.8 60.2,9.1 
				60.9,10.2 61.3,11.5 61.7,13.4 61.9,15.1 61.9,17.3 61.2,17.5 59.8,17.4 57.6,16.6 56.4,16.3 55.4,16.3 54.3,16.4 53.3,16.7 
				52.4,17.7 51.4,18.9 50.2,20.8 49.4,22.6 48.5,23.9 47.9,23.6 47.3,22.6 46.5,21.2 45.6,19.9 44.9,18.9 44.1,17.5 43.2,16.8 
				42.3,16.3 41.4,16.1 40.1,16.2 38.9,16.5 37.6,16.8 36.2,17.1 34.5,17.7 34.6,16.6 34.7,15.2 34.7,13.9 34.8,12.7 35,11.5 
				35.6,10.4 36,9.3 36.1,9 32.8,10.4 30,11.4 27.2,12.3 25.3,12.8 23.4,13.6 22.7,14 22.1,14.6 22,14.8 22.3,15.6 22.9,17 
				23.3,18.4 23.8,19.9 24.3,21.3 24.8,23.4 25.6,25.5 25.9,27.1 26.1,28.8 26.4,30.7 26.5,33 26.5,34.2 26.5,36 26.6,37.3 
				26.6,37.3 26.7,39.3 26.8,42.1 26.8,44.2 27.1,47.3 27.6,50.2 27.9,52.5 28.3,54.6 28.5,56.7 28.8,59 29,61.3 29.2,63.7 
				29.2,66.9 29,69.1 28.8,71.1 28.5,73.4 28.3,75.7 28.1,77.6 27.8,78.4 27.6,79.4 27.7,80.5 28,81.5 28,82.3 27.8,83.2 27.9,84.3 
				28,85.4 27.9,86.1 27.9,88.1 27.7,89 27.3,89.4 27.1,90.2 27.2,90.8 26.7,91.3 27.1,91.9 28.5,92.7 29.6,93.2 31,93.6 32.8,93.9 
				35.3,94 39,94.1 41.9,94 43.8,93.8 45.8,93.6 47.9,93.5 51,93.5 52.6,93.8 53.9,94 55.5,94.1 58.4,94.1 60.2,94 62.5,93.9 
				64.2,93.8 65.6,93.6 66.9,93.2 68,92.7 69.4,91.8 69.7,91 69.4,87 69,81.8 68.3,75.4 68.1,70.2 67.8,63.1 67.8,58.7 68,56.2 			
				"/>
		</g>
	</g>
</g>
<linearGradient id="path4077_1_" gradientUnits="userSpaceOnUse" x1="617.8636" y1="-754.2601" x2="637.8438" y2="-732.2819" gradientTransform="matrix(0.3226 0 0 -0.3226 -164.7406 -226.4277)">
	<stop  offset="0" style="stop-color:#000000;stop-opacity:0.145"/>
	<stop  offset="1" style="stop-color:#000000;stop-opacity:0"/>
</linearGradient>
<path id="path4077" class="st17" d="M35.9,16.8c2-1.3,3.9-1.3,6.3-1.4c-3.5-1.8-4.4-6.5-4-9.5C37.6,8.2,35.6,11.1,35.9,16.8z"/>
<linearGradient id="path4093_1_" gradientUnits="userSpaceOnUse" x1="702.3069" y1="-748.1866" x2="681.3069" y2="-732.1866" gradientTransform="matrix(0.3226 0 0 -0.3226 -164.7406 -226.4277)">
	<stop  offset="0" style="stop-color:#FFFFFF;stop-opacity:0.125"/>
	<stop  offset="1" style="stop-color:#FFFFFF;stop-opacity:0"/>
</linearGradient>
<path id="path4093" class="st18" d="M53.9,15.5c2.8-0.8,4.9,0.6,7.3,1.4c0.9-2.6-0.9-6.8-2.6-11.2C57.6,9,56,13.3,53.9,15.5z"/>
<linearGradient id="path4113_1_" gradientUnits="userSpaceOnUse" x1="576.4464" y1="-765.9921" x2="577.4464" y2="-799.9921" gradientTransform="matrix(0.3226 0 0 -0.3226 -164.7406 -226.4277)">
	<stop  offset="0" style="stop-color:#FFFFFF;stop-opacity:0.125"/>
	<stop  offset="1" style="stop-color:#FFFFFF;stop-opacity:0"/>
</linearGradient>
<path id="path4113" class="st19" d="M21.4,21c0.5,3.9,0.4,7.9-0.1,11.8C21,29,21,25.1,21.4,21z"/>
<linearGradient id="path4123_1_" gradientUnits="userSpaceOnUse" x1="576.2755" y1="-765.9971" x2="577.2755" y2="-799.9971" gradientTransform="matrix(0.3226 0 0 -0.3226 -162.3315 -225.095)">
	<stop  offset="0" style="stop-color:#FFFFFF;stop-opacity:0.125"/>
	<stop  offset="1" style="stop-color:#FFFFFF;stop-opacity:0"/>
</linearGradient>
<path id="path4123" class="st20" d="M22.9,22.5c1.5,4.2,2.4,8.4,0.5,11.9C24.4,30.4,23.6,26.4,22.9,22.5z"/>
<linearGradient id="path4129_1_" gradientUnits="userSpaceOnUse" x1="570.0018" y1="-691.4873" x2="571.0018" y2="-725.4873" gradientTransform="matrix(0.3226 0 0 -0.345 -146.903 -200.0324)">
	<stop  offset="0" style="stop-color:#FFFFFF;stop-opacity:0.125"/>
	<stop  offset="1" style="stop-color:#FFFFFF;stop-opacity:0"/>
</linearGradient>
<path id="path4129" class="st21" d="M39,38.8c0.7,5.3-2.9,18.8-3.5,22.4C35.2,57.1,38.7,43.1,39,38.8z"/>
<linearGradient id="path4133_1_" gradientUnits="userSpaceOnUse" x1="581.3804" y1="-691.1526" x2="582.3804" y2="-725.1526" gradientTransform="matrix(0.3226 0 0 -0.345 -128.2453 -199.3148)">
	<stop  offset="0" style="stop-color:#FFFFFF;stop-opacity:0.125"/>
	<stop  offset="1" style="stop-color:#FFFFFF;stop-opacity:0"/>
</linearGradient>
<path id="path4133" class="st22" d="M57.7,39.5c0.7,5.3,4.6,20.5,4,24.1C61,60.7,56.9,45.4,57.7,39.5z"/>
<linearGradient id="path4137_1_" gradientUnits="userSpaceOnUse" x1="574.9127" y1="-691.3428" x2="575.9127" y2="-725.3428" gradientTransform="matrix(0.3226 0 0 -0.345 -112.9706 -216.6398)">
	<stop  offset="0" style="stop-color:#FFFFFF;stop-opacity:0.125"/>
	<stop  offset="1" style="stop-color:#FFFFFF;stop-opacity:0"/>
</linearGradient>
<path id="path4137" class="st23" d="M73.5,22c0,5.2-1.1,10.2-1.4,13.8C71.4,33,72.4,27.9,73.5,22z"/>
<linearGradient id="path4141_1_" gradientUnits="userSpaceOnUse" x1="574.4517" y1="-691.3564" x2="575.4517" y2="-725.3564" gradientTransform="matrix(0.3226 0 0 -0.345 -111.074 -215.9735)">
	<stop  offset="0" style="stop-color:#FFFFFF;stop-opacity:0.125"/>
	<stop  offset="1" style="stop-color:#FFFFFF;stop-opacity:0"/>
</linearGradient>
<path id="path4141" class="st24" d="M74.4,22.2c1.2,5.2,0.4,10.8-0.5,14.4C74.3,33.7,75.1,28.1,74.4,22.2z"/>
<linearGradient id="path4145_1_" gradientUnits="userSpaceOnUse" x1="576.7614" y1="-691.2885" x2="577.7614" y2="-725.2885" gradientTransform="matrix(0.3226 0 0 -0.345 -115.4566 -215.2815)">
	<stop  offset="0" style="stop-color:#FFFFFF;stop-opacity:0.125"/>
	<stop  offset="1" style="stop-color:#FFFFFF;stop-opacity:0"/>
</linearGradient>
<path id="path4145" class="st25" d="M72.5,26.4c-2,4-3.3,6.7-2.9,10.8C68.7,34.3,69,31.6,72.5,26.4z"/>
<linearGradient id="path4149_1_" gradientUnits="userSpaceOnUse" x1="579.1707" y1="-691.2177" x2="580.1707" y2="-725.2177" gradientTransform="matrix(0.3226 0 0 -0.345 -128.0491 -156.737)">
	<stop  offset="0" style="stop-color:#FFFFFF;stop-opacity:0.125"/>
	<stop  offset="1" style="stop-color:#FFFFFF;stop-opacity:0"/>
</linearGradient>
<path id="path4149" class="st26" d="M57.9,82c0.7,5.3,2.7,5.7,2.2,9.2C59.4,88.4,57.1,87.9,57.9,82z"/>
<linearGradient id="path4153_1_" gradientUnits="userSpaceOnUse" x1="570.2977" y1="-691.4786" x2="571.2977" y2="-725.4786" gradientTransform="matrix(0.3226 0 0 -0.345 -147.0325 -157.1785)">
	<stop  offset="0" style="stop-color:#FFFFFF;stop-opacity:0.125"/>
	<stop  offset="1" style="stop-color:#FFFFFF;stop-opacity:0"/>
</linearGradient>
<path id="path4153" class="st27" d="M38.6,81.7c1,5.6-1.4,6.5-3.2,9.2C35.8,88.7,38.6,88.1,38.6,81.7z"/>
<linearGradient id="path4161_1_" gradientUnits="userSpaceOnUse" x1="661.1516" y1="-709.9259" x2="661.1516" y2="-718.9259" gradientTransform="matrix(0.3226 0 0 -0.3226 -164.7406 -226.4277)">
	<stop  offset="0" style="stop-color:#FFFFFF;stop-opacity:7.500000e-02"/>
	<stop  offset="1" style="stop-color:#FFFFFF;stop-opacity:0"/>
</linearGradient>
<path id="path4161" class="st28" d="M39.7,4.6c-0.1-1.9,18.5-2,17.6,0.3C52,3,45.2,3.2,39.7,4.6z"/>
</svg>
