<svg xmlns="http://www.w3.org/2000/svg" width="9" height="9">
    <path fill="#14D883" fill-rule="evenodd" d="M8.01 3.107V1.702H1.042v1.437H-.004V.506H8.01V.004h.996v3.103H8.01zm-3.381.299c1.467 0 2.661 1.253 2.661 2.793 0 1.54-1.194 2.792-2.661 2.792s-2.66-1.252-2.66-2.792c0-1.54 1.193-2.793 2.66-2.793zm2.333 2.802l.139.037a2.67 2.67 0 0 0-.491-1.599l-.069.317.421 1.245zm-1.87 2.521l1.028-.461c.056-.044.109-.09.161-.139l.18-1.018-1.168-.151-.875 1.033.674.736zM3.526 5.48l1.369.273.736-1.106-.895-.877-1.251.472.041 1.238zm-1.37.719c0 .736.294 1.401.765 1.874l.407-.367-.482-1.304-.689-.249-.001.046z"/>
</svg>
