<svg xmlns="http://www.w3.org/2000/svg" width="11" height="11">
    <path fill="#ED334D" fill-rule="evenodd" d="M10.65 5.966l-.981-.112c.087-.771-.068-1.364-.473-1.813-1.101-1.216-3.784-1.17-5.385-1.139l-.259.004v1.306L.74 2.576 3.552.942v.97l.241-.003c1.766-.032 4.731-.085 6.132 1.464.599.662.843 1.535.725 2.593zM2.836 2.191l-.663.385.663.386v-.771zm3.018 2.462c1.726 0 3.129 1.414 3.129 3.151 0 1.738-1.403 3.151-3.129 3.151-1.725 0-3.129-1.413-3.129-3.151 0-1.737 1.404-3.151 3.129-3.151zm2.744 3.162l.164.042.002-.053c0-.656-.216-1.263-.579-1.751l-.081.357.494 1.405zM6.399 10.66l1.209-.52c.065-.051.128-.103.189-.158l.211-1.149-1.373-.17-1.029 1.165.793.832zM4.557 6.993l1.61.308.866-1.248-1.053-.989-1.472.533.049 1.396zm-1.612.811c0 .831.346 1.582.9 2.115l.479-.414-.567-1.471-.81-.282-.002.052z"/>
</svg>
