<svg xmlns="http://www.w3.org/2000/svg" width="17" height="20">
    <path fill="#FFF" fill-rule="evenodd" d="M9.139 2.611c-.69.433-1.164.951-1.421 1.555-.258.603-.386 1.641-.386 3.113v3.163c0 1.192-.218 2.096-.654 2.711-.436.615-1.286 1.19-2.551 1.725.65-.685 1.082-1.296 1.297-1.832.214-.536.321-1.287.321-2.251V6.389c0-1.178.256-2.123.769-2.834.512-.711 1.542-1.442 3.09-2.192l-.22-.477c-.6.257-1.085.428-1.453.514a5.004 5.004 0 0 1-1.142.129c-.536 0-1.237-.107-2.102-.321C3.822.994 3.203.886 2.832.886a2.74 2.74 0 0 0-1.427.403A2.54 2.54 0 0 0 .402 2.354c-.218.441-.337.988-.359 1.64H.45c.072-.557.218-.945.44-1.162.221-.219.493-.328.815-.328.171 0 .46.047.868.14.707.171 1.279.257 1.715.257.678 0 1.507-.162 2.486-.485-1.036.678-1.74 1.208-2.111 1.589a3.356 3.356 0 0 0-.793 1.263c-.158.46-.251 1.193-.279 2.199a9.33 9.33 0 0 0-.986-.064c-.715 0-1.302.203-1.763.609-.461.407-.728.951-.799 1.636l.413.144c.164-.335.328-.556.492-.664a1.85 1.85 0 0 1 1.059-.311c.643 0 1.121.254 1.434.761.2.315.303.822.311 1.522a9.275 9.275 0 0 0-.365-.01c-.671 0-1.209.192-1.613.577-.404.385-.605.877-.605 1.476 0 .064.003.164.01.299l.392.006c.064-.379.188-.651.374-.815.185-.164.424-.246.716-.246.321 0 .586.102.797.305.21.204.315.463.315.777 0 .265-.091.551-.273.858-.182.307-.6.793-1.254 1.457-.654.665-1.079 1.174-1.276 1.528-.196.353-.294.669-.294.948 0 .3.08.545.241.734.161.19.341.285.541.285a.492.492 0 0 0 .354-.161.514.514 0 0 0 .161-.375c0-.151-.074-.352-.22-.606-.147-.254-.22-.445-.22-.574 0-.343.257-.686.772-1.029.765-.514 1.78-.771 3.046-.771a9.08 9.08 0 0 1 2.896.45c.558.179 1.147.482 1.769.911 1.792-1.486 3.959-2.372 6.501-2.658v-3.688c0-.836-.089-1.433-.268-1.79-.178-.358-.49-.651-.936-.88-.447-.228-1.148-.386-2.105-.472 1.121-.85 1.89-1.584 2.308-2.202.417-.617.626-1.216.626-1.794 0-.707-.268-1.333-.802-1.876-.378-.385-.938-.678-1.679-.878-2.325.718-3.832 1.293-4.522 1.725zm4.362.47c.367.432.551.948.551 1.548 0 .728-.236 1.405-.707 2.03-.472.625-1.201 1.234-2.187 1.826V5.698h-.472v8.929a9.408 9.408 0 0 0-2.797-.408 12.8 12.8 0 0 0-1.876.151c1.244-.729 2.069-1.284 2.476-1.667.407-.382.682-.772.825-1.167.143-.397.215-.988.215-1.774V5.369c0-.792.052-1.355.156-1.687.103-.333.29-.62.558-.863.269-.243.791-.539 1.564-.889.763.335 1.327.719 1.694 1.151zm-2.343 5.908c.279-.15.807-.482 1.586-.996.615.263 1.033.546 1.254.846.222.3.333.697.333 1.189-.586.208-1.115.311-1.587.311-.471 0-1-.103-1.586-.311V8.989zm3.173 3.419c-.622-.2-1.165-.3-1.63-.3-.478 0-.993.1-1.543.3V10.5c.564.214 1.093.322 1.586.322.458 0 .986-.108 1.587-.322v1.908zm0 1.968c-.808.216-1.575.515-2.304.896a6.644 6.644 0 0 0-.869-.463v-1.908c.522-.236 1.022-.354 1.501-.354.457 0 1.014.118 1.672.354v1.475z"/>
</svg>
