<?xml version="1.0" encoding="utf-8"?>
<!-- Generator: Adobe Illustrator 17.0.0, SVG Export Plug-In . SVG Version: 6.00 Build 0)  -->
<!DOCTYPE svg PUBLIC "-//W3C//DTD SVG 1.1//EN" "http://www.w3.org/Graphics/SVG/1.1/DTD/svg11.dtd">
<svg version="1.1" id="Слой_1" xmlns="http://www.w3.org/2000/svg" xmlns:xlink="http://www.w3.org/1999/xlink" x="0px" y="0px"
	 width="100px" height="100px" viewBox="0 0 100 100" enable-background="new 0 0 100 100" xml:space="preserve">
<g id="dropshadow" opacity="0.4">
	<g id="g3756_9_">
		<g id="g3758_9_">
			<polygon id="polygon3760_9_" points="62.242,8.79 61.516,7.339 60.952,5.887 60.548,4.919 59.661,4.032 58.855,3.548 
				58.21,3.145 57.323,2.984 56.032,2.984 54.419,2.903 43.613,2.903 42.726,3.065 41.435,3.952 40.548,5 39.661,6.29 38.774,8.065 
				38.129,8.952 34.823,10.403 32,11.371 29.177,12.258 27.323,12.823 25.387,13.629 24.742,13.952 24.097,14.597 23.129,16.613 
				21.758,18.548 19.903,21.613 19.097,23.226 17.968,25 16.677,27.177 14.984,30.403 14.016,32.419 13.29,33.871 12.726,34.919 
				12.161,35.726 11.677,36.532 11.113,37.339 10.71,37.742 12.081,38.629 15.548,40.565 17.645,41.774 19.419,42.903 
				21.113,43.871 22.323,44.516 23.452,45.081 28.21,36.694 28.613,37.258 28.694,39.274 28.774,42.097 28.774,44.194 
				29.097,47.258 29.581,50.242 29.903,52.5 30.306,54.597 30.548,56.694 30.79,59.032 31.032,61.29 31.194,63.71 31.194,66.855 
				31.032,69.113 30.79,71.129 30.468,73.387 30.306,75.726 30.145,77.581 29.823,78.387 29.581,79.355 29.742,80.484 
				29.984,81.452 29.984,82.339 29.823,83.226 29.903,84.274 29.984,85.403 29.903,86.129 29.903,88.065 29.742,88.952 
				29.339,89.435 29.097,90.242 29.177,90.806 28.694,91.29 29.097,91.855 30.468,92.742 31.597,93.226 33.048,93.629 
				34.823,93.871 37.323,93.952 40.952,94.113 43.935,94.032 45.79,93.79 47.806,93.629 49.903,93.548 52.968,93.548 54.581,93.79 
				55.871,94.032 57.484,94.113 60.387,94.113 62.161,93.952 64.5,93.871 66.194,93.79 67.645,93.629 68.855,93.226 69.984,92.661 
				71.355,91.774 71.677,90.968 71.435,87.016 70.952,81.774 70.306,75.403 70.065,70.161 69.823,63.145 69.823,58.71 69.984,56.21 
				70.306,54.113 70.952,49.758 71.435,45.323 71.677,40.323 71.758,37.5 71.919,36.452 76.435,45.081 76.919,45.161 89.5,37.984 
				76.435,15 76.113,14.355 75.548,13.871 74.823,13.468 			"/>
		</g>
	</g>
</g>
<g id="main_x5F_color_1_">
	<g id="main_x5F_color">
		<g id="g6">
			<polygon id="polygon8" fill="#33CC00" points="74.823,13.468 62.242,8.79 61.516,7.339 60.952,5.887 60.548,4.919 59.661,4.032 
				58.855,3.548 58.21,3.145 57.323,2.984 56.032,2.984 54.419,2.903 43.613,2.903 42.726,3.065 41.435,3.952 40.548,5 39.661,6.29 
				38.774,8.065 38.129,8.952 34.823,10.403 32,11.371 29.177,12.258 27.323,12.823 25.387,13.629 24.742,13.952 24.097,14.597 
				23.129,16.613 21.758,18.548 19.903,21.613 19.097,23.226 17.968,25 16.677,27.177 14.984,30.403 14.016,32.419 13.29,33.871 
				12.726,34.919 12.161,35.726 11.677,36.532 11.113,37.339 10.71,37.742 12.081,38.629 15.548,40.565 17.645,41.774 
				19.419,42.903 21.113,43.871 22.323,44.516 23.452,45.081 28.21,36.694 28.613,37.258 28.694,39.274 28.774,42.097 
				28.774,44.194 29.097,47.258 29.581,50.242 29.903,52.5 30.306,54.597 30.548,56.694 30.79,59.032 31.032,61.29 31.194,63.71 
				31.194,66.855 31.032,69.113 30.79,71.129 30.468,73.387 30.306,75.726 30.145,77.581 29.823,78.387 29.581,79.355 
				29.742,80.484 29.984,81.452 29.984,82.339 29.823,83.226 29.903,84.274 29.984,85.403 29.903,86.129 29.903,88.065 
				29.742,88.952 29.339,89.435 29.097,90.242 29.177,90.806 28.694,91.29 29.097,91.855 30.468,92.742 31.597,93.226 
				33.048,93.629 34.823,93.871 37.323,93.952 40.952,94.113 43.935,94.032 45.79,93.79 47.806,93.629 49.903,93.548 52.968,93.548 
				54.581,93.79 55.871,94.032 57.484,94.113 60.387,94.113 62.161,93.952 64.5,93.871 66.194,93.79 67.645,93.629 68.855,93.226 
				69.984,92.661 71.355,91.774 71.677,90.968 71.435,87.016 70.952,81.774 70.306,75.403 70.065,70.161 69.823,63.145 
				69.823,58.71 69.984,56.21 70.306,54.113 70.952,49.758 71.435,45.323 71.677,40.323 71.758,37.5 71.919,36.452 76.435,45.081 
				76.919,45.161 89.5,37.984 76.435,15 76.113,14.355 75.548,13.871 			"/>
		</g>
	</g>
</g>
<g id="sleeves_1_" enable-background="new    ">
	<g id="sleeves">
		<g>
			<path fill="#0066FF" d="M61.734,13.992v-1.573l-0.161-0.766l-0.202-0.685l-0.403-0.927l-0.363-0.605l-0.161-0.444V8.865
				L60.242,8.79l-0.726-1.452l-0.565-1.452l-0.403-0.968l-0.887-0.887l-0.806-0.484L56.21,3.145l-0.887-0.161h-1.29l-1.613-0.081
				H41.613l-0.887,0.161l-1.29,0.887L38.548,5l-0.887,1.29l-0.887,1.774l-0.645,0.887l-0.108,0.047l-0.013,0.074l-0.363,0.847
				l-0.363,0.726L35,11.452l-0.202,0.726l-0.202,0.847v0.927l-0.04,0.927l-0.081,0.847l-0.04,0.645l-0.04,0.726L34.274,17.5
				l1.169-0.081l0.887-0.242l0.605-0.202l0.847-0.202l0.766-0.242l0.847-0.242l0.887-0.04h0.726l0.444-0.363l0.363-0.403
				l0.081-0.565v-1.089l0.081-0.726l0.645,0.484l0.484,0.766l0.565,0.806l0.685,0.927l0.484,0.726l0.524,1.008l0.363,0.968
				l0.363,0.766l0.565,1.048l0.444,0.927l0.363,0.726l0.242,0.645l0.282,0.403l0.444,0.484l0.484-0.403l0.726-1.532l0.565-1.653
				l0.524-1.25l0.484-1.169l0.524-0.887l0.645-0.847l0.565-0.887l0.444-0.766l0.363-0.565l0.484-0.524l0.121,0.565l0.081,0.645
				v0.605l0.202,0.444l0.282,0.323L55,16.29h0.645l0.605-0.081l0.726,0.081l0.766,0.121l0.968,0.202l0.645,0.121
				c0,0,0.524,0.161,0.726,0.202c0.202,0.04,0.806,0.161,0.806,0.161l0.484,0.081h0.484v-1.008l-0.04-1.25L61.734,13.992z
				 M56.613,9.073l-0.202,0.484l-0.282,0.524l-0.323,0.565l-0.363,0.524l-0.524,0.766l-0.323,0.323l-0.363,0.524l-1.008,0.605
				l-1.411,0.121l-1.089,0.161l-1.21,0.081l-0.927,0.04l-0.685-0.04l-0.968-0.081l-1.21-0.081l-1.048-0.161l-0.645-0.121
				l-0.645-0.161l-0.685-0.161l-1.21-0.887l-0.484-0.605l-0.444-0.645l-0.282-0.484L40,9.798l-0.202-0.565L39.597,8.71l-0.04-0.363
				V7.863l0.403-0.202l0.484,0.161l0.565,0.242l0.605,0.242l0.927,0.081l1.048,0.04l1.331,0.04l1.25,0.04h3.024l0.847,0.04h1.089
				l0.927-0.04l0.968-0.04l0.726-0.202l0.806-0.161l0.685-0.202l0.605-0.121h0.524l0.282,0.202l0.081,0.444L56.613,9.073z
				 M25.591,29.677l-0.323-2.151l-0.323-2.258l-0.43-2.473l-0.538-2.581l-0.538-2.581l-0.645-2.473l-0.088-1.175l-0.61,0.611
				l-0.968,2.016l-1.371,1.935l-1.855,3.065l-0.806,1.613L15.968,25l-1.29,2.177l-1.694,3.226l-0.968,2.016l-0.726,1.452
				l-0.565,1.048l-0.565,0.806l-0.484,0.806l-0.565,0.806L8.71,37.742l1.371,0.887l3.468,1.935l2.097,1.21l1.774,1.129l1.694,0.968
				l1.21,0.645l1.129,0.565l4.751-8.375l0.034-0.577v-1.505l-0.323-2.365L25.591,29.677z M74.435,15l-0.323-0.645l-0.239-0.205
				l-0.325,0.366l-0.753,1.505l-0.537,2.15l-0.537,3.011l-0.538,3.226l-0.537,3.333l-0.43,2.903L70,33.548l-0.108,2.473l0.026,0.438
				l0.001-0.008l4.516,8.629l0.484,0.081L87.5,37.984L74.435,15z"/>
		</g>
	</g>
</g>
<g id="shadow1_1_" opacity="0.302">
	<g id="shadow1">
		<g id="g18">
			<path id="path20" d="M44.516,17.688l-0.323-0.565l-0.323-0.295l-0.376-0.35l-0.511-0.295L42.5,16.102l-0.887-0.081l-0.887,0.081
				l-0.833,0.107l-0.887,0.215l-0.941,0.295l-0.86,0.242l-0.565,0.135l-0.645,0.215l-0.457,0.161l-0.376,0.134l0.054,0.161h0.753
				l0.645-0.188l0.753-0.135l0.726-0.295l0.699-0.215l0.78-0.135l0.753-0.215l0.78-0.054l0.538-0.054l0.538,0.054l0.457,0.215
				l0.376,0.295l0.537,0.511l0.43,0.349l0.269,0.403l0.35,0.403L45,19.113l0.43,0.484l-0.565-1.236L44.516,17.688z M60.161,17.177
				l-0.511-0.161l-0.645-0.188l-0.699-0.188l-0.726-0.188l-0.726-0.161l-0.672-0.135l-0.618-0.107h-1.075l-0.484,0.054l-0.537,0.161
				l-0.323,0.269l-0.43,0.726l-0.268,0.565l-0.377,0.699l-0.242,0.618l-0.242,0.78l0.511-0.941l0.565-0.86l0.376-0.618l0.484-0.484
				l0.484-0.376l0.377-0.161l0.43-0.054l0.484,0.027l0.672,0.161l0.592,0.135l0.752,0.215l0.511,0.161l0.457,0.108l0.619,0.161
				l0.618,0.107l0.457,0.027l0.726,0.054h0.592L60.161,17.177z"/>
		</g>
	</g>
</g>
<g id="shadow2_1_" opacity="0.3294">
	<g id="shadow2">
		<g id="g24">
			<polygon id="polygon26" points="56.666,7.796 56.048,7.796 55.592,7.876 54.866,8.091 54.301,8.226 53.737,8.306 52.15,8.414 
				50.941,8.441 50,8.468 43.952,8.468 43.306,8.387 42.527,8.226 41.774,8.038 41.156,7.876 40.565,7.742 40.081,7.769 
				39.812,7.876 39.597,8.038 39.489,8.36 39.57,8.736 40.161,10.054 40.511,10.645 40.914,11.183 41.21,11.559 41.559,11.962 
				42.043,12.527 42.527,12.823 43.172,13.145 43.952,13.387 44.57,13.495 45.403,13.629 46.075,13.656 46.747,13.683 
				47.473,13.736 48.172,13.736 47.715,13.602 45.806,13.468 44.355,13.226 43.522,13.011 42.661,12.607 42.07,12.043 
				41.774,11.694 41.425,11.236 40.887,10.565 40.484,9.865 40.242,9.301 40.081,8.925 40.135,8.629 40.376,8.468 40.618,8.495 
				41.075,8.548 41.909,8.71 42.419,8.71 43.844,8.79 44.893,8.817 45.914,8.817 47.339,8.844 48.468,8.817 52.07,8.817 
				52.769,8.79 53.468,8.736 54.301,8.736 54.892,8.548 55.323,8.495 55.672,8.414 56.129,8.414 56.29,8.575 56.263,9.005 
				56.129,9.543 55.806,10.161 55.457,10.806 55.161,11.236 54.866,11.72 54.463,12.285 53.925,12.715 53.414,12.957 52.581,13.172 
				51.559,13.414 50.457,13.575 49.57,13.629 49.166,13.629 48.737,13.683 48.441,13.79 50.86,13.71 51.452,13.602 52.231,13.441 
				52.93,13.253 53.763,12.957 54.355,12.661 54.812,12.258 55.35,11.532 55.914,10.672 56.29,10 56.64,9.328 56.828,8.683 
				56.963,8.253 56.908,7.984 			"/>
		</g>
	</g>
</g>
<g id="shadow3_1_">
	<g id="shadow3">
		<g id="g30">
			
				<linearGradient id="polygon32_1_" gradientUnits="userSpaceOnUse" x1="659.7675" y1="-711.9259" x2="659.7675" y2="-727.9259" gradientTransform="matrix(0.3226 0 0 -0.3226 -164.7406 -226.4277)">
				<stop  offset="0" style="stop-color:#000000;stop-opacity:0.1333"/>
				<stop  offset="1" style="stop-color:#000000;stop-opacity:0"/>
			</linearGradient>
			<polygon id="polygon32" fill="url(#polygon32_1_)" points="56.866,3.917 56.36,3.641 55.668,3.364 55.023,3.318 54.608,3.502 
				54.009,4.147 53.318,4.793 52.166,5.254 51.429,5.207 50.784,4.839 49.908,4.194 48.802,3.963 48.157,3.825 47.742,3.548 
				47.373,3.595 46.958,4.24 46.221,4.885 45.484,5.207 44.655,5.438 43.871,5.438 43.364,4.977 42.857,4.332 42.258,3.779 
				41.889,3.41 41.475,3.272 40.922,3.318 40.276,3.641 39.724,3.871 39.171,4.24 38.71,4.746 38.479,5.345 38.571,6.037 
				38.756,6.774 39.125,7.65 39.539,8.617 39.585,8.111 39.585,7.696 39.77,7.373 40.184,7.327 41.06,7.097 41.751,7.051 
				42.581,7.051 43.548,7.189 44.378,7.281 45.668,7.235 46.359,7.005 46.866,6.452 47.097,5.945 47.373,5.115 47.604,4.977 
				48.295,5.438 49.309,6.405 50.276,7.143 51.014,7.373 52.166,7.235 53.087,7.465 53.733,7.465 54.655,7.419 55.3,7.327 
				55.715,7.235 56.452,7.189 56.866,7.558 56.866,8.203 57.143,7.834 57.327,7.327 57.511,6.728 57.696,6.037 57.696,5.069 
				57.373,4.47 			"/>
		</g>
	</g>
</g>
<g id="shadow4_1_">
	<g id="shadow4">
		<g id="g36">
			
				<linearGradient id="path38_1_" gradientUnits="userSpaceOnUse" x1="660.0535" y1="-757.9259" x2="660.0535" y2="-733.9259" gradientTransform="matrix(0.3226 0 0 -0.3226 -164.7406 -226.4277)">
				<stop  offset="0" style="stop-color:#000000;stop-opacity:0.0833"/>
				<stop  offset="1" style="stop-color:#000000;stop-opacity:0"/>
			</linearGradient>
			<path id="path38" fill="url(#path38_1_)" d="M34.655,15.3l0.138-1.106l0.046-1.014l0.092-1.29l0.461-1.567l-0.415,0.691
				l-0.369,0.553l-0.276,1.014l-0.046,1.152l-0.138,0.876V15.3l-0.184,0.599l-0.415,0.553l-0.507,0.553l-0.461,0.415l-0.323,0.415
				l0.369,0.092l0.968,0.092l0.645-0.138l0.599-0.23l0.276-0.323l0.185-0.184l-0.737,0.231v-0.737L34.655,15.3z M63.364,17.512
				l-0.599-0.922l-0.461-0.876l-0.138-2.027v-0.829l-0.046-0.599l-0.369-0.507l-0.23-0.276l0.092,0.737v0.737l0.092,1.106
				l0.092,0.876l0.092,0.921v1.475l-0.83,0.323l0.876,0.139l0.829,0.184l0.737,0.138l0.599-0.046L63.364,17.512z"/>
		</g>
	</g>
</g>
<g id="shadow5_1_">
	<g id="shadow5">
		<g id="g42">
			
				<linearGradient id="path44_1_" gradientUnits="userSpaceOnUse" x1="660.071" y1="-766.9259" x2="660.071" y2="-828.9259" gradientTransform="matrix(0.3226 0 0 -0.3226 -164.7406 -226.4277)">
				<stop  offset="0" style="stop-color:#000000;stop-opacity:0.1167"/>
				<stop  offset="1" style="stop-color:#000000;stop-opacity:0"/>
			</linearGradient>
			<path id="path44" fill="url(#path44_1_)" d="M22.742,22.984l-0.323-1.694l-0.242,2.177v14.274L22.742,35l0.565-3.548l0.161-2.581
				l-0.242-3.065L22.742,22.984z M25.726,28.71l-0.403-1.452l-0.806-1.613l-1.048-2.258l0.484,1.774l0.403,1.452l0.403,1.048
				L25.726,28.71z M25.726,31.29l-0.484-1.774l-0.726-1.21l0.565,2.5l0.161,2.097l0.242,1.452l0.081,1.371l0.484-1.371l-0.161-1.694
				L25.726,31.29z M71.452,26.371l-0.565,1.29l-0.484,1.21l1.774-3.065l0.565-2.097L72.016,25L71.452,26.371z M73.629,24.032
				l-0.323,4.194v2.419l0.242,2.5l0.323,2.742l0.565-6.129l0.081-4.113v-2.419l-0.323-2.177L73.629,24.032z M75.887,26.613
				l-0.565,2.581v5.565l-0.081,2.339l-0.081,1.855l0.726-3.79l0.484-4.758v-2.016L75.887,26.613z M21.048,31.774l-0.403-6.452
				l-0.484,0.806L20,28.306v2.984l0.645,4.758l0.645,5.161l0.161-2.823l-0.081-2.5L21.048,31.774z M70.645,31.21l-0.081,2.661v1.532
				l0.645,2.016l-0.081-2.016v-2.581l0.403-2.581l0.726-2.419l-1.129,2.016L70.645,31.21z"/>
		</g>
	</g>
</g>
<g id="shadow6_1_" opacity="0.05">
	<g id="shadow6">
		<g id="g48">
			<path id="path50" d="M36.774,49.677l0.968-5.591l0.43-5.484l-1.935,4.624l-0.86,4.086l-0.43,2.903l-0.323,6.774l-0.753,6.882
				l0.753-3.656l0.753-3.764L36.774,49.677z M39.355,43.333l-0.753,3.334l-0.645,3.978l-0.86,4.731l-0.645,3.871l-0.645,2.473
				l-0.753,3.011l-0.215,1.613l1.613-1.721l0.538-1.613l0.86-3.441l1.075-9.14l0.968-5.699l0.968-7.205l-0.968,2.796L39.355,43.333z
				 M65.914,69.462l-0.861-2.795l-0.752-2.796l-0.753-4.194l-0.968-4.409l-0.753-4.408l-0.752-2.796l-0.861-4.624l-1.075-4.086
				l-0.538-0.753l-0.43,1.29l0.43,3.548l0.861,4.194l0.752,4.946l0.861,4.839l0.968,4.086l1.613,4.624l1.183,2.258l1.29,2.688
				L65.914,69.462z M60.537,62.258l-0.752-3.764l-1.075-6.236l-1.721-9.893l-0.107,5.269l0.537,4.086l0.645,5.484l0.86,5.054
				L60,65.914l1.613,3.334l-0.645-3.334L60.537,62.258z"/>
		</g>
	</g>
</g>
<g id="shadow7_1_" opacity="0.06">
	<g id="shadow7">
		<g id="g54">
			<path id="path56" d="M62.661,88.71l-0.726-1.21l-1.129-2.097l-1.29-3.226l-0.242,1.774l0.484,2.258l0.806,2.258l1.29,1.855
				l1.21,0.484l0.645-0.968L62.661,88.71z M36.048,85.484l-1.29,2.419l-2.177,2.258h1.21l1.774-0.887l1.452-2.177L37.581,85
				l0.484-3.468l-0.968,1.855L36.048,85.484z M47.581,85.887l-0.323,0.726l0.161,1.21l-0.403,1.613l1.29-1.29L48.79,87.5
				l0.081-1.048l-0.161-0.565H47.581z"/>
		</g>
	</g>
</g>
<g id="shadow8_1_" opacity="0.15">
	<g id="shadow8">
		<g id="g60">
			<path id="path62" d="M28.387,89.194l-0.323,0.968l0.645-0.242l0.565-0.403l0.565-0.565l-0.565-0.242L28.387,89.194z
				 M67.903,89.355L67.5,88.79l-0.726-0.242l-0.484-0.323v0.968L65,89.274l-0.565-0.726l-0.565-2.339v2.258l0.323,1.129L65,89.919
				l1.29-0.242h0.968l0.968,0.726L67.903,89.355z"/>
		</g>
	</g>
</g>
<g id="sawing1_1_" opacity="0.149">
	<g id="sawing1">
		<g id="g66">
			<path id="path68" fill="#AAAAAA" d="M18.388,40.694l-4.461-2.633l0,0l-3.71-2.258l-0.168,0.275l3.71,2.258l0.087-0.143
				l-0.085,0.144l4.329,2.556l-0.015,0.032l4.677,2.043l0.137-0.292l-4.51-1.97L18.388,40.694z M14.624,39.35l-2.794-1.666
				l-0.085,0.143l0.084-0.144L9.785,36.5l-0.162,0.279l2.041,1.182l2.796,1.666l0.083-0.138l-0.081,0.139l3.333,1.935l0.081-0.14
				l-0.075,0.143l4.409,2.15l0.15-0.285l-4.405-2.148L14.624,39.35z M77.339,41.264l0.075,0.143l2.849-1.505l-0.077-0.147
				l0.082,0.145l2.849-1.613l-0.078-0.138l0.085,0.134l3.226-2.043l-0.173-0.273l-3.223,2.041l-2.844,1.61l-2.842,1.502
				l-3.869,1.988l0.137,0.292l3.871-1.989L77.339,41.264z M86.512,36.83l-0.174-0.272l-2.524,1.611l-3.707,2.149l0,0l-6.285,3.492
				l0.152,0.285l6.29-3.495l-0.074-0.139l0.079,0.136l3.71-2.151l-0.083-0.142l0.088,0.139L86.512,36.83z"/>
		</g>
	</g>
</g>
<g id="sawing2_1_" opacity="0.2">
	<g id="sawing2">
		<g id="g72">
			<polygon id="polygon74" fill="#AAAAAA" points="69.477,89.596 68.958,90.167 67.498,90.949 65.379,91.373 62.868,91.64 
				60.027,91.64 60.027,91.819 60.024,91.64 56.856,91.694 54.385,91.64 54.382,91.786 54.382,91.64 51.762,91.64 50.112,91.32 
				50.081,91.479 50.108,91.32 48.872,91.105 48.844,91.264 48.844,91.102 47.661,91.102 47.661,91.263 47.626,91.106 
				45.823,91.507 45.821,91.479 44.427,91.586 40.995,91.586 40.995,91.756 40.993,91.586 35.136,91.64 32.402,91.586 
				30.438,91.374 28.519,90.734 28.518,90.737 27.352,90.203 27.218,90.496 28.508,91.087 28.515,91.073 30.352,91.685 
				30.403,91.532 30.386,91.693 32.375,91.908 32.393,91.747 32.389,91.909 35.131,91.962 35.135,91.798 35.136,91.962 
				40.996,91.909 44.435,91.909 44.435,91.748 44.448,91.908 45.751,91.808 45.761,91.851 47.678,91.425 48.831,91.425 
				50.053,91.637 50.053,91.637 51.717,91.959 51.747,91.803 51.747,91.962 54.378,91.962 56.851,92.016 56.855,91.855 
				56.857,92.016 60.03,91.962 62.984,91.962 62.984,91.952 65.42,91.693 65.403,91.532 65.435,91.69 67.585,91.26 67.554,91.102 
				67.63,91.244 69.135,90.438 69.059,90.296 69.178,90.404 69.716,89.813 			"/>
		</g>
	</g>
</g>
<g id="shadow_x5F_shoulders_1_">
	<g id="shadow_x5F_shoulders">
		<g id="g78">
			
				<linearGradient id="polygon80_1_" gradientUnits="userSpaceOnUse" x1="659.821" y1="-728.9259" x2="659.821" y2="-776.9259" gradientTransform="matrix(0.3226 0 0 -0.3226 -164.7406 -226.4277)">
				<stop  offset="0" style="stop-color:#FFFFFF;stop-opacity:0.4"/>
				<stop  offset="1" style="stop-color:#FFFFFF;stop-opacity:0"/>
			</linearGradient>
			<polygon id="polygon80" fill="url(#polygon80_1_)" fill-opacity="0.3" points="17.419,42.903 19.113,43.871 20.323,44.516 
				21.452,45.081 26.21,36.694 26.613,37.258 26.694,39.274 26.774,42.097 26.774,44.194 27.097,47.258 27.581,50.242 27.903,52.5 
				28.306,54.597 28.334,54.839 68.195,54.839 68.306,54.113 68.952,49.758 69.435,45.323 69.677,40.323 69.758,37.5 69.919,36.452 
				74.435,45.081 74.919,45.161 87.5,37.984 74.435,15 74.113,14.355 73.548,13.871 72.823,13.468 60.293,8.809 60.242,9.113 
				60.887,10.242 61.29,11.452 61.694,13.387 61.855,15.081 61.855,17.258 61.21,17.5 59.839,17.419 57.581,16.613 56.371,16.29 
				55.403,16.29 54.274,16.371 53.306,16.694 52.419,17.742 51.371,18.871 50.161,20.806 49.435,22.581 48.548,23.871 
				47.903,23.629 47.258,22.581 46.452,21.21 45.565,19.919 44.919,18.871 44.113,17.5 43.226,16.774 42.258,16.29 41.371,16.129 
				40.081,16.21 38.871,16.452 37.581,16.774 36.21,17.097 34.516,17.742 34.597,16.613 34.677,15.242 34.677,13.871 34.839,12.661 
				35,11.532 35.645,10.403 36.048,9.274 36.075,8.975 32.823,10.403 30,11.371 27.177,12.258 25.323,12.823 23.387,13.629 
				22.742,13.952 22.097,14.597 21.129,16.613 19.758,18.548 17.903,21.613 17.097,23.226 15.968,25 14.677,27.177 12.984,30.403 
				12.016,32.419 11.29,33.871 10.726,34.919 10.161,35.726 9.677,36.532 9.113,37.339 8.71,37.742 10.081,38.629 13.548,40.565 
				15.645,41.774 			"/>
		</g>
	</g>
</g>
<g id="shadow_x5F_body_1_">
	<g id="shadow_x5F_body">
		<g id="g84">
			
				<linearGradient id="polygon86_1_" gradientUnits="userSpaceOnUse" x1="666.1251" y1="-992.9259" x2="666.1251" y2="-820.9259" gradientTransform="matrix(0.3226 0 0 -0.3226 -164.7406 -226.4277)">
				<stop  offset="0" style="stop-color:#000000;stop-opacity:0.145"/>
				<stop  offset="1" style="stop-color:#000000;stop-opacity:0"/>
			</linearGradient>
			<polygon id="polygon86" fill="url(#polygon86_1_)" points="70.306,54.113 70.952,49.758 71.435,45.323 71.677,40.323 
				71.758,37.5 71.758,35.726 71.839,33.79 72,31.532 72.242,29.516 72.645,27.097 73.048,25.323 73.855,22.097 74.581,19.597 
				75.226,17.661 76.032,15.323 76.293,14.715 76.113,14.355 75.548,13.871 74.823,13.468 62.293,8.809 62.242,9.113 62.887,10.242 
				63.29,11.452 63.694,13.387 63.855,15.081 63.855,17.258 63.21,17.5 61.839,17.419 59.581,16.613 58.371,16.29 57.403,16.29 
				56.274,16.371 55.306,16.694 54.419,17.742 53.371,18.871 52.161,20.806 51.435,22.581 50.548,23.871 49.903,23.629 
				49.258,22.581 48.452,21.21 47.565,19.919 46.919,18.871 46.113,17.5 45.226,16.774 44.258,16.29 43.371,16.129 42.081,16.21 
				40.871,16.452 39.581,16.774 38.21,17.097 36.516,17.742 36.597,16.613 36.677,15.242 36.677,13.871 36.839,12.661 37,11.532 
				37.645,10.403 38.048,9.274 38.075,8.975 34.823,10.403 32,11.371 29.177,12.258 27.323,12.823 25.387,13.629 24.742,13.952 
				24.097,14.597 23.984,14.832 24.339,15.565 24.903,17.016 25.306,18.387 25.79,19.919 26.274,21.29 26.839,23.387 27.565,25.484 
				27.887,27.097 28.129,28.79 28.371,30.726 28.452,32.984 28.532,34.194 28.532,35.968 28.608,37.251 28.613,37.258 
				28.694,39.274 28.774,42.097 28.774,44.194 29.097,47.258 29.581,50.242 29.903,52.5 30.306,54.597 30.548,56.694 30.79,59.032 
				31.032,61.29 31.194,63.71 31.194,66.855 31.032,69.113 30.79,71.129 30.468,73.387 30.306,75.726 30.145,77.581 29.823,78.387 
				29.581,79.355 29.742,80.484 29.984,81.452 29.984,82.339 29.823,83.226 29.903,84.274 29.984,85.403 29.903,86.129 
				29.903,88.065 29.742,88.952 29.339,89.435 29.097,90.242 29.177,90.806 28.694,91.29 29.097,91.855 30.468,92.742 
				31.597,93.226 33.048,93.629 34.823,93.871 37.323,93.952 40.952,94.113 43.935,94.032 45.79,93.79 47.806,93.629 49.903,93.548 
				52.968,93.548 54.581,93.79 55.871,94.032 57.484,94.113 60.387,94.113 62.161,93.952 64.5,93.871 66.194,93.79 67.645,93.629 
				68.855,93.226 69.984,92.661 71.355,91.774 71.677,90.968 71.435,87.016 70.952,81.774 70.306,75.403 70.065,70.161 
				69.823,63.145 69.823,58.71 69.984,56.21 			"/>
		</g>
	</g>
</g>
<linearGradient id="path4077_1_" gradientUnits="userSpaceOnUse" x1="617.8636" y1="-754.2601" x2="637.8438" y2="-732.2819" gradientTransform="matrix(0.3226 0 0 -0.3226 -164.7406 -226.4277)">
	<stop  offset="0" style="stop-color:#000000;stop-opacity:0.145"/>
	<stop  offset="1" style="stop-color:#000000;stop-opacity:0"/>
</linearGradient>
<path id="path4077" fill="url(#path4077_1_)" d="M35.929,16.821c1.974-1.255,3.889-1.311,6.267-1.355
	c-3.5-1.846-4.388-6.526-4.006-9.539C37.625,8.184,35.555,11.091,35.929,16.821z"/>
<linearGradient id="path4093_1_" gradientUnits="userSpaceOnUse" x1="702.3069" y1="-748.1866" x2="681.3069" y2="-732.1866" gradientTransform="matrix(0.3226 0 0 -0.3226 -164.7406 -226.4277)">
	<stop  offset="0" style="stop-color:#FFFFFF;stop-opacity:0.125"/>
	<stop  offset="1" style="stop-color:#FFFFFF;stop-opacity:0"/>
</linearGradient>
<path id="path4093" fill="url(#path4093_1_)" d="M53.872,15.531c2.816-0.752,4.95,0.611,7.279,1.435
	c0.933-2.558-0.882-6.806-2.628-11.205C57.578,9.038,56.03,13.334,53.872,15.531z"/>
<linearGradient id="path4113_1_" gradientUnits="userSpaceOnUse" x1="576.4464" y1="-765.9921" x2="577.4464" y2="-799.9921" gradientTransform="matrix(0.3226 0 0 -0.3226 -164.7406 -226.4277)">
	<stop  offset="0" style="stop-color:#FFFFFF;stop-opacity:0.125"/>
	<stop  offset="1" style="stop-color:#FFFFFF;stop-opacity:0"/>
</linearGradient>
<path id="path4113" fill="url(#path4113_1_)" d="M21.374,21.016c0.489,3.93,0.416,7.859-0.051,11.789
	C20.979,29.02,21.036,25.074,21.374,21.016z"/>
<linearGradient id="path4123_1_" gradientUnits="userSpaceOnUse" x1="576.2755" y1="-765.9971" x2="577.2755" y2="-799.9971" gradientTransform="matrix(0.3226 0 0 -0.3226 -162.3315 -225.095)">
	<stop  offset="0" style="stop-color:#FFFFFF;stop-opacity:0.125"/>
	<stop  offset="1" style="stop-color:#FFFFFF;stop-opacity:0"/>
</linearGradient>
<path id="path4123" fill="url(#path4123_1_)" d="M22.912,22.502c1.46,4.207,2.358,8.389,0.487,11.917
	C24.366,30.364,23.577,26.354,22.912,22.502z"/>
<linearGradient id="path4129_1_" gradientUnits="userSpaceOnUse" x1="570.0018" y1="-691.4873" x2="571.0018" y2="-725.4873" gradientTransform="matrix(0.3226 0 0 -0.345 -146.903 -200.0324)">
	<stop  offset="0" style="stop-color:#FFFFFF;stop-opacity:0.125"/>
	<stop  offset="1" style="stop-color:#FFFFFF;stop-opacity:0"/>
</linearGradient>
<path id="path4129" fill="url(#path4129_1_)" d="M39.007,38.751c0.66,5.312-2.92,18.838-3.486,22.4
	C35.177,57.102,38.669,43.091,39.007,38.751z"/>
<linearGradient id="path4133_1_" gradientUnits="userSpaceOnUse" x1="581.3804" y1="-691.1526" x2="582.3804" y2="-725.1526" gradientTransform="matrix(0.3226 0 0 -0.345 -128.2453 -199.3148)">
	<stop  offset="0" style="stop-color:#FFFFFF;stop-opacity:0.125"/>
	<stop  offset="1" style="stop-color:#FFFFFF;stop-opacity:0"/>
</linearGradient>
<path id="path4133" fill="url(#path4133_1_)" d="M57.665,39.468c0.66,5.312,4.564,20.529,3.998,24.091
	C61.023,60.692,56.941,45.351,57.665,39.468z"/>
<linearGradient id="path4137_1_" gradientUnits="userSpaceOnUse" x1="574.9127" y1="-691.3428" x2="575.9127" y2="-725.3428" gradientTransform="matrix(0.3226 0 0 -0.345 -112.9706 -216.6398)">
	<stop  offset="0" style="stop-color:#FFFFFF;stop-opacity:0.125"/>
	<stop  offset="1" style="stop-color:#FFFFFF;stop-opacity:0"/>
</linearGradient>
<path id="path4137" fill="url(#path4137_1_)" d="M73.452,22.041c-0.039,5.238-1.091,10.214-1.384,13.84
	C71.399,33.013,72.393,27.924,73.452,22.041z"/>
<linearGradient id="path4141_1_" gradientUnits="userSpaceOnUse" x1="574.4517" y1="-691.3564" x2="575.4517" y2="-725.3564" gradientTransform="matrix(0.3226 0 0 -0.345 -111.074 -215.9735)">
	<stop  offset="0" style="stop-color:#FFFFFF;stop-opacity:0.125"/>
	<stop  offset="1" style="stop-color:#FFFFFF;stop-opacity:0"/>
</linearGradient>
<path id="path4141" fill="url(#path4141_1_)" d="M74.426,22.169c1.167,5.238,0.405,10.752-0.461,14.378
	C74.303,33.679,75.088,28.052,74.426,22.169z"/>
<linearGradient id="path4145_1_" gradientUnits="userSpaceOnUse" x1="576.7614" y1="-691.2885" x2="577.7614" y2="-725.2885" gradientTransform="matrix(0.3226 0 0 -0.345 -115.4566 -215.2815)">
	<stop  offset="0" style="stop-color:#FFFFFF;stop-opacity:0.125"/>
	<stop  offset="1" style="stop-color:#FFFFFF;stop-opacity:0"/>
</linearGradient>
<path id="path4145" fill="url(#path4145_1_)" d="M72.452,26.449c-1.958,3.957-3.257,6.684-2.87,10.79
	C68.677,34.275,68.953,31.633,72.452,26.449z"/>
<linearGradient id="path4149_1_" gradientUnits="userSpaceOnUse" x1="579.1707" y1="-691.2177" x2="580.1707" y2="-725.2177" gradientTransform="matrix(0.3226 0 0 -0.345 -128.0491 -156.737)">
	<stop  offset="0" style="stop-color:#FFFFFF;stop-opacity:0.125"/>
	<stop  offset="1" style="stop-color:#FFFFFF;stop-opacity:0"/>
</linearGradient>
<path id="path4149" fill="url(#path4149_1_)" d="M57.861,82.046c0.66,5.312,2.749,5.666,2.183,9.228
	C59.404,88.407,57.137,87.929,57.861,82.046z"/>
<linearGradient id="path4153_1_" gradientUnits="userSpaceOnUse" x1="570.2977" y1="-691.4786" x2="571.2977" y2="-725.4786" gradientTransform="matrix(0.3226 0 0 -0.345 -147.0325 -157.1785)">
	<stop  offset="0" style="stop-color:#FFFFFF;stop-opacity:0.125"/>
	<stop  offset="1" style="stop-color:#FFFFFF;stop-opacity:0"/>
</linearGradient>
<path id="path4153" fill="url(#path4153_1_)" d="M38.583,81.703c1.043,5.577-1.427,6.511-3.213,9.228
	C35.786,88.742,38.625,88.078,38.583,81.703z"/>
<linearGradient id="path4161_1_" gradientUnits="userSpaceOnUse" x1="661.1516" y1="-709.9259" x2="661.1516" y2="-718.9259" gradientTransform="matrix(0.3226 0 0 -0.3226 -164.7406 -226.4277)">
	<stop  offset="0" style="stop-color:#FFFFFF;stop-opacity:0.075"/>
	<stop  offset="1" style="stop-color:#FFFFFF;stop-opacity:0"/>
</linearGradient>
<path id="path4161" fill="url(#path4161_1_)" d="M39.703,4.614c-0.078-1.918,18.511-2.025,17.633,0.335
	C52.026,2.977,45.199,3.215,39.703,4.614z"/>
</svg>
