<?xml version="1.0" encoding="utf-8"?>
<!-- Generator: Adobe Illustrator 17.0.0, SVG Export Plug-In . SVG Version: 6.00 Build 0)  -->
<!DOCTYPE svg PUBLIC "-//W3C//DTD SVG 1.1//EN" "http://www.w3.org/Graphics/SVG/1.1/DTD/svg11.dtd">
<svg version="1.1" id="Слой_1" xmlns="http://www.w3.org/2000/svg" xmlns:xlink="http://www.w3.org/1999/xlink" x="0px" y="0px"
	 width="100px" height="100px" viewBox="0 0 100 100" enable-background="new 0 0 100 100" xml:space="preserve">
<svg:filter  id="filter3770" color-interpolation-filters="sRGB">
	<svg:feGaussianBlur  stdDeviation="10" id="feGaussianBlur3772"></svg:feGaussianBlur>
	<svg:feOffset  dx="7" dy="7"></svg:feOffset>
</svg:filter>
<g id="dropshadow" opacity="0.4" filter="url(#filter3770)">
	<g id="g3756_4_">
		<g id="g3758_4_">
			<polygon id="polygon3760_4_" points="60.242,8.79 59.516,7.339 58.952,5.887 58.548,4.919 57.661,4.032 56.855,3.548 
				56.21,3.145 55.323,2.984 54.032,2.984 52.419,2.903 41.613,2.903 40.726,3.065 39.435,3.952 38.548,5 37.661,6.29 36.774,8.065 
				36.129,8.952 32.823,10.403 30,11.371 27.177,12.258 25.323,12.823 23.387,13.629 22.742,13.952 22.097,14.597 21.129,16.613 
				19.758,18.548 17.903,21.613 17.097,23.226 15.968,25 14.677,27.177 12.984,30.403 12.016,32.419 11.29,33.871 10.726,34.919 
				10.161,35.726 9.677,36.532 9.113,37.339 8.71,37.742 10.081,38.629 13.548,40.565 15.645,41.774 17.419,42.903 19.113,43.871 
				20.323,44.516 21.452,45.081 26.21,36.694 26.613,37.258 26.694,39.274 26.774,42.097 26.774,44.194 27.097,47.258 
				27.581,50.242 27.903,52.5 28.306,54.597 28.548,56.694 28.79,59.032 29.032,61.29 29.194,63.71 29.194,66.855 29.032,69.113 
				28.79,71.129 28.468,73.387 28.306,75.726 28.145,77.581 27.823,78.387 27.581,79.355 27.742,80.484 27.984,81.452 
				27.984,82.339 27.823,83.226 27.903,84.274 27.984,85.403 27.903,86.129 27.903,88.065 27.742,88.952 27.339,89.435 
				27.097,90.242 27.177,90.806 26.694,91.29 27.097,91.855 28.468,92.742 29.597,93.226 31.048,93.629 32.823,93.871 
				35.323,93.952 38.952,94.113 41.935,94.032 43.79,93.79 45.806,93.629 47.903,93.548 50.968,93.548 52.581,93.79 53.871,94.032 
				55.484,94.113 58.387,94.113 60.161,93.952 62.5,93.871 64.194,93.79 65.645,93.629 66.855,93.226 67.984,92.661 69.355,91.774 
				69.677,90.968 69.435,87.016 68.952,81.774 68.306,75.403 68.065,70.161 67.823,63.145 67.823,58.71 67.984,56.21 68.306,54.113 
				68.952,49.758 69.435,45.323 69.677,40.323 69.758,37.5 69.919,36.452 74.435,45.081 74.919,45.161 87.5,37.984 74.435,15 
				74.113,14.355 73.548,13.871 72.823,13.468 			"/>
		</g>
	</g>
</g>
<g id="main_x5F_color_1_">
	<g id="main_x5F_color">
		<g id="g6">
			<polygon id="polygon8" fill="#99FF33" points="75.823,13.468 63.242,8.79 62.516,7.339 61.952,5.887 61.548,4.919 60.661,4.032 
				59.855,3.548 59.21,3.145 58.323,2.984 57.032,2.984 55.419,2.903 44.613,2.903 43.726,3.065 42.435,3.952 41.548,5 40.661,6.29 
				39.774,8.065 39.129,8.952 35.823,10.403 33,11.371 30.177,12.258 28.323,12.823 26.387,13.629 25.742,13.952 25.097,14.597 
				24.129,16.613 22.758,18.548 20.903,21.613 20.097,23.226 18.968,25 17.677,27.177 15.984,30.403 15.016,32.419 14.29,33.871 
				13.726,34.919 13.161,35.726 12.677,36.532 12.113,37.339 11.71,37.742 13.081,38.629 16.548,40.565 18.645,41.774 
				20.419,42.903 22.113,43.871 23.323,44.516 24.452,45.081 29.21,36.694 29.613,37.258 29.694,39.274 29.774,42.097 
				29.774,44.194 30.097,47.258 30.581,50.242 30.903,52.5 31.306,54.597 31.548,56.694 31.79,59.032 32.032,61.29 32.194,63.71 
				32.194,66.855 32.032,69.113 31.79,71.129 31.468,73.387 31.306,75.726 31.145,77.581 30.823,78.387 30.581,79.355 
				30.742,80.484 30.984,81.452 30.984,82.339 30.823,83.226 30.903,84.274 30.984,85.403 30.903,86.129 30.903,88.065 
				30.742,88.952 30.339,89.435 30.097,90.242 30.177,90.806 29.694,91.29 30.097,91.855 31.468,92.742 32.597,93.226 
				34.048,93.629 35.823,93.871 38.323,93.952 41.952,94.113 44.935,94.032 46.79,93.79 48.806,93.629 50.903,93.548 53.968,93.548 
				55.581,93.79 56.871,94.032 58.484,94.113 61.387,94.113 63.161,93.952 65.5,93.871 67.194,93.79 68.645,93.629 69.855,93.226 
				70.984,92.661 72.355,91.774 72.677,90.968 72.435,87.016 71.952,81.774 71.306,75.403 71.065,70.161 70.823,63.145 
				70.823,58.71 70.984,56.21 71.306,54.113 71.952,49.758 72.435,45.323 72.677,40.323 72.758,37.5 72.919,36.452 77.435,45.081 
				77.919,45.161 90.5,37.984 77.435,15 77.113,14.355 76.548,13.871 			"/>
		</g>
	</g>
</g>
<g id="sleeves_1_" enable-background="new    ">
	<g id="sleeves">
		<g>
			<path fill="#99FF33" d="M64.734,13.992v-1.573l-0.161-0.766l-0.202-0.685l-0.403-0.927l-0.363-0.605l-0.161-0.444V8.865
				L63.242,8.79l-0.726-1.452l-0.565-1.452l-0.403-0.968l-0.887-0.887l-0.806-0.484L59.21,3.145l-0.887-0.161h-1.29l-1.613-0.081
				H44.613l-0.887,0.161l-1.29,0.887L41.548,5l-0.887,1.29l-0.887,1.774l-0.645,0.887l-0.108,0.047l-0.013,0.074l-0.363,0.847
				l-0.363,0.726L38,11.452l-0.202,0.726l-0.202,0.847v0.927l-0.04,0.927l-0.081,0.847l-0.04,0.645l-0.04,0.726L37.274,17.5
				l1.169-0.081l0.887-0.242l0.605-0.202l0.847-0.202l0.766-0.242l0.847-0.242l0.887-0.04h0.726l0.444-0.363l0.363-0.403
				l0.081-0.565v-1.089l0.081-0.726l0.645,0.484l0.484,0.766l0.565,0.806l0.685,0.927l0.484,0.726l0.524,1.008l0.363,0.968
				l0.363,0.766l0.565,1.048l0.444,0.927l0.363,0.726l0.242,0.645l0.282,0.403l0.444,0.484l0.484-0.403l0.726-1.532l0.565-1.653
				l0.524-1.25l0.484-1.169l0.524-0.887l0.645-0.847l0.565-0.887l0.444-0.766l0.363-0.565l0.484-0.524l0.121,0.565l0.081,0.645
				v0.605l0.202,0.444l0.282,0.323L58,16.29h0.645l0.605-0.081l0.726,0.081l0.766,0.121l0.968,0.202l0.645,0.121
				c0,0,0.524,0.161,0.726,0.202c0.202,0.04,0.806,0.161,0.806,0.161l0.484,0.081h0.484v-1.008l-0.04-1.25L64.734,13.992z
				 M59.613,9.073l-0.202,0.484l-0.282,0.524l-0.323,0.565l-0.363,0.524l-0.524,0.766l-0.323,0.323l-0.363,0.524l-1.008,0.605
				l-1.411,0.121l-1.089,0.161l-1.21,0.081l-0.927,0.04l-0.685-0.04l-0.968-0.081l-1.21-0.081l-1.048-0.161l-0.645-0.121
				l-0.645-0.161l-0.685-0.161l-1.21-0.887l-0.484-0.605l-0.444-0.645l-0.282-0.484L43,9.798l-0.202-0.565L42.597,8.71l-0.04-0.363
				V7.863l0.403-0.202l0.484,0.161l0.565,0.242l0.605,0.242l0.927,0.081l1.048,0.04l1.331,0.04l1.25,0.04h3.024l0.847,0.04h1.089
				l0.927-0.04l0.968-0.04l0.726-0.202l0.806-0.161l0.685-0.202l0.605-0.121h0.524l0.282,0.202l0.081,0.444L59.613,9.073z
				 M28.591,29.677l-0.323-2.151l-0.323-2.258l-0.43-2.473l-0.538-2.581l-0.538-2.581l-0.645-2.473l-0.088-1.175l-0.61,0.611
				l-0.968,2.016l-1.371,1.935l-1.855,3.065l-0.806,1.613L18.968,25l-1.29,2.177l-1.694,3.226l-0.968,2.016l-0.726,1.452
				l-0.565,1.048l-0.565,0.806l-0.484,0.806l-0.565,0.806l-0.403,0.403l1.371,0.887l3.468,1.935l2.097,1.21l1.774,1.129l1.694,0.968
				l1.21,0.645l1.129,0.565l4.751-8.375l0.034-0.577v-1.505l-0.323-2.365L28.591,29.677z M77.435,15l-0.323-0.645l-0.239-0.205
				l-0.325,0.366l-0.753,1.505l-0.537,2.15l-0.537,3.011l-0.538,3.226l-0.537,3.333l-0.43,2.903L73,33.548l-0.108,2.473l0.026,0.438
				l0.001-0.008l4.516,8.629l0.484,0.081L90.5,37.984L77.435,15z"/>
		</g>
	</g>
</g>
<g id="shadow1_1_" opacity="0.302">
	<g id="shadow1">
		<g id="g18">
			<path id="path20" d="M47.516,17.688l-0.323-0.565l-0.323-0.295l-0.376-0.35l-0.511-0.295L45.5,16.102l-0.887-0.081l-0.887,0.081
				l-0.833,0.107l-0.887,0.215l-0.941,0.295l-0.86,0.242l-0.565,0.135l-0.645,0.215l-0.457,0.161l-0.376,0.134l0.054,0.161h0.753
				l0.645-0.188l0.753-0.135l0.726-0.295l0.699-0.215l0.78-0.135l0.753-0.215l0.78-0.054l0.538-0.054l0.538,0.054l0.457,0.215
				l0.376,0.295l0.537,0.511l0.43,0.349l0.269,0.403l0.35,0.403L48,19.113l0.43,0.484l-0.565-1.236L47.516,17.688z M63.161,17.177
				l-0.511-0.161l-0.645-0.188l-0.699-0.188l-0.726-0.188l-0.726-0.161l-0.672-0.135l-0.618-0.107h-1.075l-0.484,0.054l-0.537,0.161
				l-0.323,0.269l-0.43,0.726l-0.268,0.565l-0.377,0.699l-0.242,0.618l-0.242,0.78l0.511-0.941l0.565-0.86l0.376-0.618l0.484-0.484
				l0.484-0.376l0.377-0.161l0.43-0.054l0.484,0.027l0.672,0.161l0.592,0.135l0.752,0.215l0.511,0.161l0.457,0.108l0.619,0.161
				l0.618,0.107l0.457,0.027l0.726,0.054h0.592L63.161,17.177z"/>
		</g>
	</g>
</g>
<g id="shadow2_1_" opacity="0.3294">
	<g id="shadow2">
		<g id="g24">
			<polygon id="polygon26" points="59.666,7.796 59.048,7.796 58.592,7.876 57.866,8.091 57.301,8.226 56.737,8.306 55.15,8.414 
				53.941,8.441 53,8.468 46.952,8.468 46.306,8.387 45.527,8.226 44.774,8.038 44.156,7.876 43.565,7.742 43.081,7.769 
				42.812,7.876 42.597,8.038 42.489,8.36 42.57,8.736 43.161,10.054 43.511,10.645 43.914,11.183 44.21,11.559 44.559,11.962 
				45.043,12.527 45.527,12.823 46.172,13.145 46.952,13.387 47.57,13.495 48.403,13.629 49.075,13.656 49.747,13.683 
				50.473,13.736 51.172,13.736 50.715,13.602 48.806,13.468 47.355,13.226 46.522,13.011 45.661,12.607 45.07,12.043 
				44.774,11.694 44.425,11.236 43.887,10.565 43.484,9.865 43.242,9.301 43.081,8.925 43.135,8.629 43.376,8.468 43.618,8.495 
				44.075,8.548 44.909,8.71 45.419,8.71 46.844,8.79 47.893,8.817 48.914,8.817 50.339,8.844 51.468,8.817 55.07,8.817 
				55.769,8.79 56.468,8.736 57.301,8.736 57.892,8.548 58.323,8.495 58.672,8.414 59.129,8.414 59.29,8.575 59.263,9.005 
				59.129,9.543 58.806,10.161 58.457,10.806 58.161,11.236 57.866,11.72 57.463,12.285 56.925,12.715 56.414,12.957 55.581,13.172 
				54.559,13.414 53.457,13.575 52.57,13.629 52.166,13.629 51.737,13.683 51.441,13.79 53.86,13.71 54.452,13.602 55.231,13.441 
				55.93,13.253 56.763,12.957 57.355,12.661 57.812,12.258 58.35,11.532 58.914,10.672 59.29,10 59.64,9.328 59.828,8.683 
				59.963,8.253 59.908,7.984 			"/>
		</g>
	</g>
</g>
<g id="shadow3_1_">
	<g id="shadow3">
		<g id="g30">
			
				<linearGradient id="polygon32_1_" gradientUnits="userSpaceOnUse" x1="669.0675" y1="-711.9259" x2="669.0675" y2="-727.9259" gradientTransform="matrix(0.3226 0 0 -0.3226 -164.7406 -226.4277)">
				<stop  offset="0" style="stop-color:#000000;stop-opacity:0.1333"/>
				<stop  offset="1" style="stop-color:#000000;stop-opacity:0"/>
			</linearGradient>
			<polygon id="polygon32" fill="url(#polygon32_1_)" points="59.866,3.917 59.36,3.641 58.668,3.364 58.023,3.318 57.608,3.502 
				57.009,4.147 56.318,4.793 55.166,5.254 54.429,5.207 53.784,4.839 52.908,4.194 51.802,3.963 51.157,3.825 50.742,3.548 
				50.373,3.595 49.958,4.24 49.221,4.885 48.484,5.207 47.655,5.438 46.871,5.438 46.364,4.977 45.857,4.332 45.258,3.779 
				44.889,3.41 44.475,3.272 43.922,3.318 43.276,3.641 42.724,3.871 42.171,4.24 41.71,4.746 41.479,5.345 41.571,6.037 
				41.756,6.774 42.125,7.65 42.539,8.617 42.585,8.111 42.585,7.696 42.77,7.373 43.184,7.327 44.06,7.097 44.751,7.051 
				45.581,7.051 46.548,7.189 47.378,7.281 48.668,7.235 49.359,7.005 49.866,6.452 50.097,5.945 50.373,5.115 50.604,4.977 
				51.295,5.438 52.309,6.405 53.276,7.143 54.014,7.373 55.166,7.235 56.087,7.465 56.733,7.465 57.655,7.419 58.3,7.327 
				58.715,7.235 59.452,7.189 59.866,7.558 59.866,8.203 60.143,7.834 60.327,7.327 60.511,6.728 60.696,6.037 60.696,5.069 
				60.373,4.47 			"/>
		</g>
	</g>
</g>
<g id="shadow4_1_">
	<g id="shadow4">
		<g id="g36">
			
				<linearGradient id="path38_1_" gradientUnits="userSpaceOnUse" x1="669.3535" y1="-757.9259" x2="669.3535" y2="-733.9259" gradientTransform="matrix(0.3226 0 0 -0.3226 -164.7406 -226.4277)">
				<stop  offset="0" style="stop-color:#000000;stop-opacity:0.0833"/>
				<stop  offset="1" style="stop-color:#000000;stop-opacity:0"/>
			</linearGradient>
			<path id="path38" fill="url(#path38_1_)" d="M37.655,15.3l0.138-1.106l0.046-1.014l0.092-1.29l0.461-1.567l-0.415,0.691
				l-0.369,0.553l-0.276,1.014l-0.046,1.152l-0.138,0.876V15.3l-0.184,0.599l-0.415,0.553l-0.507,0.553l-0.461,0.415l-0.323,0.415
				l0.369,0.092l0.968,0.092l0.645-0.138l0.599-0.23l0.276-0.323l0.185-0.184l-0.737,0.231v-0.737L37.655,15.3z M66.364,17.512
				l-0.599-0.922l-0.461-0.876l-0.138-2.027v-0.829l-0.046-0.599l-0.369-0.507l-0.23-0.276l0.092,0.737v0.737l0.092,1.106
				l0.092,0.876l0.092,0.921v1.475l-0.83,0.323l0.876,0.139l0.829,0.184l0.737,0.138l0.599-0.046L66.364,17.512z"/>
		</g>
	</g>
</g>
<g id="shadow5_1_">
	<g id="shadow5">
		<g id="g42">
			
				<linearGradient id="path44_1_" gradientUnits="userSpaceOnUse" x1="669.371" y1="-766.9259" x2="669.371" y2="-828.9259" gradientTransform="matrix(0.3226 0 0 -0.3226 -164.7406 -226.4277)">
				<stop  offset="0" style="stop-color:#000000;stop-opacity:0.1167"/>
				<stop  offset="1" style="stop-color:#000000;stop-opacity:0"/>
			</linearGradient>
			<path id="path44" fill="url(#path44_1_)" d="M25.742,22.984l-0.323-1.694l-0.242,2.177v14.274L25.742,35l0.565-3.548l0.161-2.581
				l-0.242-3.065L25.742,22.984z M28.726,28.71l-0.403-1.452l-0.806-1.613l-1.048-2.258l0.484,1.774l0.403,1.452l0.403,1.048
				L28.726,28.71z M28.726,31.29l-0.484-1.774l-0.726-1.21l0.565,2.5l0.161,2.097l0.242,1.452l0.081,1.371l0.484-1.371l-0.161-1.694
				L28.726,31.29z M74.452,26.371l-0.565,1.29l-0.484,1.21l1.774-3.065l0.565-2.097L75.016,25L74.452,26.371z M76.629,24.032
				l-0.323,4.194v2.419l0.242,2.5l0.323,2.742l0.565-6.129l0.081-4.113v-2.419l-0.323-2.177L76.629,24.032z M78.887,26.613
				l-0.565,2.581v5.565l-0.081,2.339l-0.081,1.855l0.726-3.79l0.484-4.758v-2.016L78.887,26.613z M24.048,31.774l-0.403-6.452
				l-0.484,0.806L23,28.306v2.984l0.645,4.758l0.645,5.161l0.161-2.823l-0.081-2.5L24.048,31.774z M73.645,31.21l-0.081,2.661v1.532
				l0.645,2.016l-0.081-2.016v-2.581l0.403-2.581l0.726-2.419l-1.129,2.016L73.645,31.21z"/>
		</g>
	</g>
</g>
<g id="shadow6_1_" opacity="0.05">
	<g id="shadow6">
		<g id="g48">
			<path id="path50" d="M39.774,49.677l0.968-5.591l0.43-5.484l-1.935,4.624l-0.86,4.086l-0.43,2.903l-0.323,6.774l-0.753,6.882
				l0.753-3.656l0.753-3.764L39.774,49.677z M42.355,43.333l-0.753,3.334l-0.645,3.978l-0.86,4.731l-0.645,3.871l-0.645,2.473
				l-0.753,3.011l-0.215,1.613l1.613-1.721l0.538-1.613l0.86-3.441l1.075-9.14l0.968-5.699l0.968-7.205l-0.968,2.796L42.355,43.333z
				 M68.914,69.462l-0.861-2.795l-0.752-2.796l-0.753-4.194l-0.968-4.409l-0.753-4.408l-0.752-2.796l-0.861-4.624l-1.075-4.086
				l-0.538-0.753l-0.43,1.29l0.43,3.548l0.861,4.194l0.752,4.946l0.861,4.839l0.968,4.086l1.613,4.624l1.183,2.258l1.29,2.688
				L68.914,69.462z M63.537,62.258l-0.752-3.764l-1.075-6.236l-1.721-9.893l-0.107,5.269l0.537,4.086l0.645,5.484l0.86,5.054
				L63,65.914l1.613,3.334l-0.645-3.334L63.537,62.258z"/>
		</g>
	</g>
</g>
<g id="shadow7_1_" opacity="0.06">
	<g id="shadow7">
		<g id="g54">
			<path id="path56" d="M65.661,88.71l-0.726-1.21l-1.129-2.097l-1.29-3.226l-0.242,1.774l0.484,2.258l0.806,2.258l1.29,1.855
				l1.21,0.484l0.645-0.968L65.661,88.71z M39.048,85.484l-1.29,2.419l-2.177,2.258h1.21l1.774-0.887l1.452-2.177L40.581,85
				l0.484-3.468l-0.968,1.855L39.048,85.484z M50.581,85.887l-0.323,0.726l0.161,1.21l-0.403,1.613l1.29-1.29L51.79,87.5
				l0.081-1.048l-0.161-0.565H50.581z"/>
		</g>
	</g>
</g>
<g id="shadow8_1_" opacity="0.15">
	<g id="shadow8">
		<g id="g60">
			<path id="path62" d="M31.387,89.194l-0.323,0.968l0.645-0.242l0.565-0.403l0.565-0.565l-0.565-0.242L31.387,89.194z
				 M70.903,89.355L70.5,88.79l-0.726-0.242l-0.484-0.323v0.968L68,89.274l-0.565-0.726l-0.565-2.339v2.258l0.323,1.129L68,89.919
				l1.29-0.242h0.968l0.968,0.726L70.903,89.355z"/>
		</g>
	</g>
</g>
<g id="sawing1_1_" opacity="0.149">
	<g id="sawing1">
		<g id="g66">
			<path id="path68" fill="#AAAAAA" d="M21.388,40.694l-4.461-2.633l0,0l-3.71-2.258l-0.168,0.275l3.71,2.258l0.087-0.143
				l-0.085,0.144l4.329,2.556l-0.015,0.032l4.677,2.043l0.137-0.292l-4.51-1.97L21.388,40.694z M17.624,39.35l-2.794-1.666
				l-0.085,0.143l0.084-0.144L12.785,36.5l-0.162,0.279l2.041,1.182l2.796,1.666l0.083-0.138l-0.081,0.139l3.333,1.935l0.081-0.14
				l-0.075,0.143l4.409,2.15l0.15-0.285l-4.405-2.148L17.624,39.35z M80.339,41.264l0.075,0.143l2.849-1.505l-0.077-0.147
				l0.082,0.145l2.849-1.613l-0.078-0.138l0.085,0.134l3.226-2.043l-0.173-0.273l-3.223,2.041l-2.844,1.61l-2.842,1.502
				l-3.869,1.988l0.137,0.292l3.871-1.989L80.339,41.264z M89.512,36.83l-0.174-0.272l-2.524,1.611l-3.707,2.149l0,0l-6.285,3.492
				l0.152,0.285l6.29-3.495l-0.074-0.139l0.079,0.136l3.71-2.151l-0.083-0.142l0.088,0.139L89.512,36.83z"/>
		</g>
	</g>
</g>
<g id="sawing2_1_" opacity="0.2">
	<g id="sawing2">
		<g id="g72">
			<polygon id="polygon74" fill="#AAAAAA" points="72.477,89.596 71.958,90.167 70.498,90.949 68.379,91.373 65.868,91.64 
				63.027,91.64 63.027,91.819 63.024,91.64 59.856,91.694 57.385,91.64 57.382,91.786 57.382,91.64 54.762,91.64 53.112,91.32 
				53.081,91.479 53.108,91.32 51.872,91.105 51.844,91.264 51.844,91.102 50.661,91.102 50.661,91.263 50.626,91.106 
				48.823,91.507 48.821,91.479 47.427,91.586 43.995,91.586 43.995,91.756 43.993,91.586 38.136,91.64 35.402,91.586 
				33.438,91.374 31.519,90.734 31.518,90.737 30.352,90.203 30.218,90.496 31.508,91.087 31.515,91.073 33.352,91.685 
				33.403,91.532 33.386,91.693 35.375,91.908 35.393,91.747 35.389,91.909 38.131,91.962 38.135,91.798 38.136,91.962 
				43.996,91.909 47.435,91.909 47.435,91.748 47.448,91.908 48.751,91.808 48.761,91.851 50.678,91.425 51.831,91.425 
				53.053,91.637 53.053,91.637 54.717,91.959 54.747,91.803 54.747,91.962 57.378,91.962 59.851,92.016 59.855,91.855 
				59.857,92.016 63.03,91.962 65.984,91.962 65.984,91.952 68.42,91.693 68.403,91.532 68.435,91.69 70.585,91.26 70.554,91.102 
				70.63,91.244 72.135,90.438 72.059,90.296 72.178,90.404 72.716,89.813 			"/>
		</g>
	</g>
</g>
<g id="shadow_x5F_shoulders_1_">
	<g id="shadow_x5F_shoulders">
		<g id="g78">
			
				<linearGradient id="polygon80_1_" gradientUnits="userSpaceOnUse" x1="669.121" y1="-728.9259" x2="669.121" y2="-776.9259" gradientTransform="matrix(0.3226 0 0 -0.3226 -164.7406 -226.4277)">
				<stop  offset="0" style="stop-color:#FFFFFF;stop-opacity:0.4"/>
				<stop  offset="1" style="stop-color:#FFFFFF;stop-opacity:0"/>
			</linearGradient>
			<polygon id="polygon80" fill="url(#polygon80_1_)" fill-opacity="0.3" points="20.419,42.903 22.113,43.871 23.323,44.516 
				24.452,45.081 29.21,36.694 29.613,37.258 29.694,39.274 29.774,42.097 29.774,44.194 30.097,47.258 30.581,50.242 30.903,52.5 
				31.306,54.597 31.334,54.839 71.195,54.839 71.306,54.113 71.952,49.758 72.435,45.323 72.677,40.323 72.758,37.5 72.919,36.452 
				77.435,45.081 77.919,45.161 90.5,37.984 77.435,15 77.113,14.355 76.548,13.871 75.823,13.468 63.293,8.809 63.242,9.113 
				63.887,10.242 64.29,11.452 64.694,13.387 64.855,15.081 64.855,17.258 64.21,17.5 62.839,17.419 60.581,16.613 59.371,16.29 
				58.403,16.29 57.274,16.371 56.306,16.694 55.419,17.742 54.371,18.871 53.161,20.806 52.435,22.581 51.548,23.871 
				50.903,23.629 50.258,22.581 49.452,21.21 48.565,19.919 47.919,18.871 47.113,17.5 46.226,16.774 45.258,16.29 44.371,16.129 
				43.081,16.21 41.871,16.452 40.581,16.774 39.21,17.097 37.516,17.742 37.597,16.613 37.677,15.242 37.677,13.871 37.839,12.661 
				38,11.532 38.645,10.403 39.048,9.274 39.075,8.975 35.823,10.403 33,11.371 30.177,12.258 28.323,12.823 26.387,13.629 
				25.742,13.952 25.097,14.597 24.129,16.613 22.758,18.548 20.903,21.613 20.097,23.226 18.968,25 17.677,27.177 15.984,30.403 
				15.016,32.419 14.29,33.871 13.726,34.919 13.161,35.726 12.677,36.532 12.113,37.339 11.71,37.742 13.081,38.629 16.548,40.565 
				18.645,41.774 			"/>
		</g>
	</g>
</g>
<g id="shadow_x5F_body_1_">
	<g id="shadow_x5F_body">
		<g id="g84">
			
				<linearGradient id="polygon86_1_" gradientUnits="userSpaceOnUse" x1="669.225" y1="-992.9259" x2="669.225" y2="-820.9259" gradientTransform="matrix(0.3226 0 0 -0.3226 -164.7406 -226.4277)">
				<stop  offset="0" style="stop-color:#000000;stop-opacity:0.145"/>
				<stop  offset="1" style="stop-color:#000000;stop-opacity:0"/>
			</linearGradient>
			<polygon id="polygon86" fill="url(#polygon86_1_)" points="71.306,54.113 71.952,49.758 72.435,45.323 72.677,40.323 
				72.758,37.5 72.758,35.726 72.839,33.79 73,31.532 73.242,29.516 73.645,27.097 74.048,25.323 74.855,22.097 75.581,19.597 
				76.226,17.661 77.032,15.323 77.293,14.715 77.113,14.355 76.548,13.871 75.823,13.468 63.293,8.809 63.242,9.113 63.887,10.242 
				64.29,11.452 64.694,13.387 64.855,15.081 64.855,17.258 64.21,17.5 62.839,17.419 60.581,16.613 59.371,16.29 58.403,16.29 
				57.274,16.371 56.306,16.694 55.419,17.742 54.371,18.871 53.161,20.806 52.435,22.581 51.548,23.871 50.903,23.629 
				50.258,22.581 49.452,21.21 48.565,19.919 47.919,18.871 47.113,17.5 46.226,16.774 45.258,16.29 44.371,16.129 43.081,16.21 
				41.871,16.452 40.581,16.774 39.21,17.097 37.516,17.742 37.597,16.613 37.677,15.242 37.677,13.871 37.839,12.661 38,11.532 
				38.645,10.403 39.048,9.274 39.075,8.975 35.823,10.403 33,11.371 30.177,12.258 28.323,12.823 26.387,13.629 25.742,13.952 
				25.097,14.597 24.984,14.832 25.339,15.565 25.903,17.016 26.306,18.387 26.79,19.919 27.274,21.29 27.839,23.387 28.565,25.484 
				28.887,27.097 29.129,28.79 29.371,30.726 29.452,32.984 29.532,34.194 29.532,35.968 29.608,37.251 29.613,37.258 
				29.694,39.274 29.774,42.097 29.774,44.194 30.097,47.258 30.581,50.242 30.903,52.5 31.306,54.597 31.548,56.694 31.79,59.032 
				32.032,61.29 32.194,63.71 32.194,66.855 32.032,69.113 31.79,71.129 31.468,73.387 31.306,75.726 31.145,77.581 30.823,78.387 
				30.581,79.355 30.742,80.484 30.984,81.452 30.984,82.339 30.823,83.226 30.903,84.274 30.984,85.403 30.903,86.129 
				30.903,88.065 30.742,88.952 30.339,89.435 30.097,90.242 30.177,90.806 29.694,91.29 30.097,91.855 31.468,92.742 
				32.597,93.226 34.048,93.629 35.823,93.871 38.323,93.952 41.952,94.113 44.935,94.032 46.79,93.79 48.806,93.629 50.903,93.548 
				53.968,93.548 55.581,93.79 56.871,94.032 58.484,94.113 61.387,94.113 63.161,93.952 65.5,93.871 67.194,93.79 68.645,93.629 
				69.855,93.226 70.984,92.661 72.355,91.774 72.677,90.968 72.435,87.016 71.952,81.774 71.306,75.403 71.065,70.161 
				70.823,63.145 70.823,58.71 70.984,56.21 			"/>
		</g>
	</g>
</g>
<linearGradient id="path4077_1_" gradientUnits="userSpaceOnUse" x1="627.1636" y1="-754.2601" x2="647.1438" y2="-732.2819" gradientTransform="matrix(0.3226 0 0 -0.3226 -164.7406 -226.4277)">
	<stop  offset="0" style="stop-color:#000000;stop-opacity:0.145"/>
	<stop  offset="1" style="stop-color:#000000;stop-opacity:0"/>
</linearGradient>
<path id="path4077" fill="url(#path4077_1_)" d="M38.929,16.821c1.974-1.255,3.889-1.311,6.267-1.355
	c-3.5-1.846-4.388-6.526-4.006-9.539C40.625,8.184,38.555,11.091,38.929,16.821z"/>
<linearGradient id="path4093_1_" gradientUnits="userSpaceOnUse" x1="711.6069" y1="-748.1866" x2="690.6069" y2="-732.1866" gradientTransform="matrix(0.3226 0 0 -0.3226 -164.7406 -226.4277)">
	<stop  offset="0" style="stop-color:#FFFFFF;stop-opacity:0.125"/>
	<stop  offset="1" style="stop-color:#FFFFFF;stop-opacity:0"/>
</linearGradient>
<path id="path4093" fill="url(#path4093_1_)" d="M56.872,15.531c2.816-0.752,4.95,0.611,7.279,1.435
	c0.933-2.558-0.882-6.806-2.628-11.205C60.578,9.038,59.03,13.334,56.872,15.531z"/>
<linearGradient id="path4113_1_" gradientUnits="userSpaceOnUse" x1="585.7464" y1="-765.9921" x2="586.7464" y2="-799.9921" gradientTransform="matrix(0.3226 0 0 -0.3226 -164.7406 -226.4277)">
	<stop  offset="0" style="stop-color:#FFFFFF;stop-opacity:0.125"/>
	<stop  offset="1" style="stop-color:#FFFFFF;stop-opacity:0"/>
</linearGradient>
<path id="path4113" fill="url(#path4113_1_)" d="M24.374,21.016c0.489,3.93,0.416,7.859-0.051,11.789
	C23.979,29.02,24.036,25.074,24.374,21.016z"/>
<linearGradient id="path4123_1_" gradientUnits="userSpaceOnUse" x1="585.5754" y1="-765.9971" x2="586.5754" y2="-799.9971" gradientTransform="matrix(0.3226 0 0 -0.3226 -162.3315 -225.095)">
	<stop  offset="0" style="stop-color:#FFFFFF;stop-opacity:0.125"/>
	<stop  offset="1" style="stop-color:#FFFFFF;stop-opacity:0"/>
</linearGradient>
<path id="path4123" fill="url(#path4123_1_)" d="M25.912,22.502c1.46,4.207,2.358,8.389,0.487,11.917
	C27.366,30.364,26.577,26.354,25.912,22.502z"/>
<linearGradient id="path4129_1_" gradientUnits="userSpaceOnUse" x1="579.3018" y1="-691.4873" x2="580.3018" y2="-725.4873" gradientTransform="matrix(0.3226 0 0 -0.345 -146.903 -200.0324)">
	<stop  offset="0" style="stop-color:#FFFFFF;stop-opacity:0.125"/>
	<stop  offset="1" style="stop-color:#FFFFFF;stop-opacity:0"/>
</linearGradient>
<path id="path4129" fill="url(#path4129_1_)" d="M42.007,38.751c0.66,5.312-2.92,18.838-3.486,22.4
	C38.177,57.102,41.669,43.091,42.007,38.751z"/>
<linearGradient id="path4133_1_" gradientUnits="userSpaceOnUse" x1="590.6804" y1="-691.1526" x2="591.6804" y2="-725.1526" gradientTransform="matrix(0.3226 0 0 -0.345 -128.2453 -199.3148)">
	<stop  offset="0" style="stop-color:#FFFFFF;stop-opacity:0.125"/>
	<stop  offset="1" style="stop-color:#FFFFFF;stop-opacity:0"/>
</linearGradient>
<path id="path4133" fill="url(#path4133_1_)" d="M60.665,39.468c0.66,5.312,4.564,20.529,3.998,24.091
	C64.023,60.692,59.941,45.351,60.665,39.468z"/>
<linearGradient id="path4137_1_" gradientUnits="userSpaceOnUse" x1="584.2126" y1="-691.3428" x2="585.2126" y2="-725.3428" gradientTransform="matrix(0.3226 0 0 -0.345 -112.9706 -216.6398)">
	<stop  offset="0" style="stop-color:#FFFFFF;stop-opacity:0.125"/>
	<stop  offset="1" style="stop-color:#FFFFFF;stop-opacity:0"/>
</linearGradient>
<path id="path4137" fill="url(#path4137_1_)" d="M76.452,22.041c-0.039,5.238-1.091,10.214-1.384,13.84
	C74.399,33.013,75.393,27.924,76.452,22.041z"/>
<linearGradient id="path4141_1_" gradientUnits="userSpaceOnUse" x1="583.7517" y1="-691.3564" x2="584.7517" y2="-725.3564" gradientTransform="matrix(0.3226 0 0 -0.345 -111.074 -215.9735)">
	<stop  offset="0" style="stop-color:#FFFFFF;stop-opacity:0.125"/>
	<stop  offset="1" style="stop-color:#FFFFFF;stop-opacity:0"/>
</linearGradient>
<path id="path4141" fill="url(#path4141_1_)" d="M77.426,22.169c1.167,5.238,0.405,10.752-0.461,14.378
	C77.303,33.679,78.088,28.052,77.426,22.169z"/>
<linearGradient id="path4145_1_" gradientUnits="userSpaceOnUse" x1="586.0615" y1="-691.2885" x2="587.0615" y2="-725.2885" gradientTransform="matrix(0.3226 0 0 -0.345 -115.4566 -215.2815)">
	<stop  offset="0" style="stop-color:#FFFFFF;stop-opacity:0.125"/>
	<stop  offset="1" style="stop-color:#FFFFFF;stop-opacity:0"/>
</linearGradient>
<path id="path4145" fill="url(#path4145_1_)" d="M75.452,26.449c-1.958,3.957-3.257,6.684-2.87,10.79
	C71.677,34.275,71.953,31.633,75.452,26.449z"/>
<linearGradient id="path4149_1_" gradientUnits="userSpaceOnUse" x1="588.4707" y1="-691.2177" x2="589.4707" y2="-725.2177" gradientTransform="matrix(0.3226 0 0 -0.345 -128.0491 -156.737)">
	<stop  offset="0" style="stop-color:#FFFFFF;stop-opacity:0.125"/>
	<stop  offset="1" style="stop-color:#FFFFFF;stop-opacity:0"/>
</linearGradient>
<path id="path4149" fill="url(#path4149_1_)" d="M60.861,82.046c0.66,5.312,2.749,5.666,2.183,9.228
	C62.404,88.407,60.137,87.929,60.861,82.046z"/>
<linearGradient id="path4153_1_" gradientUnits="userSpaceOnUse" x1="579.5977" y1="-691.4786" x2="580.5977" y2="-725.4786" gradientTransform="matrix(0.3226 0 0 -0.345 -147.0325 -157.1785)">
	<stop  offset="0" style="stop-color:#FFFFFF;stop-opacity:0.125"/>
	<stop  offset="1" style="stop-color:#FFFFFF;stop-opacity:0"/>
</linearGradient>
<path id="path4153" fill="url(#path4153_1_)" d="M41.583,81.703c1.043,5.577-1.427,6.511-3.213,9.228
	C38.786,88.742,41.625,88.078,41.583,81.703z"/>
<linearGradient id="path4161_1_" gradientUnits="userSpaceOnUse" x1="670.4516" y1="-709.9259" x2="670.4516" y2="-718.9259" gradientTransform="matrix(0.3226 0 0 -0.3226 -164.7406 -226.4277)">
	<stop  offset="0" style="stop-color:#FFFFFF;stop-opacity:0.075"/>
	<stop  offset="1" style="stop-color:#FFFFFF;stop-opacity:0"/>
</linearGradient>
<path id="path4161" fill="url(#path4161_1_)" d="M42.703,4.614c-0.078-1.918,18.511-2.025,17.633,0.335
	C55.026,2.977,48.199,3.215,42.703,4.614z"/>
</svg>
